G04*
G04 #@! TF.GenerationSoftware,Altium Limited,Altium Designer,23.0.1 (38)*
G04*
G04 Layer_Color=16711935*
%FSLAX44Y44*%
%MOMM*%
G71*
G04*
G04 #@! TF.SameCoordinates,34A72795-73FE-4812-8059-925B3A141BCA*
G04*
G04*
G04 #@! TF.FilePolarity,Negative*
G04*
G01*
G75*
%ADD15C,1.0200*%
%ADD16C,1.8000*%
%ADD17C,5.3000*%
%ADD18C,6.0000*%
%ADD27R,1.0500X2.2000*%
%ADD28R,1.0000X1.0500*%
%ADD29R,0.6000X0.5000*%
%ADD30R,0.7154X0.6725*%
%ADD31R,0.4725X0.5153*%
%ADD32R,0.7000X0.7000*%
%ADD35R,0.7500X0.6500*%
%ADD36R,0.5000X0.5000*%
%ADD39R,1.7000X1.6500*%
%ADD40O,0.8000X0.3500*%
%ADD41O,0.3500X0.8000*%
%ADD42R,0.6500X0.3500*%
%ADD43R,0.8200X0.8600*%
%ADD44R,0.6500X0.7000*%
D15*
X57700Y169900D02*
D03*
Y195300D02*
D03*
Y220700D02*
D03*
Y246100D02*
D03*
Y271500D02*
D03*
Y296900D02*
D03*
Y322300D02*
D03*
Y347700D02*
D03*
Y373100D02*
D03*
Y398500D02*
D03*
Y423900D02*
D03*
Y449300D02*
D03*
Y474700D02*
D03*
Y500100D02*
D03*
Y525500D02*
D03*
Y550900D02*
D03*
Y576300D02*
D03*
Y93700D02*
D03*
Y119100D02*
D03*
Y144500D02*
D03*
X32300Y93700D02*
D03*
Y119100D02*
D03*
Y144500D02*
D03*
Y169900D02*
D03*
Y195300D02*
D03*
Y220700D02*
D03*
Y246100D02*
D03*
Y271500D02*
D03*
Y296900D02*
D03*
Y322300D02*
D03*
Y347700D02*
D03*
Y373100D02*
D03*
Y398500D02*
D03*
Y423900D02*
D03*
Y449300D02*
D03*
Y474700D02*
D03*
Y500100D02*
D03*
Y525500D02*
D03*
Y550900D02*
D03*
Y576300D02*
D03*
D16*
X45000Y106400D02*
D03*
Y563600D02*
D03*
D17*
X170000Y560000D02*
D03*
D18*
X45000Y625000D02*
D03*
Y45000D02*
D03*
D27*
X113520Y453400D02*
D03*
X143020D02*
D03*
D28*
X128270Y438150D02*
D03*
D29*
X94400Y406400D02*
D03*
X83400D02*
D03*
X91860Y370840D02*
D03*
X80860D02*
D03*
D30*
X154646Y349250D02*
D03*
X145074D02*
D03*
D31*
X157480Y381024D02*
D03*
Y388596D02*
D03*
X160020Y369546D02*
D03*
Y361974D02*
D03*
D32*
X142240Y318150D02*
D03*
Y304150D02*
D03*
X158750Y318150D02*
D03*
Y304150D02*
D03*
D35*
X82400Y393620D02*
D03*
X95400D02*
D03*
Y383620D02*
D03*
X82400D02*
D03*
D36*
X107950Y410290D02*
D03*
Y420290D02*
D03*
D39*
X128270Y379730D02*
D03*
D40*
X146770Y369730D02*
D03*
Y374730D02*
D03*
Y379730D02*
D03*
Y384730D02*
D03*
Y389730D02*
D03*
X109770D02*
D03*
Y384730D02*
D03*
Y379730D02*
D03*
Y374730D02*
D03*
Y369730D02*
D03*
D41*
X138270Y398230D02*
D03*
X133270D02*
D03*
X128270D02*
D03*
X123270D02*
D03*
X118270D02*
D03*
Y361230D02*
D03*
X123270D02*
D03*
X128270D02*
D03*
X133270D02*
D03*
X138270D02*
D03*
D42*
X121480Y410290D02*
D03*
X129980D02*
D03*
X121480Y420290D02*
D03*
X129980D02*
D03*
X121480Y415290D02*
D03*
X129980D02*
D03*
D43*
X158750Y421280D02*
D03*
Y411480D02*
D03*
D44*
X147320Y409770D02*
D03*
Y418270D02*
D03*
M02*
