G04*
G04 #@! TF.GenerationSoftware,Altium Limited,Altium Designer,23.1.1 (15)*
G04*
G04 Layer_Color=32896*
%FSLAX44Y44*%
%MOMM*%
G71*
G04*
G04 #@! TF.SameCoordinates,3B1AC52F-6F42-4E56-A2C8-2D262157D8C9*
G04*
G04*
G04 #@! TF.FilePolarity,Positive*
G04*
G01*
G75*
%ADD10C,0.2500*%
%ADD11C,0.2000*%
G36*
X130310Y383771D02*
X130152Y383679D01*
X130002Y383571D01*
X129852Y383454D01*
X129727Y383346D01*
X129610Y383237D01*
X129527Y383154D01*
X129494Y383121D01*
X129469Y383096D01*
X129460Y383079D01*
X129452Y383071D01*
X129294Y382879D01*
X129152Y382688D01*
X129019Y382488D01*
X128910Y382313D01*
X128827Y382154D01*
X128785Y382088D01*
X128760Y382029D01*
X128735Y381988D01*
X128719Y381954D01*
X128702Y381929D01*
Y381921D01*
X127936D01*
X127994Y382063D01*
X128061Y382204D01*
X128127Y382346D01*
X128194Y382471D01*
X128252Y382579D01*
X128302Y382671D01*
X128319Y382704D01*
X128336Y382729D01*
X128344Y382738D01*
Y382746D01*
X128444Y382912D01*
X128544Y383054D01*
X128636Y383187D01*
X128719Y383296D01*
X128785Y383379D01*
X128844Y383446D01*
X128877Y383479D01*
X128885Y383496D01*
X123878D01*
Y384279D01*
X130310D01*
Y383771D01*
D02*
G37*
G36*
X130285Y379372D02*
X126586D01*
X126369Y379363D01*
X126169Y379355D01*
X125986Y379338D01*
X125820Y379313D01*
X125669Y379280D01*
X125536Y379247D01*
X125420Y379213D01*
X125320Y379172D01*
X125228Y379138D01*
X125153Y379097D01*
X125086Y379063D01*
X125036Y379039D01*
X125003Y379005D01*
X124978Y378988D01*
X124961Y378980D01*
X124953Y378972D01*
X124878Y378889D01*
X124820Y378797D01*
X124761Y378697D01*
X124712Y378597D01*
X124636Y378372D01*
X124586Y378155D01*
X124570Y378055D01*
X124562Y377955D01*
X124553Y377864D01*
X124545Y377789D01*
X124537Y377730D01*
Y377639D01*
X124545Y377439D01*
X124570Y377264D01*
X124603Y377106D01*
X124645Y376972D01*
X124678Y376864D01*
X124712Y376781D01*
X124736Y376731D01*
X124745Y376722D01*
Y376714D01*
X124836Y376581D01*
X124928Y376473D01*
X125036Y376381D01*
X125128Y376306D01*
X125220Y376247D01*
X125286Y376214D01*
X125336Y376189D01*
X125345Y376181D01*
X125353D01*
X125436Y376156D01*
X125520Y376131D01*
X125711Y376098D01*
X125920Y376064D01*
X126119Y376048D01*
X126211D01*
X126303Y376039D01*
X126378D01*
X126453Y376031D01*
X126503D01*
X126553D01*
X126578D01*
X126586D01*
X130285D01*
Y375181D01*
X126578D01*
X126394D01*
X126219Y375190D01*
X126053Y375206D01*
X125894Y375223D01*
X125753Y375239D01*
X125620Y375256D01*
X125503Y375281D01*
X125395Y375306D01*
X125295Y375323D01*
X125211Y375348D01*
X125136Y375364D01*
X125078Y375389D01*
X125028Y375398D01*
X124995Y375414D01*
X124978Y375423D01*
X124970D01*
X124761Y375531D01*
X124586Y375656D01*
X124428Y375789D01*
X124303Y375923D01*
X124203Y376048D01*
X124137Y376148D01*
X124112Y376181D01*
X124095Y376214D01*
X124078Y376231D01*
Y376239D01*
X123978Y376464D01*
X123903Y376714D01*
X123845Y376956D01*
X123812Y377189D01*
X123795Y377297D01*
X123787Y377397D01*
X123778Y377489D01*
Y377564D01*
X123770Y377631D01*
Y377714D01*
X123778Y377880D01*
X123787Y378047D01*
X123803Y378197D01*
X123828Y378339D01*
X123853Y378472D01*
X123878Y378589D01*
X123912Y378705D01*
X123945Y378805D01*
X123978Y378897D01*
X124012Y378980D01*
X124037Y379047D01*
X124062Y379105D01*
X124087Y379147D01*
X124103Y379180D01*
X124120Y379197D01*
Y379205D01*
X124187Y379305D01*
X124262Y379405D01*
X124420Y379572D01*
X124570Y379705D01*
X124720Y379813D01*
X124845Y379897D01*
X124903Y379930D01*
X124953Y379955D01*
X124986Y379972D01*
X125020Y379988D01*
X125036Y379997D01*
X125045D01*
X125153Y380038D01*
X125270Y380072D01*
X125520Y380130D01*
X125778Y380163D01*
X126028Y380196D01*
X126136Y380205D01*
X126244Y380213D01*
X126336D01*
X126419Y380221D01*
X126486D01*
X126536D01*
X126569D01*
X126578D01*
X130285D01*
Y379372D01*
D02*
G37*
G36*
X151820Y417719D02*
X148979D01*
Y416619D01*
X148987Y416528D01*
Y416444D01*
X148996Y416378D01*
X149004Y416328D01*
Y416294D01*
X149012Y416278D01*
Y416269D01*
X149062Y416128D01*
X149087Y416061D01*
X149121Y416003D01*
X149146Y415953D01*
X149171Y415919D01*
X149179Y415895D01*
X149187Y415886D01*
X149246Y415811D01*
X149304Y415736D01*
X149379Y415661D01*
X149454Y415595D01*
X149512Y415536D01*
X149571Y415495D01*
X149604Y415461D01*
X149621Y415453D01*
X149746Y415353D01*
X149887Y415253D01*
X150029Y415153D01*
X150170Y415053D01*
X150295Y414970D01*
X150354Y414928D01*
X150404Y414895D01*
X150437Y414870D01*
X150470Y414853D01*
X150487Y414836D01*
X150495D01*
X151820Y413995D01*
Y412929D01*
X150087Y414037D01*
X149904Y414162D01*
X149737Y414287D01*
X149587Y414403D01*
X149471Y414511D01*
X149371Y414612D01*
X149296Y414678D01*
X149254Y414728D01*
X149237Y414737D01*
Y414745D01*
X149179Y414820D01*
X149121Y414895D01*
X149012Y415061D01*
X148971Y415136D01*
X148937Y415195D01*
X148921Y415236D01*
X148912Y415253D01*
X148887Y415086D01*
X148854Y414928D01*
X148812Y414786D01*
X148771Y414653D01*
X148721Y414528D01*
X148671Y414412D01*
X148621Y414312D01*
X148571Y414220D01*
X148521Y414145D01*
X148471Y414078D01*
X148429Y414020D01*
X148396Y413970D01*
X148363Y413937D01*
X148337Y413903D01*
X148329Y413895D01*
X148321Y413887D01*
X148229Y413812D01*
X148138Y413737D01*
X148038Y413678D01*
X147946Y413628D01*
X147754Y413553D01*
X147571Y413503D01*
X147413Y413470D01*
X147346Y413462D01*
X147288Y413453D01*
X147238Y413445D01*
X147205D01*
X147179D01*
X147171D01*
X146980Y413453D01*
X146796Y413487D01*
X146630Y413528D01*
X146488Y413578D01*
X146371Y413628D01*
X146280Y413670D01*
X146246Y413687D01*
X146221Y413703D01*
X146213Y413712D01*
X146205D01*
X146055Y413820D01*
X145921Y413937D01*
X145813Y414053D01*
X145730Y414170D01*
X145663Y414270D01*
X145622Y414353D01*
X145605Y414386D01*
X145597Y414412D01*
X145588Y414420D01*
Y414428D01*
X145555Y414511D01*
X145530Y414612D01*
X145488Y414820D01*
X145455Y415036D01*
X145438Y415245D01*
X145430Y415345D01*
X145422Y415436D01*
Y415511D01*
X145413Y415586D01*
Y418569D01*
X151820D01*
Y417719D01*
D02*
G37*
G36*
X147704Y411687D02*
X147638Y411546D01*
X147571Y411404D01*
X147504Y411279D01*
X147446Y411171D01*
X147396Y411079D01*
X147379Y411046D01*
X147363Y411021D01*
X147354Y411012D01*
Y411004D01*
X147254Y410838D01*
X147155Y410696D01*
X147063Y410563D01*
X146980Y410454D01*
X146913Y410371D01*
X146855Y410304D01*
X146821Y410271D01*
X146813Y410254D01*
X151820D01*
Y409471D01*
X145388D01*
Y409979D01*
X145547Y410071D01*
X145696Y410179D01*
X145847Y410296D01*
X145971Y410404D01*
X146088Y410513D01*
X146171Y410596D01*
X146205Y410629D01*
X146230Y410654D01*
X146238Y410671D01*
X146246Y410679D01*
X146405Y410871D01*
X146546Y411062D01*
X146680Y411262D01*
X146788Y411437D01*
X146871Y411596D01*
X146913Y411662D01*
X146938Y411721D01*
X146963Y411762D01*
X146980Y411796D01*
X146996Y411820D01*
Y411829D01*
X147763D01*
X147704Y411687D01*
D02*
G37*
G36*
X132958Y428954D02*
X132800Y428862D01*
X132650Y428754D01*
X132500Y428637D01*
X132375Y428529D01*
X132258Y428420D01*
X132175Y428337D01*
X132142Y428304D01*
X132117Y428279D01*
X132108Y428262D01*
X132100Y428254D01*
X131942Y428062D01*
X131800Y427870D01*
X131667Y427671D01*
X131559Y427496D01*
X131475Y427337D01*
X131434Y427271D01*
X131409Y427212D01*
X131384Y427171D01*
X131367Y427137D01*
X131350Y427112D01*
Y427104D01*
X130584D01*
X130642Y427246D01*
X130709Y427387D01*
X130775Y427529D01*
X130842Y427654D01*
X130900Y427762D01*
X130950Y427854D01*
X130967Y427887D01*
X130984Y427912D01*
X130992Y427920D01*
Y427929D01*
X131092Y428096D01*
X131192Y428237D01*
X131284Y428370D01*
X131367Y428479D01*
X131434Y428562D01*
X131492Y428629D01*
X131525Y428662D01*
X131534Y428679D01*
X126527D01*
Y429462D01*
X132958D01*
Y428954D01*
D02*
G37*
G36*
X127285Y422663D02*
X132933D01*
Y421814D01*
X126527D01*
Y425813D01*
X127285D01*
Y422663D01*
D02*
G37*
G36*
X130403Y413731D02*
X127254D01*
X127362Y413581D01*
X127420Y413506D01*
X127470Y413447D01*
X127520Y413389D01*
X127554Y413347D01*
X127579Y413322D01*
X127587Y413314D01*
X127629Y413272D01*
X127687Y413214D01*
X127745Y413156D01*
X127812Y413097D01*
X127962Y412964D01*
X128120Y412831D01*
X128262Y412706D01*
X128328Y412648D01*
X128378Y412598D01*
X128428Y412564D01*
X128462Y412531D01*
X128487Y412514D01*
X128495Y412506D01*
X128645Y412373D01*
X128795Y412248D01*
X128920Y412139D01*
X129045Y412031D01*
X129153Y411931D01*
X129253Y411831D01*
X129345Y411748D01*
X129420Y411673D01*
X129495Y411606D01*
X129553Y411548D01*
X129603Y411498D01*
X129645Y411456D01*
X129670Y411423D01*
X129695Y411398D01*
X129711Y411390D01*
Y411381D01*
X129836Y411231D01*
X129945Y411081D01*
X130036Y410948D01*
X130111Y410831D01*
X130170Y410740D01*
X130203Y410665D01*
X130228Y410615D01*
X130236Y410598D01*
X130286Y410457D01*
X130328Y410323D01*
X130353Y410190D01*
X130378Y410082D01*
X130386Y409982D01*
X130394Y409907D01*
Y409857D01*
Y409840D01*
X130386Y409698D01*
X130370Y409565D01*
X130344Y409440D01*
X130311Y409323D01*
X130220Y409107D01*
X130178Y409007D01*
X130128Y408923D01*
X130070Y408840D01*
X130028Y408774D01*
X129978Y408715D01*
X129936Y408665D01*
X129903Y408624D01*
X129878Y408599D01*
X129861Y408582D01*
X129853Y408574D01*
X129745Y408482D01*
X129636Y408407D01*
X129520Y408332D01*
X129395Y408274D01*
X129270Y408224D01*
X129153Y408182D01*
X128920Y408124D01*
X128812Y408099D01*
X128712Y408082D01*
X128620Y408074D01*
X128537Y408065D01*
X128478Y408057D01*
X128387D01*
X128220Y408065D01*
X128062Y408074D01*
X127912Y408099D01*
X127779Y408132D01*
X127645Y408165D01*
X127529Y408207D01*
X127420Y408249D01*
X127320Y408290D01*
X127229Y408340D01*
X127154Y408382D01*
X127087Y408424D01*
X127029Y408457D01*
X126987Y408490D01*
X126954Y408515D01*
X126937Y408524D01*
X126929Y408532D01*
X126829Y408624D01*
X126746Y408724D01*
X126671Y408832D01*
X126604Y408949D01*
X126545Y409057D01*
X126496Y409174D01*
X126420Y409398D01*
X126387Y409498D01*
X126362Y409598D01*
X126346Y409682D01*
X126329Y409757D01*
X126321Y409823D01*
Y409865D01*
X126312Y409898D01*
Y409907D01*
X127120Y409990D01*
X127137Y409773D01*
X127170Y409590D01*
X127229Y409432D01*
X127295Y409290D01*
X127354Y409190D01*
X127412Y409107D01*
X127445Y409065D01*
X127462Y409049D01*
X127595Y408932D01*
X127745Y408848D01*
X127903Y408790D01*
X128045Y408749D01*
X128170Y408724D01*
X128228Y408715D01*
X128278D01*
X128312Y408707D01*
X128370D01*
X128562Y408724D01*
X128737Y408757D01*
X128887Y408807D01*
X129012Y408865D01*
X129111Y408932D01*
X129186Y408982D01*
X129228Y409015D01*
X129245Y409032D01*
X129361Y409157D01*
X129445Y409290D01*
X129503Y409415D01*
X129545Y409540D01*
X129570Y409648D01*
X129578Y409740D01*
X129586Y409773D01*
Y409790D01*
Y409807D01*
Y409815D01*
Y409898D01*
X129570Y409982D01*
X129528Y410157D01*
X129470Y410315D01*
X129403Y410457D01*
X129328Y410581D01*
X129295Y410631D01*
X129270Y410681D01*
X129245Y410715D01*
X129228Y410740D01*
X129220Y410756D01*
X129212Y410765D01*
X129136Y410865D01*
X129045Y410965D01*
X128945Y411073D01*
X128837Y411190D01*
X128603Y411414D01*
X128370Y411631D01*
X128262Y411731D01*
X128153Y411823D01*
X128054Y411906D01*
X127970Y411981D01*
X127903Y412039D01*
X127845Y412081D01*
X127812Y412114D01*
X127803Y412123D01*
X127562Y412323D01*
X127354Y412506D01*
X127179Y412673D01*
X127037Y412814D01*
X126920Y412931D01*
X126837Y413022D01*
X126812Y413056D01*
X126787Y413081D01*
X126779Y413089D01*
X126770Y413097D01*
X126645Y413256D01*
X126537Y413406D01*
X126454Y413547D01*
X126379Y413681D01*
X126321Y413789D01*
X126287Y413872D01*
X126271Y413906D01*
X126262Y413931D01*
X126254Y413939D01*
Y413947D01*
X126221Y414047D01*
X126196Y414139D01*
X126179Y414230D01*
X126171Y414314D01*
X126162Y414389D01*
Y414439D01*
Y414472D01*
Y414489D01*
X130403D01*
Y413731D01*
D02*
G37*
G36*
X125587D02*
X122438D01*
Y408082D01*
X121588D01*
Y414489D01*
X125587D01*
Y413731D01*
D02*
G37*
G36*
X117071Y430274D02*
X117263Y430241D01*
X117438Y430191D01*
X117588Y430132D01*
X117713Y430074D01*
X117754Y430049D01*
X117796Y430024D01*
X117829Y430007D01*
X117854Y429991D01*
X117863Y429974D01*
X117871D01*
X118013Y429849D01*
X118129Y429699D01*
X118229Y429557D01*
X118304Y429416D01*
X118354Y429291D01*
X118379Y429233D01*
X118396Y429183D01*
X118404Y429149D01*
X118413Y429116D01*
X118421Y429099D01*
Y429091D01*
X118504Y429241D01*
X118587Y429374D01*
X118679Y429491D01*
X118771Y429582D01*
X118846Y429658D01*
X118904Y429707D01*
X118946Y429741D01*
X118962Y429749D01*
X119096Y429824D01*
X119229Y429883D01*
X119354Y429916D01*
X119471Y429949D01*
X119571Y429966D01*
X119654Y429974D01*
X119704D01*
X119712D01*
X119720D01*
X119879Y429966D01*
X120029Y429941D01*
X120170Y429899D01*
X120295Y429857D01*
X120395Y429808D01*
X120479Y429774D01*
X120529Y429741D01*
X120537Y429733D01*
X120545D01*
X120687Y429641D01*
X120803Y429533D01*
X120912Y429416D01*
X121004Y429308D01*
X121070Y429208D01*
X121120Y429133D01*
X121137Y429099D01*
X121153Y429074D01*
X121162Y429066D01*
Y429058D01*
X121237Y428891D01*
X121295Y428724D01*
X121328Y428566D01*
X121362Y428416D01*
X121378Y428291D01*
Y428233D01*
X121387Y428191D01*
Y428100D01*
X121378Y427958D01*
X121370Y427825D01*
X121320Y427575D01*
X121245Y427358D01*
X121203Y427267D01*
X121170Y427175D01*
X121128Y427100D01*
X121087Y427025D01*
X121045Y426967D01*
X121012Y426917D01*
X120987Y426875D01*
X120962Y426850D01*
X120954Y426833D01*
X120945Y426825D01*
X120862Y426733D01*
X120770Y426650D01*
X120570Y426508D01*
X120370Y426400D01*
X120179Y426308D01*
X120087Y426275D01*
X120004Y426250D01*
X119920Y426225D01*
X119862Y426208D01*
X119804Y426192D01*
X119762Y426183D01*
X119737Y426175D01*
X119729D01*
X119587Y426958D01*
X119787Y427000D01*
X119962Y427050D01*
X120112Y427117D01*
X120229Y427183D01*
X120329Y427242D01*
X120395Y427291D01*
X120429Y427325D01*
X120445Y427341D01*
X120545Y427466D01*
X120612Y427591D01*
X120662Y427725D01*
X120703Y427841D01*
X120720Y427950D01*
X120729Y428041D01*
X120737Y428075D01*
Y428116D01*
X120729Y428283D01*
X120695Y428424D01*
X120645Y428558D01*
X120595Y428666D01*
X120537Y428749D01*
X120495Y428816D01*
X120462Y428849D01*
X120445Y428866D01*
X120337Y428966D01*
X120212Y429041D01*
X120095Y429091D01*
X119987Y429133D01*
X119887Y429149D01*
X119812Y429158D01*
X119754Y429166D01*
X119746D01*
X119737D01*
X119637Y429158D01*
X119545Y429149D01*
X119379Y429099D01*
X119237Y429041D01*
X119121Y428966D01*
X119037Y428891D01*
X118971Y428824D01*
X118937Y428774D01*
X118921Y428766D01*
Y428758D01*
X118837Y428608D01*
X118771Y428450D01*
X118729Y428299D01*
X118696Y428158D01*
X118679Y428041D01*
X118671Y427941D01*
X118662Y427908D01*
Y427816D01*
X118671Y427775D01*
X118679Y427750D01*
Y427733D01*
X117988Y427641D01*
X118013Y427758D01*
X118038Y427866D01*
X118054Y427966D01*
X118063Y428050D01*
X118071Y428108D01*
Y428200D01*
X118054Y428400D01*
X118013Y428574D01*
X117963Y428724D01*
X117896Y428858D01*
X117829Y428958D01*
X117779Y429033D01*
X117738Y429083D01*
X117721Y429099D01*
X117654Y429166D01*
X117579Y429216D01*
X117438Y429308D01*
X117288Y429374D01*
X117146Y429416D01*
X117021Y429441D01*
X116963Y429449D01*
X116921D01*
X116880Y429458D01*
X116854D01*
X116838D01*
X116830D01*
X116730D01*
X116630Y429441D01*
X116446Y429399D01*
X116280Y429333D01*
X116146Y429266D01*
X116030Y429199D01*
X115946Y429133D01*
X115921Y429108D01*
X115896Y429091D01*
X115888Y429083D01*
X115880Y429074D01*
X115813Y428999D01*
X115755Y428924D01*
X115655Y428766D01*
X115588Y428608D01*
X115547Y428458D01*
X115513Y428333D01*
X115505Y428274D01*
Y428224D01*
X115497Y428191D01*
Y428133D01*
X115513Y427966D01*
X115547Y427808D01*
X115588Y427675D01*
X115646Y427558D01*
X115696Y427458D01*
X115746Y427391D01*
X115780Y427350D01*
X115788Y427333D01*
X115847Y427275D01*
X115913Y427225D01*
X116071Y427133D01*
X116230Y427050D01*
X116388Y426992D01*
X116538Y426941D01*
X116596Y426925D01*
X116655Y426908D01*
X116696Y426900D01*
X116730Y426892D01*
X116755Y426883D01*
X116763D01*
X116655Y426100D01*
X116505Y426117D01*
X116363Y426150D01*
X116238Y426183D01*
X116113Y426233D01*
X115996Y426283D01*
X115888Y426333D01*
X115788Y426392D01*
X115696Y426442D01*
X115622Y426500D01*
X115547Y426550D01*
X115488Y426600D01*
X115438Y426642D01*
X115397Y426683D01*
X115372Y426708D01*
X115355Y426725D01*
X115347Y426733D01*
X115255Y426842D01*
X115180Y426950D01*
X115113Y427066D01*
X115055Y427192D01*
X115013Y427308D01*
X114972Y427425D01*
X114913Y427641D01*
X114888Y427741D01*
X114872Y427841D01*
X114863Y427925D01*
X114855Y427991D01*
X114847Y428050D01*
Y428133D01*
X114855Y428308D01*
X114872Y428466D01*
X114897Y428624D01*
X114938Y428766D01*
X114980Y428908D01*
X115030Y429033D01*
X115080Y429149D01*
X115138Y429258D01*
X115188Y429349D01*
X115238Y429433D01*
X115288Y429507D01*
X115330Y429566D01*
X115372Y429616D01*
X115397Y429649D01*
X115413Y429666D01*
X115422Y429674D01*
X115530Y429782D01*
X115646Y429874D01*
X115772Y429957D01*
X115888Y430032D01*
X116013Y430091D01*
X116130Y430141D01*
X116246Y430182D01*
X116355Y430216D01*
X116455Y430241D01*
X116546Y430257D01*
X116630Y430274D01*
X116705Y430282D01*
X116763Y430291D01*
X116813D01*
X116838D01*
X116846D01*
X117071Y430274D01*
D02*
G37*
G36*
X115713Y422259D02*
X121362D01*
Y421410D01*
X114955D01*
Y425409D01*
X115713D01*
Y422259D01*
D02*
G37*
G36*
X122869Y457949D02*
X122977Y457799D01*
X123094Y457649D01*
X123202Y457524D01*
X123310Y457408D01*
X123394Y457324D01*
X123427Y457291D01*
X123452Y457266D01*
X123469Y457258D01*
X123477Y457249D01*
X123668Y457091D01*
X123860Y456950D01*
X124060Y456816D01*
X124235Y456708D01*
X124393Y456625D01*
X124460Y456583D01*
X124518Y456558D01*
X124560Y456533D01*
X124593Y456516D01*
X124618Y456500D01*
X124627D01*
Y455733D01*
X124485Y455792D01*
X124343Y455858D01*
X124202Y455925D01*
X124077Y455992D01*
X123968Y456050D01*
X123877Y456100D01*
X123843Y456116D01*
X123819Y456133D01*
X123810Y456142D01*
X123802D01*
X123635Y456241D01*
X123494Y456341D01*
X123360Y456433D01*
X123252Y456516D01*
X123169Y456583D01*
X123102Y456641D01*
X123069Y456675D01*
X123052Y456683D01*
Y451676D01*
X122269D01*
Y458108D01*
X122777D01*
X122869Y457949D01*
D02*
G37*
G36*
X117895D02*
X118003Y457799D01*
X118120Y457649D01*
X118228Y457524D01*
X118337Y457408D01*
X118420Y457324D01*
X118453Y457291D01*
X118478Y457266D01*
X118495Y457258D01*
X118503Y457249D01*
X118695Y457091D01*
X118886Y456950D01*
X119086Y456816D01*
X119261Y456708D01*
X119420Y456625D01*
X119486Y456583D01*
X119545Y456558D01*
X119586Y456533D01*
X119620Y456516D01*
X119645Y456500D01*
X119653D01*
Y455733D01*
X119511Y455792D01*
X119370Y455858D01*
X119228Y455925D01*
X119103Y455992D01*
X118995Y456050D01*
X118903Y456100D01*
X118870Y456116D01*
X118845Y456133D01*
X118836Y456142D01*
X118828D01*
X118661Y456241D01*
X118520Y456341D01*
X118387Y456433D01*
X118278Y456516D01*
X118195Y456583D01*
X118128Y456641D01*
X118095Y456675D01*
X118078Y456683D01*
Y451676D01*
X117295D01*
Y458108D01*
X117803D01*
X117895Y457949D01*
D02*
G37*
G36*
X128909Y458174D02*
X129200Y458133D01*
X129467Y458066D01*
X129584Y458033D01*
X129700Y457999D01*
X129800Y457958D01*
X129892Y457924D01*
X129967Y457891D01*
X130034Y457858D01*
X130084Y457833D01*
X130125Y457816D01*
X130150Y457808D01*
X130159Y457799D01*
X130283Y457724D01*
X130408Y457641D01*
X130625Y457458D01*
X130817Y457275D01*
X130967Y457091D01*
X131033Y457000D01*
X131092Y456925D01*
X131142Y456850D01*
X131175Y456791D01*
X131208Y456741D01*
X131233Y456700D01*
X131242Y456675D01*
X131250Y456666D01*
X131317Y456525D01*
X131375Y456375D01*
X131467Y456083D01*
X131533Y455792D01*
X131558Y455650D01*
X131575Y455517D01*
X131592Y455392D01*
X131608Y455283D01*
X131616Y455183D01*
Y455092D01*
X131625Y455025D01*
Y454967D01*
Y454933D01*
Y454925D01*
X131608Y454592D01*
X131575Y454267D01*
X131550Y454125D01*
X131517Y453984D01*
X131491Y453850D01*
X131458Y453725D01*
X131425Y453609D01*
X131400Y453509D01*
X131367Y453425D01*
X131342Y453350D01*
X131325Y453292D01*
X131308Y453242D01*
X131292Y453217D01*
Y453209D01*
X131225Y453067D01*
X131150Y452926D01*
X131075Y452801D01*
X130992Y452684D01*
X130908Y452567D01*
X130825Y452467D01*
X130750Y452376D01*
X130667Y452301D01*
X130592Y452226D01*
X130525Y452159D01*
X130458Y452109D01*
X130408Y452067D01*
X130358Y452026D01*
X130325Y452001D01*
X130309Y451992D01*
X130300Y451984D01*
X130175Y451909D01*
X130042Y451851D01*
X129900Y451793D01*
X129759Y451743D01*
X129475Y451668D01*
X129209Y451618D01*
X129084Y451601D01*
X128975Y451593D01*
X128867Y451584D01*
X128784Y451576D01*
X128709Y451568D01*
X128609D01*
X128426Y451576D01*
X128251Y451593D01*
X128084Y451618D01*
X127926Y451651D01*
X127776Y451693D01*
X127634Y451743D01*
X127509Y451784D01*
X127384Y451843D01*
X127284Y451893D01*
X127193Y451934D01*
X127109Y451984D01*
X127043Y452026D01*
X126984Y452059D01*
X126951Y452084D01*
X126926Y452101D01*
X126918Y452109D01*
X126793Y452217D01*
X126676Y452334D01*
X126568Y452459D01*
X126476Y452592D01*
X126384Y452726D01*
X126309Y452851D01*
X126235Y452984D01*
X126176Y453109D01*
X126118Y453234D01*
X126076Y453342D01*
X126035Y453442D01*
X126001Y453526D01*
X125985Y453600D01*
X125968Y453659D01*
X125951Y453692D01*
Y453700D01*
X126801Y453917D01*
X126843Y453767D01*
X126884Y453634D01*
X126934Y453509D01*
X126984Y453384D01*
X127043Y453275D01*
X127093Y453176D01*
X127151Y453084D01*
X127209Y453009D01*
X127259Y452934D01*
X127309Y452876D01*
X127359Y452817D01*
X127393Y452776D01*
X127426Y452742D01*
X127451Y452717D01*
X127468Y452709D01*
X127476Y452701D01*
X127568Y452626D01*
X127668Y452567D01*
X127767Y452509D01*
X127876Y452467D01*
X128076Y452392D01*
X128267Y452342D01*
X128351Y452326D01*
X128434Y452317D01*
X128501Y452309D01*
X128567Y452301D01*
X128617Y452292D01*
X128684D01*
X128900Y452309D01*
X129101Y452342D01*
X129284Y452384D01*
X129450Y452442D01*
X129584Y452501D01*
X129642Y452526D01*
X129684Y452542D01*
X129725Y452567D01*
X129750Y452576D01*
X129767Y452592D01*
X129775D01*
X129950Y452717D01*
X130100Y452859D01*
X130225Y453009D01*
X130333Y453159D01*
X130417Y453292D01*
X130442Y453350D01*
X130467Y453400D01*
X130492Y453442D01*
X130508Y453475D01*
X130517Y453492D01*
Y453501D01*
X130592Y453734D01*
X130650Y453984D01*
X130692Y454217D01*
X130717Y454442D01*
X130733Y454542D01*
Y454633D01*
X130742Y454717D01*
X130750Y454792D01*
Y454850D01*
Y454892D01*
Y454917D01*
Y454925D01*
X130742Y455158D01*
X130717Y455383D01*
X130683Y455592D01*
X130650Y455783D01*
X130633Y455858D01*
X130617Y455933D01*
X130600Y456000D01*
X130583Y456058D01*
X130567Y456100D01*
X130558Y456133D01*
X130550Y456150D01*
Y456158D01*
X130467Y456375D01*
X130358Y456558D01*
X130242Y456725D01*
X130125Y456858D01*
X130025Y456966D01*
X129942Y457041D01*
X129909Y457075D01*
X129884Y457091D01*
X129867Y457108D01*
X129859D01*
X129759Y457174D01*
X129659Y457225D01*
X129450Y457316D01*
X129242Y457383D01*
X129051Y457425D01*
X128959Y457433D01*
X128876Y457449D01*
X128801Y457458D01*
X128742D01*
X128692Y457466D01*
X128617D01*
X128384Y457449D01*
X128176Y457416D01*
X127992Y457366D01*
X127834Y457308D01*
X127709Y457241D01*
X127659Y457216D01*
X127618Y457191D01*
X127584Y457174D01*
X127559Y457158D01*
X127551Y457141D01*
X127542D01*
X127468Y457075D01*
X127393Y457008D01*
X127259Y456850D01*
X127151Y456683D01*
X127059Y456516D01*
X126984Y456366D01*
X126959Y456300D01*
X126934Y456241D01*
X126918Y456191D01*
X126901Y456158D01*
X126893Y456133D01*
Y456125D01*
X126060Y456325D01*
X126110Y456483D01*
X126176Y456641D01*
X126243Y456783D01*
X126318Y456916D01*
X126393Y457033D01*
X126468Y457150D01*
X126543Y457249D01*
X126618Y457341D01*
X126693Y457425D01*
X126759Y457499D01*
X126826Y457558D01*
X126876Y457608D01*
X126918Y457649D01*
X126959Y457674D01*
X126976Y457691D01*
X126984Y457699D01*
X127109Y457783D01*
X127243Y457866D01*
X127376Y457924D01*
X127509Y457983D01*
X127651Y458033D01*
X127784Y458074D01*
X128034Y458133D01*
X128151Y458149D01*
X128259Y458166D01*
X128359Y458174D01*
X128442Y458183D01*
X128509Y458191D01*
X128759D01*
X128909Y458174D01*
D02*
G37*
G36*
X132330Y446130D02*
X132172Y446038D01*
X132022Y445930D01*
X131872Y445813D01*
X131747Y445705D01*
X131630Y445597D01*
X131547Y445513D01*
X131514Y445480D01*
X131489Y445455D01*
X131480Y445438D01*
X131472Y445430D01*
X131314Y445238D01*
X131172Y445047D01*
X131039Y444847D01*
X130930Y444672D01*
X130847Y444514D01*
X130805Y444447D01*
X130780Y444389D01*
X130755Y444347D01*
X130739Y444314D01*
X130722Y444289D01*
Y444280D01*
X129956D01*
X130014Y444422D01*
X130081Y444563D01*
X130147Y444705D01*
X130214Y444830D01*
X130272Y444938D01*
X130322Y445030D01*
X130339Y445063D01*
X130356Y445088D01*
X130364Y445097D01*
Y445105D01*
X130464Y445272D01*
X130564Y445413D01*
X130655Y445547D01*
X130739Y445655D01*
X130805Y445738D01*
X130864Y445805D01*
X130897Y445838D01*
X130905Y445855D01*
X125898D01*
Y446638D01*
X132330D01*
Y446130D01*
D02*
G37*
G36*
X128139Y442106D02*
X127989Y442064D01*
X127856Y442023D01*
X127731Y441973D01*
X127606Y441922D01*
X127498Y441864D01*
X127398Y441814D01*
X127306Y441756D01*
X127231Y441698D01*
X127156Y441648D01*
X127098Y441598D01*
X127040Y441548D01*
X126998Y441514D01*
X126965Y441481D01*
X126940Y441456D01*
X126931Y441439D01*
X126923Y441431D01*
X126848Y441339D01*
X126790Y441239D01*
X126731Y441139D01*
X126690Y441031D01*
X126615Y440831D01*
X126565Y440639D01*
X126548Y440556D01*
X126540Y440473D01*
X126531Y440406D01*
X126523Y440340D01*
X126515Y440290D01*
Y440223D01*
X126531Y440006D01*
X126565Y439806D01*
X126607Y439623D01*
X126665Y439456D01*
X126723Y439323D01*
X126748Y439265D01*
X126765Y439223D01*
X126790Y439182D01*
X126798Y439157D01*
X126815Y439140D01*
Y439132D01*
X126940Y438957D01*
X127081Y438807D01*
X127231Y438682D01*
X127381Y438573D01*
X127515Y438490D01*
X127573Y438465D01*
X127623Y438440D01*
X127664Y438415D01*
X127698Y438398D01*
X127715Y438390D01*
X127723D01*
X127956Y438315D01*
X128206Y438257D01*
X128439Y438215D01*
X128664Y438190D01*
X128764Y438173D01*
X128856D01*
X128939Y438165D01*
X129014Y438157D01*
X129073D01*
X129114D01*
X129139D01*
X129148D01*
X129381Y438165D01*
X129606Y438190D01*
X129814Y438223D01*
X130006Y438257D01*
X130081Y438273D01*
X130155Y438290D01*
X130222Y438307D01*
X130281Y438323D01*
X130322Y438340D01*
X130356Y438348D01*
X130372Y438357D01*
X130380D01*
X130597Y438440D01*
X130780Y438548D01*
X130947Y438665D01*
X131080Y438782D01*
X131189Y438882D01*
X131264Y438965D01*
X131297Y438998D01*
X131314Y439023D01*
X131330Y439040D01*
Y439048D01*
X131397Y439148D01*
X131447Y439248D01*
X131538Y439456D01*
X131605Y439665D01*
X131647Y439856D01*
X131655Y439948D01*
X131672Y440031D01*
X131680Y440106D01*
Y440165D01*
X131688Y440215D01*
Y440290D01*
X131672Y440523D01*
X131638Y440731D01*
X131588Y440914D01*
X131530Y441073D01*
X131463Y441198D01*
X131439Y441248D01*
X131414Y441289D01*
X131397Y441323D01*
X131380Y441348D01*
X131364Y441356D01*
Y441364D01*
X131297Y441439D01*
X131230Y441514D01*
X131072Y441648D01*
X130905Y441756D01*
X130739Y441847D01*
X130589Y441922D01*
X130522Y441948D01*
X130464Y441973D01*
X130414Y441989D01*
X130380Y442006D01*
X130356Y442014D01*
X130347D01*
X130547Y442847D01*
X130705Y442797D01*
X130864Y442731D01*
X131005Y442664D01*
X131139Y442589D01*
X131255Y442514D01*
X131372Y442439D01*
X131472Y442364D01*
X131564Y442289D01*
X131647Y442214D01*
X131722Y442147D01*
X131780Y442081D01*
X131830Y442031D01*
X131872Y441989D01*
X131897Y441948D01*
X131913Y441931D01*
X131922Y441922D01*
X132005Y441797D01*
X132088Y441664D01*
X132147Y441531D01*
X132205Y441398D01*
X132255Y441256D01*
X132297Y441123D01*
X132355Y440873D01*
X132372Y440756D01*
X132388Y440648D01*
X132397Y440548D01*
X132405Y440465D01*
X132413Y440398D01*
Y440148D01*
X132397Y439998D01*
X132355Y439706D01*
X132288Y439440D01*
X132255Y439323D01*
X132222Y439207D01*
X132180Y439107D01*
X132147Y439015D01*
X132113Y438940D01*
X132080Y438873D01*
X132055Y438823D01*
X132038Y438782D01*
X132030Y438757D01*
X132022Y438748D01*
X131947Y438623D01*
X131863Y438498D01*
X131680Y438282D01*
X131497Y438090D01*
X131314Y437940D01*
X131222Y437873D01*
X131147Y437815D01*
X131072Y437765D01*
X131014Y437732D01*
X130964Y437699D01*
X130922Y437674D01*
X130897Y437665D01*
X130889Y437657D01*
X130747Y437590D01*
X130597Y437532D01*
X130306Y437440D01*
X130014Y437374D01*
X129872Y437349D01*
X129739Y437332D01*
X129614Y437315D01*
X129506Y437299D01*
X129406Y437290D01*
X129314D01*
X129247Y437282D01*
X129189D01*
X129156D01*
X129148D01*
X128814Y437299D01*
X128489Y437332D01*
X128348Y437357D01*
X128206Y437390D01*
X128073Y437415D01*
X127948Y437449D01*
X127831Y437482D01*
X127731Y437507D01*
X127648Y437540D01*
X127573Y437565D01*
X127515Y437582D01*
X127465Y437599D01*
X127440Y437615D01*
X127431D01*
X127290Y437682D01*
X127148Y437757D01*
X127023Y437832D01*
X126906Y437915D01*
X126790Y437999D01*
X126690Y438082D01*
X126598Y438157D01*
X126523Y438240D01*
X126448Y438315D01*
X126382Y438382D01*
X126332Y438448D01*
X126290Y438498D01*
X126248Y438548D01*
X126223Y438582D01*
X126215Y438598D01*
X126207Y438607D01*
X126132Y438732D01*
X126073Y438865D01*
X126015Y439007D01*
X125965Y439148D01*
X125890Y439431D01*
X125840Y439698D01*
X125823Y439823D01*
X125815Y439931D01*
X125807Y440040D01*
X125798Y440123D01*
X125790Y440198D01*
Y440298D01*
X125798Y440481D01*
X125815Y440656D01*
X125840Y440823D01*
X125873Y440981D01*
X125915Y441131D01*
X125965Y441273D01*
X126007Y441398D01*
X126065Y441523D01*
X126115Y441623D01*
X126157Y441714D01*
X126207Y441797D01*
X126248Y441864D01*
X126281Y441922D01*
X126306Y441956D01*
X126323Y441981D01*
X126332Y441989D01*
X126440Y442114D01*
X126557Y442231D01*
X126681Y442339D01*
X126815Y442431D01*
X126948Y442522D01*
X127073Y442597D01*
X127206Y442672D01*
X127331Y442731D01*
X127456Y442789D01*
X127564Y442831D01*
X127664Y442872D01*
X127748Y442906D01*
X127823Y442922D01*
X127881Y442939D01*
X127914Y442956D01*
X127923D01*
X128139Y442106D01*
D02*
G37*
G36*
X146836Y349435D02*
X147161Y349402D01*
X147302Y349377D01*
X147444Y349344D01*
X147577Y349319D01*
X147702Y349285D01*
X147819Y349252D01*
X147919Y349227D01*
X148002Y349194D01*
X148077Y349169D01*
X148135Y349152D01*
X148185Y349135D01*
X148210Y349119D01*
X148219D01*
X148360Y349052D01*
X148502Y348977D01*
X148627Y348902D01*
X148744Y348819D01*
X148860Y348736D01*
X148960Y348652D01*
X149052Y348577D01*
X149127Y348494D01*
X149202Y348419D01*
X149269Y348352D01*
X149319Y348286D01*
X149360Y348236D01*
X149402Y348186D01*
X149427Y348152D01*
X149435Y348136D01*
X149443Y348127D01*
X149518Y348002D01*
X149577Y347869D01*
X149635Y347727D01*
X149685Y347586D01*
X149760Y347303D01*
X149810Y347036D01*
X149827Y346911D01*
X149835Y346803D01*
X149843Y346694D01*
X149852Y346611D01*
X149860Y346536D01*
Y346436D01*
X149852Y346253D01*
X149835Y346078D01*
X149810Y345911D01*
X149777Y345753D01*
X149735Y345603D01*
X149685Y345461D01*
X149643Y345336D01*
X149585Y345211D01*
X149535Y345111D01*
X149493Y345020D01*
X149443Y344936D01*
X149402Y344870D01*
X149368Y344812D01*
X149344Y344778D01*
X149327Y344753D01*
X149319Y344745D01*
X149210Y344620D01*
X149094Y344503D01*
X148969Y344395D01*
X148835Y344303D01*
X148702Y344212D01*
X148577Y344137D01*
X148444Y344062D01*
X148319Y344003D01*
X148194Y343945D01*
X148085Y343903D01*
X147985Y343862D01*
X147902Y343828D01*
X147827Y343812D01*
X147769Y343795D01*
X147736Y343778D01*
X147727D01*
X147511Y344628D01*
X147661Y344670D01*
X147794Y344711D01*
X147919Y344762D01*
X148044Y344812D01*
X148152Y344870D01*
X148252Y344920D01*
X148344Y344978D01*
X148419Y345036D01*
X148494Y345086D01*
X148552Y345136D01*
X148610Y345186D01*
X148652Y345220D01*
X148685Y345253D01*
X148710Y345278D01*
X148719Y345295D01*
X148727Y345303D01*
X148802Y345395D01*
X148860Y345495D01*
X148919Y345595D01*
X148960Y345703D01*
X149035Y345903D01*
X149085Y346095D01*
X149102Y346178D01*
X149110Y346261D01*
X149118Y346328D01*
X149127Y346394D01*
X149135Y346444D01*
Y346511D01*
X149118Y346728D01*
X149085Y346928D01*
X149044Y347111D01*
X148985Y347277D01*
X148927Y347411D01*
X148902Y347469D01*
X148885Y347511D01*
X148860Y347552D01*
X148852Y347578D01*
X148835Y347594D01*
Y347603D01*
X148710Y347777D01*
X148569Y347927D01*
X148419Y348052D01*
X148269Y348161D01*
X148135Y348244D01*
X148077Y348269D01*
X148027Y348294D01*
X147985Y348319D01*
X147952Y348336D01*
X147935Y348344D01*
X147927D01*
X147694Y348419D01*
X147444Y348477D01*
X147211Y348519D01*
X146986Y348544D01*
X146886Y348560D01*
X146794D01*
X146711Y348569D01*
X146636Y348577D01*
X146578D01*
X146536D01*
X146511D01*
X146503D01*
X146269Y348569D01*
X146044Y348544D01*
X145836Y348511D01*
X145644Y348477D01*
X145569Y348461D01*
X145494Y348444D01*
X145428Y348427D01*
X145370Y348411D01*
X145328Y348394D01*
X145295Y348386D01*
X145278Y348377D01*
X145269D01*
X145053Y348294D01*
X144870Y348186D01*
X144703Y348069D01*
X144570Y347952D01*
X144461Y347852D01*
X144386Y347769D01*
X144353Y347736D01*
X144336Y347711D01*
X144320Y347694D01*
Y347686D01*
X144253Y347586D01*
X144203Y347486D01*
X144111Y347277D01*
X144045Y347069D01*
X144003Y346878D01*
X143995Y346786D01*
X143978Y346703D01*
X143970Y346628D01*
Y346569D01*
X143961Y346519D01*
Y346444D01*
X143978Y346211D01*
X144011Y346003D01*
X144061Y345820D01*
X144120Y345661D01*
X144186Y345536D01*
X144211Y345486D01*
X144236Y345445D01*
X144253Y345411D01*
X144270Y345386D01*
X144286Y345378D01*
Y345370D01*
X144353Y345295D01*
X144420Y345220D01*
X144578Y345086D01*
X144745Y344978D01*
X144911Y344887D01*
X145061Y344812D01*
X145128Y344786D01*
X145186Y344762D01*
X145236Y344745D01*
X145269Y344728D01*
X145295Y344720D01*
X145303D01*
X145103Y343887D01*
X144945Y343937D01*
X144786Y344003D01*
X144645Y344070D01*
X144511Y344145D01*
X144395Y344220D01*
X144278Y344295D01*
X144178Y344370D01*
X144087Y344445D01*
X144003Y344520D01*
X143928Y344587D01*
X143870Y344653D01*
X143820Y344703D01*
X143778Y344745D01*
X143753Y344786D01*
X143737Y344803D01*
X143728Y344812D01*
X143645Y344936D01*
X143562Y345070D01*
X143503Y345203D01*
X143445Y345336D01*
X143395Y345478D01*
X143353Y345611D01*
X143295Y345861D01*
X143278Y345978D01*
X143262Y346086D01*
X143253Y346186D01*
X143245Y346269D01*
X143237Y346336D01*
Y346586D01*
X143253Y346736D01*
X143295Y347028D01*
X143362Y347294D01*
X143395Y347411D01*
X143428Y347528D01*
X143470Y347627D01*
X143503Y347719D01*
X143537Y347794D01*
X143570Y347861D01*
X143595Y347911D01*
X143612Y347952D01*
X143620Y347977D01*
X143628Y347986D01*
X143703Y348111D01*
X143787Y348236D01*
X143970Y348452D01*
X144153Y348644D01*
X144336Y348794D01*
X144428Y348861D01*
X144503Y348919D01*
X144578Y348969D01*
X144636Y349002D01*
X144686Y349035D01*
X144728Y349060D01*
X144753Y349069D01*
X144761Y349077D01*
X144903Y349144D01*
X145053Y349202D01*
X145344Y349294D01*
X145636Y349360D01*
X145778Y349385D01*
X145911Y349402D01*
X146036Y349419D01*
X146144Y349435D01*
X146244Y349444D01*
X146336D01*
X146403Y349452D01*
X146461D01*
X146494D01*
X146503D01*
X146836Y349435D01*
D02*
G37*
G36*
X148219Y340538D02*
X149752D01*
Y339754D01*
X148219D01*
Y338888D01*
X147494D01*
Y339754D01*
X143345D01*
Y340396D01*
X147494Y343320D01*
X148219D01*
Y340538D01*
D02*
G37*
G36*
X156171Y390121D02*
X156329Y390104D01*
X156479Y390079D01*
X156629Y390038D01*
X156763Y389996D01*
X156879Y389946D01*
X156996Y389896D01*
X157096Y389838D01*
X157187Y389788D01*
X157271Y389730D01*
X157337Y389680D01*
X157396Y389638D01*
X157446Y389596D01*
X157479Y389571D01*
X157496Y389555D01*
X157504Y389546D01*
X157604Y389438D01*
X157696Y389321D01*
X157771Y389205D01*
X157846Y389088D01*
X157896Y388963D01*
X157946Y388847D01*
X157987Y388738D01*
X158012Y388630D01*
X158037Y388521D01*
X158054Y388430D01*
X158070Y388347D01*
X158079Y388280D01*
X158087Y388222D01*
Y388138D01*
X158079Y388022D01*
X158070Y387905D01*
X158021Y387680D01*
X157962Y387480D01*
X157887Y387297D01*
X157846Y387214D01*
X157812Y387147D01*
X157771Y387080D01*
X157746Y387030D01*
X157721Y386989D01*
X157696Y386955D01*
X157687Y386939D01*
X157679Y386930D01*
X159412Y387272D01*
Y389829D01*
X160162D01*
Y386647D01*
X156871Y386031D01*
X156763Y386772D01*
X156862Y386839D01*
X156946Y386914D01*
X157029Y386997D01*
X157087Y387072D01*
X157146Y387139D01*
X157179Y387189D01*
X157204Y387222D01*
X157212Y387239D01*
X157271Y387355D01*
X157321Y387480D01*
X157354Y387597D01*
X157371Y387697D01*
X157387Y387797D01*
X157396Y387863D01*
Y388047D01*
X157379Y388147D01*
X157337Y388347D01*
X157271Y388513D01*
X157204Y388655D01*
X157129Y388772D01*
X157063Y388855D01*
X157037Y388880D01*
X157021Y388905D01*
X157013Y388921D01*
X157004D01*
X156929Y388988D01*
X156846Y389046D01*
X156671Y389138D01*
X156496Y389205D01*
X156321Y389246D01*
X156171Y389280D01*
X156104Y389288D01*
X156046D01*
X156004Y389296D01*
X155971D01*
X155946D01*
X155938D01*
X155805D01*
X155688Y389280D01*
X155463Y389238D01*
X155271Y389171D01*
X155105Y389105D01*
X155038Y389063D01*
X154980Y389030D01*
X154921Y388996D01*
X154880Y388963D01*
X154846Y388938D01*
X154821Y388921D01*
X154813Y388913D01*
X154805Y388905D01*
X154730Y388830D01*
X154663Y388755D01*
X154605Y388671D01*
X154563Y388588D01*
X154480Y388430D01*
X154430Y388272D01*
X154405Y388138D01*
X154396Y388080D01*
X154388Y388038D01*
X154380Y387997D01*
Y387938D01*
X154396Y387763D01*
X154430Y387613D01*
X154472Y387472D01*
X154530Y387355D01*
X154580Y387263D01*
X154630Y387189D01*
X154663Y387147D01*
X154671Y387130D01*
X154796Y387022D01*
X154938Y386930D01*
X155088Y386855D01*
X155238Y386797D01*
X155363Y386764D01*
X155421Y386747D01*
X155471Y386730D01*
X155513Y386722D01*
X155546D01*
X155563Y386714D01*
X155571D01*
X155513Y385889D01*
X155363Y385906D01*
X155221Y385939D01*
X155096Y385972D01*
X154971Y386022D01*
X154855Y386064D01*
X154746Y386122D01*
X154646Y386172D01*
X154563Y386231D01*
X154480Y386281D01*
X154413Y386339D01*
X154355Y386380D01*
X154305Y386430D01*
X154263Y386464D01*
X154238Y386489D01*
X154221Y386505D01*
X154213Y386514D01*
X154130Y386622D01*
X154055Y386730D01*
X153988Y386847D01*
X153938Y386972D01*
X153888Y387089D01*
X153847Y387205D01*
X153788Y387430D01*
X153772Y387538D01*
X153755Y387630D01*
X153747Y387722D01*
X153738Y387797D01*
X153730Y387855D01*
Y387938D01*
X153738Y388130D01*
X153763Y388313D01*
X153805Y388488D01*
X153855Y388655D01*
X153913Y388805D01*
X153972Y388938D01*
X154047Y389063D01*
X154122Y389180D01*
X154188Y389280D01*
X154263Y389371D01*
X154321Y389446D01*
X154388Y389505D01*
X154430Y389555D01*
X154472Y389596D01*
X154496Y389613D01*
X154505Y389621D01*
X154630Y389713D01*
X154755Y389788D01*
X154880Y389855D01*
X155005Y389913D01*
X155130Y389963D01*
X155255Y390005D01*
X155496Y390063D01*
X155596Y390088D01*
X155696Y390104D01*
X155788Y390113D01*
X155863Y390121D01*
X155921Y390130D01*
X155963D01*
X155996D01*
X156004D01*
X156171Y390121D01*
D02*
G37*
G36*
X156079Y384314D02*
X155929Y384273D01*
X155796Y384231D01*
X155671Y384181D01*
X155546Y384131D01*
X155438Y384073D01*
X155338Y384023D01*
X155246Y383964D01*
X155171Y383906D01*
X155096Y383856D01*
X155038Y383806D01*
X154980Y383756D01*
X154938Y383723D01*
X154905Y383689D01*
X154880Y383665D01*
X154871Y383648D01*
X154863Y383639D01*
X154788Y383548D01*
X154730Y383448D01*
X154671Y383348D01*
X154630Y383240D01*
X154555Y383040D01*
X154505Y382848D01*
X154488Y382765D01*
X154480Y382681D01*
X154472Y382615D01*
X154463Y382548D01*
X154455Y382498D01*
Y382431D01*
X154472Y382215D01*
X154505Y382015D01*
X154546Y381832D01*
X154605Y381665D01*
X154663Y381532D01*
X154688Y381473D01*
X154705Y381432D01*
X154730Y381390D01*
X154738Y381365D01*
X154755Y381348D01*
Y381340D01*
X154880Y381165D01*
X155021Y381015D01*
X155171Y380890D01*
X155321Y380782D01*
X155455Y380699D01*
X155513Y380674D01*
X155563Y380649D01*
X155604Y380624D01*
X155638Y380607D01*
X155654Y380599D01*
X155663D01*
X155896Y380524D01*
X156146Y380465D01*
X156379Y380424D01*
X156604Y380399D01*
X156704Y380382D01*
X156796D01*
X156879Y380374D01*
X156954Y380365D01*
X157013D01*
X157054D01*
X157079D01*
X157087D01*
X157321Y380374D01*
X157546Y380399D01*
X157754Y380432D01*
X157946Y380465D01*
X158021Y380482D01*
X158096Y380499D01*
X158162Y380515D01*
X158221Y380532D01*
X158262Y380549D01*
X158295Y380557D01*
X158312Y380565D01*
X158321D01*
X158537Y380649D01*
X158720Y380757D01*
X158887Y380873D01*
X159020Y380990D01*
X159129Y381090D01*
X159204Y381173D01*
X159237Y381207D01*
X159254Y381232D01*
X159270Y381248D01*
Y381257D01*
X159337Y381357D01*
X159387Y381457D01*
X159479Y381665D01*
X159545Y381873D01*
X159587Y382065D01*
X159595Y382156D01*
X159612Y382240D01*
X159620Y382315D01*
Y382373D01*
X159628Y382423D01*
Y382498D01*
X159612Y382731D01*
X159579Y382940D01*
X159529Y383123D01*
X159470Y383281D01*
X159403Y383406D01*
X159378Y383456D01*
X159354Y383498D01*
X159337Y383531D01*
X159320Y383556D01*
X159304Y383564D01*
Y383573D01*
X159237Y383648D01*
X159170Y383723D01*
X159012Y383856D01*
X158845Y383964D01*
X158679Y384056D01*
X158529Y384131D01*
X158462Y384156D01*
X158404Y384181D01*
X158354Y384198D01*
X158321Y384214D01*
X158295Y384223D01*
X158287D01*
X158487Y385056D01*
X158645Y385006D01*
X158804Y384939D01*
X158945Y384873D01*
X159079Y384798D01*
X159195Y384723D01*
X159312Y384647D01*
X159412Y384573D01*
X159503Y384498D01*
X159587Y384423D01*
X159662Y384356D01*
X159720Y384289D01*
X159770Y384239D01*
X159812Y384198D01*
X159837Y384156D01*
X159853Y384139D01*
X159862Y384131D01*
X159945Y384006D01*
X160028Y383873D01*
X160087Y383739D01*
X160145Y383606D01*
X160195Y383465D01*
X160237Y383331D01*
X160295Y383081D01*
X160312Y382965D01*
X160328Y382856D01*
X160337Y382756D01*
X160345Y382673D01*
X160353Y382606D01*
Y382356D01*
X160337Y382206D01*
X160295Y381915D01*
X160228Y381648D01*
X160195Y381532D01*
X160162Y381415D01*
X160120Y381315D01*
X160087Y381223D01*
X160053Y381148D01*
X160020Y381082D01*
X159995Y381032D01*
X159978Y380990D01*
X159970Y380965D01*
X159962Y380957D01*
X159887Y380832D01*
X159803Y380707D01*
X159620Y380490D01*
X159437Y380299D01*
X159254Y380149D01*
X159162Y380082D01*
X159087Y380024D01*
X159012Y379974D01*
X158954Y379940D01*
X158904Y379907D01*
X158862Y379882D01*
X158837Y379874D01*
X158829Y379865D01*
X158687Y379799D01*
X158537Y379740D01*
X158245Y379649D01*
X157954Y379582D01*
X157812Y379557D01*
X157679Y379540D01*
X157554Y379524D01*
X157446Y379507D01*
X157346Y379499D01*
X157254D01*
X157187Y379491D01*
X157129D01*
X157096D01*
X157087D01*
X156754Y379507D01*
X156429Y379540D01*
X156288Y379566D01*
X156146Y379599D01*
X156013Y379624D01*
X155888Y379657D01*
X155771Y379691D01*
X155671Y379715D01*
X155588Y379749D01*
X155513Y379774D01*
X155455Y379790D01*
X155405Y379807D01*
X155380Y379824D01*
X155371D01*
X155230Y379890D01*
X155088Y379965D01*
X154963Y380040D01*
X154846Y380124D01*
X154730Y380207D01*
X154630Y380290D01*
X154538Y380365D01*
X154463Y380449D01*
X154388Y380524D01*
X154321Y380590D01*
X154271Y380657D01*
X154230Y380707D01*
X154188Y380757D01*
X154163Y380790D01*
X154155Y380807D01*
X154147Y380815D01*
X154072Y380940D01*
X154013Y381073D01*
X153955Y381215D01*
X153905Y381357D01*
X153830Y381640D01*
X153780Y381907D01*
X153763Y382032D01*
X153755Y382140D01*
X153747Y382248D01*
X153738Y382332D01*
X153730Y382406D01*
Y382506D01*
X153738Y382690D01*
X153755Y382865D01*
X153780Y383031D01*
X153813Y383190D01*
X153855Y383340D01*
X153905Y383481D01*
X153947Y383606D01*
X154005Y383731D01*
X154055Y383831D01*
X154097Y383923D01*
X154147Y384006D01*
X154188Y384073D01*
X154221Y384131D01*
X154247Y384164D01*
X154263Y384189D01*
X154271Y384198D01*
X154380Y384323D01*
X154496Y384439D01*
X154621Y384548D01*
X154755Y384639D01*
X154888Y384731D01*
X155013Y384806D01*
X155146Y384881D01*
X155271Y384939D01*
X155396Y384997D01*
X155505Y385039D01*
X155604Y385081D01*
X155688Y385114D01*
X155763Y385131D01*
X155821Y385147D01*
X155855Y385164D01*
X155863D01*
X156079Y384314D01*
D02*
G37*
G36*
X160746Y371038D02*
X161071Y371004D01*
X161212Y370979D01*
X161354Y370946D01*
X161487Y370921D01*
X161612Y370888D01*
X161729Y370854D01*
X161829Y370830D01*
X161912Y370796D01*
X161987Y370771D01*
X162045Y370755D01*
X162095Y370738D01*
X162120Y370721D01*
X162129D01*
X162270Y370655D01*
X162412Y370580D01*
X162537Y370505D01*
X162654Y370421D01*
X162770Y370338D01*
X162870Y370255D01*
X162962Y370180D01*
X163037Y370096D01*
X163112Y370021D01*
X163179Y369955D01*
X163228Y369888D01*
X163270Y369838D01*
X163312Y369788D01*
X163337Y369755D01*
X163345Y369738D01*
X163353Y369730D01*
X163428Y369605D01*
X163487Y369472D01*
X163545Y369330D01*
X163595Y369188D01*
X163670Y368905D01*
X163720Y368638D01*
X163737Y368513D01*
X163745Y368405D01*
X163753Y368297D01*
X163762Y368214D01*
X163770Y368139D01*
Y368039D01*
X163762Y367855D01*
X163745Y367680D01*
X163720Y367514D01*
X163687Y367355D01*
X163645Y367206D01*
X163595Y367064D01*
X163553Y366939D01*
X163495Y366814D01*
X163445Y366714D01*
X163403Y366622D01*
X163353Y366539D01*
X163312Y366472D01*
X163279Y366414D01*
X163253Y366381D01*
X163237Y366356D01*
X163228Y366347D01*
X163120Y366222D01*
X163004Y366106D01*
X162879Y365997D01*
X162745Y365906D01*
X162612Y365814D01*
X162487Y365739D01*
X162354Y365664D01*
X162229Y365606D01*
X162104Y365548D01*
X161996Y365506D01*
X161896Y365464D01*
X161812Y365431D01*
X161737Y365414D01*
X161679Y365398D01*
X161646Y365381D01*
X161637D01*
X161421Y366231D01*
X161571Y366272D01*
X161704Y366314D01*
X161829Y366364D01*
X161954Y366414D01*
X162062Y366472D01*
X162162Y366522D01*
X162254Y366581D01*
X162329Y366639D01*
X162404Y366689D01*
X162462Y366739D01*
X162520Y366789D01*
X162562Y366822D01*
X162595Y366856D01*
X162620Y366880D01*
X162629Y366897D01*
X162637Y366906D01*
X162712Y366997D01*
X162770Y367097D01*
X162829Y367197D01*
X162870Y367305D01*
X162945Y367505D01*
X162995Y367697D01*
X163012Y367780D01*
X163020Y367864D01*
X163029Y367930D01*
X163037Y367997D01*
X163045Y368047D01*
Y368114D01*
X163029Y368330D01*
X162995Y368530D01*
X162953Y368713D01*
X162895Y368880D01*
X162837Y369013D01*
X162812Y369072D01*
X162795Y369113D01*
X162770Y369155D01*
X162762Y369180D01*
X162745Y369197D01*
Y369205D01*
X162620Y369380D01*
X162479Y369530D01*
X162329Y369655D01*
X162179Y369763D01*
X162045Y369846D01*
X161987Y369871D01*
X161937Y369896D01*
X161896Y369921D01*
X161862Y369938D01*
X161845Y369946D01*
X161837D01*
X161604Y370021D01*
X161354Y370080D01*
X161121Y370121D01*
X160896Y370146D01*
X160796Y370163D01*
X160704D01*
X160621Y370171D01*
X160546Y370180D01*
X160487D01*
X160446D01*
X160421D01*
X160413D01*
X160179Y370171D01*
X159954Y370146D01*
X159746Y370113D01*
X159554Y370080D01*
X159479Y370063D01*
X159404Y370046D01*
X159338Y370030D01*
X159279Y370013D01*
X159238Y369996D01*
X159205Y369988D01*
X159188Y369980D01*
X159179D01*
X158963Y369896D01*
X158780Y369788D01*
X158613Y369672D01*
X158480Y369555D01*
X158371Y369455D01*
X158296Y369372D01*
X158263Y369338D01*
X158246Y369313D01*
X158230Y369297D01*
Y369288D01*
X158163Y369188D01*
X158113Y369088D01*
X158021Y368880D01*
X157955Y368672D01*
X157913Y368480D01*
X157905Y368388D01*
X157888Y368305D01*
X157880Y368230D01*
Y368172D01*
X157872Y368122D01*
Y368047D01*
X157888Y367814D01*
X157921Y367605D01*
X157971Y367422D01*
X158030Y367264D01*
X158097Y367139D01*
X158122Y367089D01*
X158146Y367047D01*
X158163Y367014D01*
X158180Y366989D01*
X158196Y366981D01*
Y366972D01*
X158263Y366897D01*
X158330Y366822D01*
X158488Y366689D01*
X158655Y366581D01*
X158821Y366489D01*
X158971Y366414D01*
X159038Y366389D01*
X159096Y366364D01*
X159146Y366347D01*
X159179Y366331D01*
X159205Y366322D01*
X159213D01*
X159013Y365489D01*
X158855Y365539D01*
X158696Y365606D01*
X158555Y365672D01*
X158421Y365747D01*
X158305Y365822D01*
X158188Y365897D01*
X158088Y365972D01*
X157997Y366047D01*
X157913Y366122D01*
X157838Y366189D01*
X157780Y366256D01*
X157730Y366306D01*
X157688Y366347D01*
X157663Y366389D01*
X157647Y366406D01*
X157638Y366414D01*
X157555Y366539D01*
X157472Y366672D01*
X157413Y366806D01*
X157355Y366939D01*
X157305Y367080D01*
X157263Y367214D01*
X157205Y367464D01*
X157188Y367580D01*
X157172Y367689D01*
X157163Y367789D01*
X157155Y367872D01*
X157147Y367939D01*
Y368189D01*
X157163Y368339D01*
X157205Y368630D01*
X157272Y368897D01*
X157305Y369013D01*
X157338Y369130D01*
X157380Y369230D01*
X157413Y369322D01*
X157447Y369397D01*
X157480Y369463D01*
X157505Y369513D01*
X157522Y369555D01*
X157530Y369580D01*
X157538Y369588D01*
X157613Y369713D01*
X157697Y369838D01*
X157880Y370055D01*
X158063Y370246D01*
X158246Y370396D01*
X158338Y370463D01*
X158413Y370521D01*
X158488Y370571D01*
X158546Y370605D01*
X158596Y370638D01*
X158638Y370663D01*
X158663Y370671D01*
X158671Y370680D01*
X158813Y370746D01*
X158963Y370804D01*
X159255Y370896D01*
X159546Y370963D01*
X159688Y370988D01*
X159821Y371004D01*
X159946Y371021D01*
X160054Y371038D01*
X160154Y371046D01*
X160246D01*
X160313Y371054D01*
X160371D01*
X160404D01*
X160413D01*
X160746Y371038D01*
D02*
G37*
G36*
X160971Y364689D02*
X161246Y364673D01*
X161504Y364640D01*
X161745Y364598D01*
X161954Y364556D01*
X162154Y364506D01*
X162329Y364448D01*
X162487Y364389D01*
X162620Y364331D01*
X162737Y364273D01*
X162837Y364223D01*
X162912Y364181D01*
X162978Y364140D01*
X163020Y364106D01*
X163045Y364090D01*
X163053Y364081D01*
X163179Y363956D01*
X163287Y363831D01*
X163387Y363698D01*
X163470Y363565D01*
X163537Y363431D01*
X163595Y363298D01*
X163645Y363165D01*
X163678Y363040D01*
X163712Y362923D01*
X163728Y362815D01*
X163745Y362723D01*
X163762Y362640D01*
Y362565D01*
X163770Y362515D01*
Y362473D01*
X163762Y362265D01*
X163728Y362073D01*
X163687Y361898D01*
X163628Y361749D01*
X163578Y361624D01*
X163562Y361574D01*
X163537Y361524D01*
X163520Y361490D01*
X163503Y361465D01*
X163495Y361457D01*
Y361449D01*
X163378Y361282D01*
X163253Y361140D01*
X163120Y361024D01*
X162995Y360915D01*
X162879Y360840D01*
X162787Y360782D01*
X162754Y360757D01*
X162729Y360741D01*
X162712Y360732D01*
X162704D01*
X162504Y360640D01*
X162312Y360574D01*
X162120Y360532D01*
X161954Y360499D01*
X161804Y360482D01*
X161745Y360474D01*
X161687Y360466D01*
X161646D01*
X161612D01*
X161596D01*
X161587D01*
X161421Y360474D01*
X161262Y360490D01*
X161112Y360516D01*
X160962Y360549D01*
X160829Y360599D01*
X160713Y360640D01*
X160596Y360690D01*
X160496Y360741D01*
X160404Y360799D01*
X160321Y360849D01*
X160254Y360890D01*
X160196Y360932D01*
X160146Y360974D01*
X160113Y360999D01*
X160096Y361015D01*
X160088Y361024D01*
X159988Y361132D01*
X159896Y361240D01*
X159821Y361349D01*
X159746Y361465D01*
X159696Y361582D01*
X159646Y361690D01*
X159604Y361799D01*
X159579Y361898D01*
X159554Y361998D01*
X159538Y362082D01*
X159521Y362165D01*
X159513Y362232D01*
X159504Y362290D01*
Y362365D01*
X159513Y362532D01*
X159538Y362690D01*
X159571Y362832D01*
X159613Y362965D01*
X159654Y363073D01*
X159688Y363148D01*
X159704Y363181D01*
X159713Y363206D01*
X159721Y363215D01*
Y363223D01*
X159804Y363373D01*
X159913Y363506D01*
X160013Y363623D01*
X160121Y363723D01*
X160213Y363806D01*
X160288Y363865D01*
X160346Y363898D01*
X160354Y363915D01*
X160188D01*
X160021Y363906D01*
X159863Y363890D01*
X159721Y363873D01*
X159588Y363856D01*
X159471Y363840D01*
X159354Y363823D01*
X159255Y363806D01*
X159171Y363781D01*
X159096Y363765D01*
X159030Y363748D01*
X158971Y363731D01*
X158930Y363715D01*
X158905Y363706D01*
X158888Y363698D01*
X158880D01*
X158696Y363606D01*
X158538Y363515D01*
X158405Y363415D01*
X158296Y363323D01*
X158205Y363240D01*
X158146Y363173D01*
X158105Y363131D01*
X158097Y363115D01*
X158021Y362998D01*
X157971Y362890D01*
X157930Y362773D01*
X157905Y362673D01*
X157888Y362582D01*
X157880Y362515D01*
Y362448D01*
X157896Y362282D01*
X157930Y362123D01*
X157988Y361990D01*
X158047Y361874D01*
X158105Y361782D01*
X158163Y361715D01*
X158196Y361674D01*
X158213Y361657D01*
X158305Y361590D01*
X158405Y361532D01*
X158513Y361474D01*
X158621Y361432D01*
X158721Y361399D01*
X158805Y361374D01*
X158838Y361365D01*
X158863D01*
X158871Y361357D01*
X158880D01*
X158821Y360574D01*
X158688Y360599D01*
X158555Y360624D01*
X158330Y360707D01*
X158221Y360757D01*
X158130Y360799D01*
X158038Y360849D01*
X157963Y360899D01*
X157888Y360949D01*
X157830Y360999D01*
X157780Y361040D01*
X157730Y361082D01*
X157697Y361115D01*
X157672Y361132D01*
X157663Y361149D01*
X157655Y361157D01*
X157580Y361249D01*
X157513Y361349D01*
X157455Y361449D01*
X157405Y361557D01*
X157330Y361765D01*
X157280Y361957D01*
X157263Y362048D01*
X157255Y362132D01*
X157247Y362207D01*
X157238Y362273D01*
X157230Y362323D01*
Y362398D01*
X157238Y362582D01*
X157263Y362757D01*
X157297Y362923D01*
X157347Y363082D01*
X157405Y363223D01*
X157463Y363356D01*
X157530Y363481D01*
X157597Y363590D01*
X157672Y363681D01*
X157738Y363773D01*
X157796Y363848D01*
X157855Y363906D01*
X157905Y363956D01*
X157938Y363990D01*
X157963Y364006D01*
X157971Y364015D01*
X158138Y364131D01*
X158330Y364240D01*
X158530Y364331D01*
X158746Y364406D01*
X158971Y364473D01*
X159196Y364531D01*
X159421Y364573D01*
X159638Y364614D01*
X159846Y364640D01*
X160038Y364664D01*
X160213Y364673D01*
X160371Y364689D01*
X160496D01*
X160546Y364698D01*
X160588D01*
X160621D01*
X160646D01*
X160662D01*
X160671D01*
X160971Y364689D01*
D02*
G37*
G36*
X100591Y420658D02*
X100699Y420508D01*
X100816Y420358D01*
X100924Y420233D01*
X101033Y420117D01*
X101116Y420033D01*
X101149Y420000D01*
X101174Y419975D01*
X101191Y419967D01*
X101199Y419958D01*
X101391Y419800D01*
X101582Y419658D01*
X101782Y419525D01*
X101957Y419417D01*
X102116Y419333D01*
X102182Y419292D01*
X102241Y419267D01*
X102282Y419242D01*
X102316Y419225D01*
X102341Y419208D01*
X102349D01*
Y418442D01*
X102207Y418500D01*
X102066Y418567D01*
X101924Y418634D01*
X101799Y418700D01*
X101691Y418759D01*
X101599Y418809D01*
X101566Y418825D01*
X101541Y418842D01*
X101532Y418850D01*
X101524D01*
X101357Y418950D01*
X101216Y419050D01*
X101083Y419142D01*
X100974Y419225D01*
X100891Y419292D01*
X100824Y419350D01*
X100791Y419384D01*
X100774Y419392D01*
Y414385D01*
X99991D01*
Y420816D01*
X100499D01*
X100591Y420658D01*
D02*
G37*
G36*
X106631Y420883D02*
X106923Y420841D01*
X107189Y420775D01*
X107306Y420741D01*
X107423Y420708D01*
X107523Y420667D01*
X107614Y420633D01*
X107689Y420600D01*
X107756Y420566D01*
X107806Y420541D01*
X107847Y420525D01*
X107872Y420517D01*
X107881Y420508D01*
X108006Y420433D01*
X108131Y420350D01*
X108347Y420167D01*
X108539Y419983D01*
X108689Y419800D01*
X108756Y419708D01*
X108814Y419633D01*
X108864Y419558D01*
X108897Y419500D01*
X108931Y419450D01*
X108956Y419408D01*
X108964Y419384D01*
X108972Y419375D01*
X109039Y419234D01*
X109097Y419084D01*
X109189Y418792D01*
X109256Y418500D01*
X109281Y418359D01*
X109297Y418225D01*
X109314Y418101D01*
X109331Y417992D01*
X109339Y417892D01*
Y417800D01*
X109347Y417734D01*
Y417676D01*
Y417642D01*
Y417634D01*
X109331Y417301D01*
X109297Y416976D01*
X109272Y416834D01*
X109239Y416693D01*
X109214Y416559D01*
X109180Y416434D01*
X109147Y416318D01*
X109122Y416218D01*
X109089Y416134D01*
X109064Y416059D01*
X109047Y416001D01*
X109031Y415951D01*
X109014Y415926D01*
Y415918D01*
X108947Y415776D01*
X108872Y415634D01*
X108797Y415509D01*
X108714Y415393D01*
X108631Y415276D01*
X108547Y415176D01*
X108472Y415085D01*
X108389Y415010D01*
X108314Y414935D01*
X108247Y414868D01*
X108181Y414818D01*
X108131Y414776D01*
X108081Y414735D01*
X108048Y414710D01*
X108031Y414701D01*
X108022Y414693D01*
X107898Y414618D01*
X107764Y414560D01*
X107623Y414501D01*
X107481Y414451D01*
X107198Y414376D01*
X106931Y414326D01*
X106806Y414310D01*
X106698Y414301D01*
X106589Y414293D01*
X106506Y414285D01*
X106431Y414276D01*
X106331D01*
X106148Y414285D01*
X105973Y414301D01*
X105806Y414326D01*
X105648Y414360D01*
X105498Y414401D01*
X105357Y414451D01*
X105232Y414493D01*
X105106Y414551D01*
X105007Y414601D01*
X104915Y414643D01*
X104832Y414693D01*
X104765Y414735D01*
X104707Y414768D01*
X104673Y414793D01*
X104648Y414810D01*
X104640Y414818D01*
X104515Y414926D01*
X104398Y415043D01*
X104290Y415168D01*
X104198Y415301D01*
X104107Y415434D01*
X104032Y415559D01*
X103957Y415693D01*
X103898Y415818D01*
X103840Y415943D01*
X103799Y416051D01*
X103757Y416151D01*
X103724Y416234D01*
X103707Y416309D01*
X103690Y416368D01*
X103674Y416401D01*
Y416409D01*
X104523Y416626D01*
X104565Y416476D01*
X104607Y416343D01*
X104657Y416218D01*
X104707Y416093D01*
X104765Y415984D01*
X104815Y415884D01*
X104873Y415793D01*
X104932Y415718D01*
X104982Y415643D01*
X105032Y415584D01*
X105082Y415526D01*
X105115Y415485D01*
X105148Y415451D01*
X105173Y415426D01*
X105190Y415418D01*
X105198Y415410D01*
X105290Y415335D01*
X105390Y415276D01*
X105490Y415218D01*
X105598Y415176D01*
X105798Y415101D01*
X105990Y415051D01*
X106073Y415035D01*
X106156Y415026D01*
X106223Y415018D01*
X106290Y415010D01*
X106340Y415001D01*
X106406D01*
X106623Y415018D01*
X106823Y415051D01*
X107006Y415093D01*
X107173Y415151D01*
X107306Y415210D01*
X107364Y415234D01*
X107406Y415251D01*
X107448Y415276D01*
X107473Y415285D01*
X107489Y415301D01*
X107498D01*
X107673Y415426D01*
X107823Y415568D01*
X107948Y415718D01*
X108056Y415868D01*
X108139Y416001D01*
X108164Y416059D01*
X108189Y416109D01*
X108214Y416151D01*
X108231Y416184D01*
X108239Y416201D01*
Y416209D01*
X108314Y416443D01*
X108372Y416693D01*
X108414Y416926D01*
X108439Y417151D01*
X108456Y417251D01*
Y417342D01*
X108464Y417426D01*
X108472Y417501D01*
Y417559D01*
Y417601D01*
Y417626D01*
Y417634D01*
X108464Y417867D01*
X108439Y418092D01*
X108406Y418300D01*
X108372Y418492D01*
X108356Y418567D01*
X108339Y418642D01*
X108322Y418709D01*
X108306Y418767D01*
X108289Y418809D01*
X108281Y418842D01*
X108272Y418859D01*
Y418867D01*
X108189Y419084D01*
X108081Y419267D01*
X107964Y419434D01*
X107847Y419567D01*
X107747Y419675D01*
X107664Y419750D01*
X107631Y419783D01*
X107606Y419800D01*
X107589Y419817D01*
X107581D01*
X107481Y419883D01*
X107381Y419933D01*
X107173Y420025D01*
X106964Y420092D01*
X106773Y420133D01*
X106681Y420142D01*
X106598Y420158D01*
X106523Y420167D01*
X106465D01*
X106414Y420175D01*
X106340D01*
X106106Y420158D01*
X105898Y420125D01*
X105715Y420075D01*
X105556Y420017D01*
X105431Y419950D01*
X105381Y419925D01*
X105340Y419900D01*
X105307Y419883D01*
X105281Y419867D01*
X105273Y419850D01*
X105265D01*
X105190Y419783D01*
X105115Y419717D01*
X104982Y419558D01*
X104873Y419392D01*
X104782Y419225D01*
X104707Y419075D01*
X104682Y419009D01*
X104657Y418950D01*
X104640Y418900D01*
X104623Y418867D01*
X104615Y418842D01*
Y418834D01*
X103782Y419034D01*
X103832Y419192D01*
X103898Y419350D01*
X103965Y419492D01*
X104040Y419625D01*
X104115Y419742D01*
X104190Y419858D01*
X104265Y419958D01*
X104340Y420050D01*
X104415Y420133D01*
X104482Y420208D01*
X104548Y420267D01*
X104598Y420317D01*
X104640Y420358D01*
X104682Y420383D01*
X104698Y420400D01*
X104707Y420408D01*
X104832Y420491D01*
X104965Y420575D01*
X105098Y420633D01*
X105232Y420691D01*
X105373Y420741D01*
X105506Y420783D01*
X105756Y420841D01*
X105873Y420858D01*
X105981Y420875D01*
X106081Y420883D01*
X106165Y420891D01*
X106231Y420900D01*
X106481D01*
X106631Y420883D01*
D02*
G37*
G36*
X96142Y420800D02*
X96367Y420758D01*
X96567Y420700D01*
X96734Y420633D01*
X96809Y420592D01*
X96867Y420558D01*
X96925Y420525D01*
X96967Y420500D01*
X97000Y420475D01*
X97025Y420458D01*
X97042Y420450D01*
X97050Y420442D01*
X97209Y420292D01*
X97350Y420117D01*
X97467Y419933D01*
X97567Y419767D01*
X97642Y419608D01*
X97675Y419542D01*
X97700Y419483D01*
X97717Y419434D01*
X97733Y419400D01*
X97742Y419375D01*
Y419367D01*
X97783Y419234D01*
X97817Y419092D01*
X97875Y418792D01*
X97917Y418484D01*
X97942Y418192D01*
X97958Y418059D01*
Y417934D01*
X97967Y417826D01*
X97975Y417734D01*
Y417651D01*
Y417592D01*
Y417559D01*
Y417542D01*
X97967Y417217D01*
X97950Y416909D01*
X97917Y416634D01*
X97875Y416376D01*
X97833Y416134D01*
X97775Y415926D01*
X97717Y415734D01*
X97659Y415559D01*
X97600Y415410D01*
X97550Y415285D01*
X97492Y415176D01*
X97450Y415085D01*
X97409Y415018D01*
X97375Y414976D01*
X97359Y414943D01*
X97350Y414935D01*
X97242Y414818D01*
X97134Y414718D01*
X97017Y414626D01*
X96900Y414551D01*
X96775Y414493D01*
X96650Y414435D01*
X96534Y414393D01*
X96417Y414360D01*
X96309Y414335D01*
X96209Y414310D01*
X96125Y414293D01*
X96042Y414285D01*
X95984D01*
X95934Y414276D01*
X95892D01*
X95767Y414285D01*
X95642Y414293D01*
X95417Y414335D01*
X95217Y414393D01*
X95051Y414468D01*
X94976Y414501D01*
X94917Y414535D01*
X94859Y414568D01*
X94817Y414593D01*
X94784Y414618D01*
X94751Y414635D01*
X94742Y414651D01*
X94734D01*
X94568Y414801D01*
X94426Y414976D01*
X94309Y415151D01*
X94209Y415326D01*
X94134Y415476D01*
X94101Y415543D01*
X94076Y415601D01*
X94059Y415651D01*
X94043Y415684D01*
X94034Y415709D01*
Y415718D01*
X93993Y415851D01*
X93959Y415993D01*
X93901Y416293D01*
X93859Y416601D01*
X93826Y416892D01*
X93818Y417026D01*
X93809Y417151D01*
Y417259D01*
X93801Y417351D01*
Y417434D01*
Y417492D01*
Y417526D01*
Y417542D01*
Y417717D01*
X93809Y417884D01*
X93818Y418034D01*
X93826Y418175D01*
X93834Y418317D01*
X93851Y418434D01*
X93859Y418550D01*
X93876Y418650D01*
X93893Y418742D01*
X93901Y418825D01*
X93918Y418892D01*
X93926Y418950D01*
X93934Y418992D01*
X93943Y419025D01*
X93951Y419042D01*
Y419050D01*
X94009Y419250D01*
X94068Y419442D01*
X94134Y419600D01*
X94201Y419742D01*
X94259Y419858D01*
X94301Y419942D01*
X94318Y419967D01*
X94334Y419992D01*
X94343Y420000D01*
Y420008D01*
X94443Y420150D01*
X94551Y420267D01*
X94659Y420367D01*
X94759Y420458D01*
X94851Y420525D01*
X94917Y420566D01*
X94967Y420600D01*
X94976Y420608D01*
X94984D01*
X95134Y420675D01*
X95292Y420725D01*
X95442Y420766D01*
X95584Y420791D01*
X95709Y420808D01*
X95759D01*
X95809Y420816D01*
X96017D01*
X96142Y420800D01*
D02*
G37*
G36*
X96115Y432488D02*
X96273Y432480D01*
X96423Y432455D01*
X96557Y432421D01*
X96690Y432388D01*
X96806Y432346D01*
X96915Y432305D01*
X97015Y432263D01*
X97107Y432213D01*
X97181Y432171D01*
X97248Y432130D01*
X97306Y432096D01*
X97348Y432063D01*
X97381Y432038D01*
X97398Y432030D01*
X97406Y432021D01*
X97506Y431930D01*
X97590Y431830D01*
X97665Y431721D01*
X97731Y431605D01*
X97790Y431497D01*
X97840Y431380D01*
X97915Y431155D01*
X97948Y431055D01*
X97973Y430955D01*
X97990Y430872D01*
X98006Y430797D01*
X98015Y430730D01*
Y430688D01*
X98023Y430655D01*
Y430647D01*
X97215Y430564D01*
X97198Y430780D01*
X97165Y430963D01*
X97107Y431122D01*
X97040Y431263D01*
X96981Y431363D01*
X96923Y431447D01*
X96890Y431488D01*
X96873Y431505D01*
X96740Y431622D01*
X96590Y431705D01*
X96432Y431763D01*
X96290Y431805D01*
X96165Y431830D01*
X96107Y431838D01*
X96057D01*
X96023Y431847D01*
X95965D01*
X95773Y431830D01*
X95598Y431796D01*
X95449Y431746D01*
X95324Y431688D01*
X95224Y431622D01*
X95149Y431572D01*
X95107Y431538D01*
X95090Y431522D01*
X94974Y431397D01*
X94890Y431263D01*
X94832Y431138D01*
X94790Y431013D01*
X94765Y430905D01*
X94757Y430813D01*
X94749Y430780D01*
Y430763D01*
Y430747D01*
Y430738D01*
Y430655D01*
X94765Y430572D01*
X94807Y430397D01*
X94865Y430239D01*
X94932Y430097D01*
X95007Y429972D01*
X95040Y429922D01*
X95065Y429872D01*
X95090Y429839D01*
X95107Y429814D01*
X95115Y429797D01*
X95124Y429789D01*
X95199Y429689D01*
X95290Y429589D01*
X95390Y429480D01*
X95499Y429364D01*
X95732Y429139D01*
X95965Y428922D01*
X96073Y428822D01*
X96182Y428731D01*
X96282Y428647D01*
X96365Y428572D01*
X96432Y428514D01*
X96490Y428472D01*
X96523Y428439D01*
X96532Y428431D01*
X96773Y428231D01*
X96981Y428047D01*
X97156Y427881D01*
X97298Y427739D01*
X97415Y427623D01*
X97498Y427531D01*
X97523Y427498D01*
X97548Y427473D01*
X97556Y427464D01*
X97565Y427456D01*
X97690Y427298D01*
X97798Y427148D01*
X97881Y427006D01*
X97956Y426873D01*
X98015Y426764D01*
X98048Y426681D01*
X98064Y426648D01*
X98073Y426623D01*
X98081Y426614D01*
Y426606D01*
X98115Y426506D01*
X98139Y426414D01*
X98156Y426323D01*
X98165Y426240D01*
X98173Y426165D01*
Y426115D01*
Y426081D01*
Y426065D01*
X93932D01*
Y426823D01*
X97081D01*
X96973Y426973D01*
X96915Y427048D01*
X96865Y427106D01*
X96815Y427164D01*
X96782Y427206D01*
X96757Y427231D01*
X96748Y427239D01*
X96707Y427281D01*
X96648Y427339D01*
X96590Y427398D01*
X96523Y427456D01*
X96373Y427589D01*
X96215Y427723D01*
X96073Y427848D01*
X96007Y427906D01*
X95957Y427956D01*
X95907Y427989D01*
X95873Y428022D01*
X95848Y428039D01*
X95840Y428047D01*
X95690Y428181D01*
X95540Y428306D01*
X95415Y428414D01*
X95290Y428522D01*
X95182Y428622D01*
X95082Y428722D01*
X94990Y428806D01*
X94915Y428881D01*
X94840Y428947D01*
X94782Y429006D01*
X94732Y429055D01*
X94690Y429097D01*
X94665Y429131D01*
X94640Y429156D01*
X94624Y429164D01*
Y429172D01*
X94499Y429322D01*
X94390Y429472D01*
X94299Y429605D01*
X94224Y429722D01*
X94165Y429814D01*
X94132Y429889D01*
X94107Y429939D01*
X94099Y429955D01*
X94049Y430097D01*
X94007Y430230D01*
X93982Y430364D01*
X93957Y430472D01*
X93949Y430572D01*
X93941Y430647D01*
Y430697D01*
Y430713D01*
X93949Y430855D01*
X93966Y430988D01*
X93991Y431113D01*
X94024Y431230D01*
X94116Y431447D01*
X94157Y431547D01*
X94207Y431630D01*
X94265Y431713D01*
X94307Y431780D01*
X94357Y431838D01*
X94399Y431888D01*
X94432Y431930D01*
X94457Y431955D01*
X94474Y431971D01*
X94482Y431980D01*
X94590Y432071D01*
X94699Y432146D01*
X94815Y432221D01*
X94940Y432280D01*
X95065Y432330D01*
X95182Y432371D01*
X95415Y432430D01*
X95524Y432455D01*
X95624Y432471D01*
X95715Y432480D01*
X95799Y432488D01*
X95857Y432496D01*
X95948D01*
X96115Y432488D01*
D02*
G37*
G36*
X100672Y432338D02*
X100780Y432188D01*
X100897Y432038D01*
X101005Y431913D01*
X101114Y431796D01*
X101197Y431713D01*
X101230Y431680D01*
X101255Y431655D01*
X101272Y431646D01*
X101280Y431638D01*
X101472Y431480D01*
X101664Y431338D01*
X101864Y431205D01*
X102038Y431097D01*
X102197Y431013D01*
X102263Y430972D01*
X102322Y430947D01*
X102363Y430922D01*
X102397Y430905D01*
X102422Y430888D01*
X102430D01*
Y430122D01*
X102289Y430180D01*
X102147Y430247D01*
X102005Y430313D01*
X101880Y430380D01*
X101772Y430438D01*
X101680Y430489D01*
X101647Y430505D01*
X101622Y430522D01*
X101614Y430530D01*
X101605D01*
X101439Y430630D01*
X101297Y430730D01*
X101164Y430822D01*
X101055Y430905D01*
X100972Y430972D01*
X100906Y431030D01*
X100872Y431063D01*
X100856Y431072D01*
Y426065D01*
X100072D01*
Y432496D01*
X100581D01*
X100672Y432338D01*
D02*
G37*
G36*
X106712Y432563D02*
X107004Y432521D01*
X107270Y432455D01*
X107387Y432421D01*
X107504Y432388D01*
X107604Y432346D01*
X107695Y432313D01*
X107770Y432280D01*
X107837Y432246D01*
X107887Y432221D01*
X107929Y432205D01*
X107954Y432196D01*
X107962Y432188D01*
X108087Y432113D01*
X108212Y432030D01*
X108429Y431847D01*
X108620Y431663D01*
X108770Y431480D01*
X108837Y431388D01*
X108895Y431313D01*
X108945Y431238D01*
X108978Y431180D01*
X109012Y431130D01*
X109037Y431088D01*
X109045Y431063D01*
X109053Y431055D01*
X109120Y430913D01*
X109178Y430763D01*
X109270Y430472D01*
X109337Y430180D01*
X109362Y430039D01*
X109378Y429905D01*
X109395Y429780D01*
X109412Y429672D01*
X109420Y429572D01*
Y429480D01*
X109428Y429414D01*
Y429356D01*
Y429322D01*
Y429314D01*
X109412Y428980D01*
X109378Y428656D01*
X109353Y428514D01*
X109320Y428372D01*
X109295Y428239D01*
X109262Y428114D01*
X109228Y427998D01*
X109203Y427897D01*
X109170Y427814D01*
X109145Y427739D01*
X109128Y427681D01*
X109112Y427631D01*
X109095Y427606D01*
Y427598D01*
X109028Y427456D01*
X108953Y427314D01*
X108878Y427189D01*
X108795Y427073D01*
X108712Y426956D01*
X108629Y426856D01*
X108553Y426764D01*
X108470Y426689D01*
X108395Y426614D01*
X108329Y426548D01*
X108262Y426498D01*
X108212Y426456D01*
X108162Y426414D01*
X108129Y426390D01*
X108112Y426381D01*
X108104Y426373D01*
X107979Y426298D01*
X107845Y426240D01*
X107704Y426181D01*
X107562Y426131D01*
X107279Y426056D01*
X107012Y426006D01*
X106887Y425990D01*
X106779Y425981D01*
X106671Y425973D01*
X106587Y425965D01*
X106512Y425956D01*
X106412D01*
X106229Y425965D01*
X106054Y425981D01*
X105887Y426006D01*
X105729Y426040D01*
X105579Y426081D01*
X105438Y426131D01*
X105313Y426173D01*
X105188Y426231D01*
X105088Y426281D01*
X104996Y426323D01*
X104913Y426373D01*
X104846Y426414D01*
X104788Y426448D01*
X104754Y426473D01*
X104729Y426489D01*
X104721Y426498D01*
X104596Y426606D01*
X104480Y426723D01*
X104371Y426848D01*
X104280Y426981D01*
X104188Y427114D01*
X104113Y427239D01*
X104038Y427373D01*
X103980Y427498D01*
X103921Y427623D01*
X103880Y427731D01*
X103838Y427831D01*
X103805Y427914D01*
X103788Y427989D01*
X103771Y428047D01*
X103755Y428081D01*
Y428089D01*
X104605Y428306D01*
X104646Y428156D01*
X104688Y428022D01*
X104738Y427897D01*
X104788Y427772D01*
X104846Y427664D01*
X104896Y427564D01*
X104955Y427473D01*
X105013Y427398D01*
X105063Y427323D01*
X105113Y427264D01*
X105163Y427206D01*
X105196Y427164D01*
X105229Y427131D01*
X105254Y427106D01*
X105271Y427098D01*
X105279Y427089D01*
X105371Y427014D01*
X105471Y426956D01*
X105571Y426898D01*
X105679Y426856D01*
X105879Y426781D01*
X106071Y426731D01*
X106154Y426715D01*
X106237Y426706D01*
X106304Y426698D01*
X106371Y426689D01*
X106421Y426681D01*
X106487D01*
X106704Y426698D01*
X106904Y426731D01*
X107087Y426773D01*
X107254Y426831D01*
X107387Y426889D01*
X107445Y426914D01*
X107487Y426931D01*
X107529Y426956D01*
X107554Y426964D01*
X107570Y426981D01*
X107579D01*
X107754Y427106D01*
X107904Y427248D01*
X108029Y427398D01*
X108137Y427548D01*
X108220Y427681D01*
X108245Y427739D01*
X108270Y427789D01*
X108295Y427831D01*
X108312Y427864D01*
X108320Y427881D01*
Y427889D01*
X108395Y428122D01*
X108454Y428372D01*
X108495Y428606D01*
X108520Y428831D01*
X108537Y428931D01*
Y429022D01*
X108545Y429105D01*
X108553Y429180D01*
Y429239D01*
Y429281D01*
Y429305D01*
Y429314D01*
X108545Y429547D01*
X108520Y429772D01*
X108487Y429980D01*
X108454Y430172D01*
X108437Y430247D01*
X108420Y430322D01*
X108404Y430388D01*
X108387Y430447D01*
X108370Y430489D01*
X108362Y430522D01*
X108354Y430538D01*
Y430547D01*
X108270Y430763D01*
X108162Y430947D01*
X108045Y431113D01*
X107929Y431247D01*
X107829Y431355D01*
X107745Y431430D01*
X107712Y431463D01*
X107687Y431480D01*
X107670Y431497D01*
X107662D01*
X107562Y431563D01*
X107462Y431613D01*
X107254Y431705D01*
X107046Y431772D01*
X106854Y431813D01*
X106762Y431822D01*
X106679Y431838D01*
X106604Y431847D01*
X106546D01*
X106496Y431855D01*
X106421D01*
X106187Y431838D01*
X105979Y431805D01*
X105796Y431755D01*
X105638Y431697D01*
X105513Y431630D01*
X105463Y431605D01*
X105421Y431580D01*
X105388Y431563D01*
X105363Y431547D01*
X105354Y431530D01*
X105346D01*
X105271Y431463D01*
X105196Y431397D01*
X105063Y431238D01*
X104955Y431072D01*
X104863Y430905D01*
X104788Y430755D01*
X104763Y430688D01*
X104738Y430630D01*
X104721Y430580D01*
X104705Y430547D01*
X104696Y430522D01*
Y430513D01*
X103863Y430713D01*
X103913Y430872D01*
X103980Y431030D01*
X104046Y431172D01*
X104121Y431305D01*
X104196Y431422D01*
X104271Y431538D01*
X104346Y431638D01*
X104421Y431730D01*
X104496Y431813D01*
X104563Y431888D01*
X104629Y431946D01*
X104679Y431996D01*
X104721Y432038D01*
X104763Y432063D01*
X104780Y432080D01*
X104788Y432088D01*
X104913Y432171D01*
X105046Y432255D01*
X105179Y432313D01*
X105313Y432371D01*
X105454Y432421D01*
X105588Y432463D01*
X105838Y432521D01*
X105954Y432538D01*
X106062Y432555D01*
X106163Y432563D01*
X106246Y432571D01*
X106312Y432580D01*
X106562D01*
X106712Y432563D01*
D02*
G37*
G36*
X83524Y374089D02*
X83682Y374080D01*
X83833Y374055D01*
X83966Y374022D01*
X84099Y373989D01*
X84216Y373947D01*
X84324Y373905D01*
X84424Y373864D01*
X84516Y373814D01*
X84591Y373772D01*
X84657Y373730D01*
X84716Y373697D01*
X84757Y373664D01*
X84791Y373639D01*
X84807Y373630D01*
X84816Y373622D01*
X84916Y373530D01*
X84999Y373430D01*
X85074Y373322D01*
X85140Y373205D01*
X85199Y373097D01*
X85249Y372980D01*
X85324Y372756D01*
X85357Y372656D01*
X85382Y372556D01*
X85399Y372472D01*
X85415Y372397D01*
X85424Y372331D01*
Y372289D01*
X85432Y372256D01*
Y372247D01*
X84624Y372164D01*
X84607Y372381D01*
X84574Y372564D01*
X84516Y372722D01*
X84449Y372864D01*
X84391Y372964D01*
X84332Y373047D01*
X84299Y373089D01*
X84282Y373106D01*
X84149Y373222D01*
X83999Y373306D01*
X83841Y373364D01*
X83699Y373405D01*
X83574Y373430D01*
X83516Y373439D01*
X83466D01*
X83433Y373447D01*
X83374D01*
X83183Y373430D01*
X83008Y373397D01*
X82858Y373347D01*
X82733Y373289D01*
X82633Y373222D01*
X82558Y373172D01*
X82516Y373139D01*
X82500Y373122D01*
X82383Y372997D01*
X82300Y372864D01*
X82241Y372739D01*
X82200Y372614D01*
X82175Y372506D01*
X82166Y372414D01*
X82158Y372381D01*
Y372364D01*
Y372347D01*
Y372339D01*
Y372256D01*
X82175Y372172D01*
X82216Y371997D01*
X82275Y371839D01*
X82341Y371698D01*
X82416Y371573D01*
X82450Y371523D01*
X82474Y371473D01*
X82500Y371439D01*
X82516Y371414D01*
X82524Y371398D01*
X82533Y371389D01*
X82608Y371289D01*
X82699Y371189D01*
X82799Y371081D01*
X82908Y370964D01*
X83141Y370739D01*
X83374Y370523D01*
X83483Y370423D01*
X83591Y370331D01*
X83691Y370248D01*
X83774Y370173D01*
X83841Y370115D01*
X83899Y370073D01*
X83933Y370040D01*
X83941Y370031D01*
X84182Y369831D01*
X84391Y369648D01*
X84566Y369481D01*
X84707Y369340D01*
X84824Y369223D01*
X84907Y369132D01*
X84932Y369098D01*
X84957Y369073D01*
X84965Y369065D01*
X84974Y369057D01*
X85099Y368898D01*
X85207Y368748D01*
X85290Y368607D01*
X85365Y368473D01*
X85424Y368365D01*
X85457Y368282D01*
X85474Y368248D01*
X85482Y368223D01*
X85490Y368215D01*
Y368207D01*
X85524Y368107D01*
X85549Y368015D01*
X85565Y367924D01*
X85574Y367840D01*
X85582Y367765D01*
Y367715D01*
Y367682D01*
Y367665D01*
X81341D01*
Y368423D01*
X84491D01*
X84382Y368573D01*
X84324Y368648D01*
X84274Y368707D01*
X84224Y368765D01*
X84191Y368807D01*
X84166Y368832D01*
X84157Y368840D01*
X84116Y368882D01*
X84057Y368940D01*
X83999Y368998D01*
X83933Y369057D01*
X83783Y369190D01*
X83624Y369323D01*
X83483Y369448D01*
X83416Y369506D01*
X83366Y369556D01*
X83316Y369590D01*
X83283Y369623D01*
X83258Y369640D01*
X83249Y369648D01*
X83099Y369781D01*
X82949Y369906D01*
X82824Y370015D01*
X82699Y370123D01*
X82591Y370223D01*
X82491Y370323D01*
X82400Y370406D01*
X82324Y370481D01*
X82250Y370548D01*
X82191Y370606D01*
X82141Y370656D01*
X82100Y370698D01*
X82075Y370731D01*
X82050Y370756D01*
X82033Y370764D01*
Y370773D01*
X81908Y370923D01*
X81800Y371073D01*
X81708Y371206D01*
X81633Y371323D01*
X81575Y371414D01*
X81541Y371489D01*
X81516Y371539D01*
X81508Y371556D01*
X81458Y371698D01*
X81416Y371831D01*
X81391Y371964D01*
X81367Y372072D01*
X81358Y372172D01*
X81350Y372247D01*
Y372297D01*
Y372314D01*
X81358Y372456D01*
X81375Y372589D01*
X81400Y372714D01*
X81433Y372831D01*
X81525Y373047D01*
X81566Y373147D01*
X81616Y373231D01*
X81675Y373314D01*
X81716Y373380D01*
X81766Y373439D01*
X81808Y373489D01*
X81841Y373530D01*
X81866Y373555D01*
X81883Y373572D01*
X81891Y373580D01*
X82000Y373672D01*
X82108Y373747D01*
X82225Y373822D01*
X82350Y373880D01*
X82474Y373930D01*
X82591Y373972D01*
X82824Y374030D01*
X82933Y374055D01*
X83033Y374072D01*
X83124Y374080D01*
X83208Y374089D01*
X83266Y374097D01*
X83358D01*
X83524Y374089D01*
D02*
G37*
G36*
X89148Y374164D02*
X89439Y374122D01*
X89706Y374055D01*
X89823Y374022D01*
X89939Y373989D01*
X90039Y373947D01*
X90131Y373914D01*
X90206Y373880D01*
X90273Y373847D01*
X90323Y373822D01*
X90364Y373805D01*
X90389Y373797D01*
X90398Y373789D01*
X90522Y373714D01*
X90647Y373630D01*
X90864Y373447D01*
X91056Y373264D01*
X91206Y373080D01*
X91272Y372989D01*
X91331Y372914D01*
X91381Y372839D01*
X91414Y372781D01*
X91447Y372731D01*
X91472Y372689D01*
X91481Y372664D01*
X91489Y372656D01*
X91556Y372514D01*
X91614Y372364D01*
X91706Y372072D01*
X91772Y371781D01*
X91797Y371639D01*
X91814Y371506D01*
X91830Y371381D01*
X91847Y371273D01*
X91855Y371173D01*
Y371081D01*
X91864Y371014D01*
Y370956D01*
Y370923D01*
Y370914D01*
X91847Y370581D01*
X91814Y370256D01*
X91789Y370115D01*
X91756Y369973D01*
X91730Y369840D01*
X91697Y369715D01*
X91664Y369598D01*
X91639Y369498D01*
X91606Y369415D01*
X91580Y369340D01*
X91564Y369282D01*
X91547Y369231D01*
X91531Y369207D01*
Y369198D01*
X91464Y369057D01*
X91389Y368915D01*
X91314Y368790D01*
X91231Y368673D01*
X91147Y368557D01*
X91064Y368457D01*
X90989Y368365D01*
X90906Y368290D01*
X90831Y368215D01*
X90764Y368148D01*
X90697Y368098D01*
X90647Y368057D01*
X90597Y368015D01*
X90564Y367990D01*
X90547Y367982D01*
X90539Y367974D01*
X90414Y367898D01*
X90281Y367840D01*
X90139Y367782D01*
X89998Y367732D01*
X89714Y367657D01*
X89448Y367607D01*
X89323Y367590D01*
X89214Y367582D01*
X89106Y367574D01*
X89023Y367565D01*
X88948Y367557D01*
X88848D01*
X88665Y367565D01*
X88490Y367582D01*
X88323Y367607D01*
X88165Y367640D01*
X88015Y367682D01*
X87873Y367732D01*
X87748Y367774D01*
X87623Y367832D01*
X87523Y367882D01*
X87432Y367924D01*
X87348Y367974D01*
X87282Y368015D01*
X87223Y368049D01*
X87190Y368074D01*
X87165Y368090D01*
X87157Y368098D01*
X87032Y368207D01*
X86915Y368323D01*
X86807Y368448D01*
X86715Y368582D01*
X86623Y368715D01*
X86549Y368840D01*
X86474Y368973D01*
X86415Y369098D01*
X86357Y369223D01*
X86315Y369332D01*
X86273Y369431D01*
X86240Y369515D01*
X86224Y369590D01*
X86207Y369648D01*
X86190Y369681D01*
Y369690D01*
X87040Y369906D01*
X87082Y369756D01*
X87123Y369623D01*
X87173Y369498D01*
X87223Y369373D01*
X87282Y369265D01*
X87332Y369165D01*
X87390Y369073D01*
X87448Y368998D01*
X87498Y368923D01*
X87548Y368865D01*
X87598Y368807D01*
X87632Y368765D01*
X87665Y368732D01*
X87690Y368707D01*
X87706Y368698D01*
X87715Y368690D01*
X87807Y368615D01*
X87907Y368557D01*
X88006Y368498D01*
X88115Y368457D01*
X88315Y368382D01*
X88506Y368332D01*
X88590Y368315D01*
X88673Y368307D01*
X88740Y368298D01*
X88806Y368290D01*
X88856Y368282D01*
X88923D01*
X89139Y368298D01*
X89339Y368332D01*
X89523Y368373D01*
X89689Y368432D01*
X89823Y368490D01*
X89881Y368515D01*
X89923Y368532D01*
X89964Y368557D01*
X89989Y368565D01*
X90006Y368582D01*
X90014D01*
X90189Y368707D01*
X90339Y368848D01*
X90464Y368998D01*
X90572Y369148D01*
X90656Y369282D01*
X90681Y369340D01*
X90706Y369390D01*
X90731Y369431D01*
X90747Y369465D01*
X90756Y369481D01*
Y369490D01*
X90831Y369723D01*
X90889Y369973D01*
X90931Y370206D01*
X90956Y370431D01*
X90972Y370531D01*
Y370623D01*
X90981Y370706D01*
X90989Y370781D01*
Y370839D01*
Y370881D01*
Y370906D01*
Y370914D01*
X90981Y371148D01*
X90956Y371373D01*
X90922Y371581D01*
X90889Y371772D01*
X90872Y371847D01*
X90856Y371922D01*
X90839Y371989D01*
X90822Y372047D01*
X90806Y372089D01*
X90797Y372122D01*
X90789Y372139D01*
Y372147D01*
X90706Y372364D01*
X90597Y372547D01*
X90481Y372714D01*
X90364Y372847D01*
X90264Y372956D01*
X90181Y373031D01*
X90147Y373064D01*
X90123Y373080D01*
X90106Y373097D01*
X90098D01*
X89998Y373164D01*
X89898Y373214D01*
X89689Y373306D01*
X89481Y373372D01*
X89289Y373414D01*
X89198Y373422D01*
X89115Y373439D01*
X89039Y373447D01*
X88981D01*
X88931Y373455D01*
X88856D01*
X88623Y373439D01*
X88415Y373405D01*
X88231Y373355D01*
X88073Y373297D01*
X87948Y373231D01*
X87898Y373205D01*
X87857Y373181D01*
X87823Y373164D01*
X87798Y373147D01*
X87790Y373130D01*
X87781D01*
X87706Y373064D01*
X87632Y372997D01*
X87498Y372839D01*
X87390Y372672D01*
X87298Y372506D01*
X87223Y372356D01*
X87198Y372289D01*
X87173Y372231D01*
X87157Y372181D01*
X87140Y372147D01*
X87132Y372122D01*
Y372114D01*
X86299Y372314D01*
X86348Y372472D01*
X86415Y372631D01*
X86482Y372772D01*
X86557Y372906D01*
X86632Y373022D01*
X86707Y373139D01*
X86782Y373239D01*
X86857Y373330D01*
X86932Y373414D01*
X86998Y373489D01*
X87065Y373547D01*
X87115Y373597D01*
X87157Y373639D01*
X87198Y373664D01*
X87215Y373680D01*
X87223Y373689D01*
X87348Y373772D01*
X87482Y373855D01*
X87615Y373914D01*
X87748Y373972D01*
X87890Y374022D01*
X88023Y374064D01*
X88273Y374122D01*
X88390Y374139D01*
X88498Y374155D01*
X88598Y374164D01*
X88681Y374172D01*
X88748Y374180D01*
X88998D01*
X89148Y374164D01*
D02*
G37*
G36*
X86083Y409765D02*
X86216Y409757D01*
X86466Y409707D01*
X86683Y409632D01*
X86775Y409590D01*
X86866Y409557D01*
X86941Y409515D01*
X87016Y409474D01*
X87074Y409432D01*
X87124Y409399D01*
X87166Y409374D01*
X87191Y409349D01*
X87208Y409340D01*
X87216Y409332D01*
X87308Y409249D01*
X87391Y409157D01*
X87533Y408957D01*
X87641Y408757D01*
X87733Y408566D01*
X87766Y408474D01*
X87791Y408391D01*
X87816Y408307D01*
X87833Y408249D01*
X87849Y408191D01*
X87858Y408149D01*
X87866Y408124D01*
Y408116D01*
X87083Y407974D01*
X87041Y408174D01*
X86991Y408349D01*
X86924Y408499D01*
X86858Y408616D01*
X86799Y408716D01*
X86749Y408782D01*
X86716Y408815D01*
X86699Y408832D01*
X86575Y408932D01*
X86450Y408999D01*
X86316Y409049D01*
X86200Y409090D01*
X86091Y409107D01*
X86000Y409115D01*
X85966Y409124D01*
X85925D01*
X85758Y409115D01*
X85617Y409082D01*
X85483Y409032D01*
X85375Y408982D01*
X85292Y408924D01*
X85225Y408882D01*
X85192Y408849D01*
X85175Y408832D01*
X85075Y408724D01*
X85000Y408599D01*
X84950Y408482D01*
X84908Y408374D01*
X84892Y408274D01*
X84883Y408199D01*
X84875Y408141D01*
Y408132D01*
Y408124D01*
X84883Y408024D01*
X84892Y407932D01*
X84942Y407766D01*
X85000Y407624D01*
X85075Y407508D01*
X85150Y407424D01*
X85217Y407358D01*
X85267Y407324D01*
X85275Y407308D01*
X85283D01*
X85433Y407224D01*
X85591Y407158D01*
X85742Y407116D01*
X85883Y407083D01*
X86000Y407066D01*
X86100Y407058D01*
X86133Y407049D01*
X86225D01*
X86266Y407058D01*
X86291Y407066D01*
X86308D01*
X86400Y406375D01*
X86283Y406399D01*
X86175Y406424D01*
X86075Y406441D01*
X85991Y406450D01*
X85933Y406458D01*
X85841D01*
X85641Y406441D01*
X85466Y406399D01*
X85317Y406349D01*
X85183Y406283D01*
X85083Y406216D01*
X85008Y406166D01*
X84958Y406125D01*
X84942Y406108D01*
X84875Y406041D01*
X84825Y405966D01*
X84733Y405825D01*
X84667Y405675D01*
X84625Y405533D01*
X84600Y405408D01*
X84592Y405350D01*
Y405308D01*
X84583Y405266D01*
Y405242D01*
Y405225D01*
Y405216D01*
Y405117D01*
X84600Y405017D01*
X84642Y404833D01*
X84708Y404667D01*
X84775Y404533D01*
X84842Y404417D01*
X84908Y404333D01*
X84933Y404308D01*
X84950Y404283D01*
X84958Y404275D01*
X84967Y404267D01*
X85042Y404200D01*
X85117Y404142D01*
X85275Y404042D01*
X85433Y403975D01*
X85583Y403933D01*
X85708Y403900D01*
X85766Y403892D01*
X85816D01*
X85850Y403884D01*
X85908D01*
X86075Y403900D01*
X86233Y403933D01*
X86366Y403975D01*
X86483Y404033D01*
X86583Y404083D01*
X86650Y404133D01*
X86691Y404167D01*
X86708Y404175D01*
X86766Y404233D01*
X86816Y404300D01*
X86908Y404458D01*
X86991Y404617D01*
X87050Y404775D01*
X87099Y404925D01*
X87116Y404983D01*
X87133Y405042D01*
X87141Y405083D01*
X87149Y405117D01*
X87158Y405141D01*
Y405150D01*
X87941Y405042D01*
X87924Y404892D01*
X87891Y404750D01*
X87858Y404625D01*
X87808Y404500D01*
X87758Y404383D01*
X87708Y404275D01*
X87649Y404175D01*
X87599Y404083D01*
X87541Y404008D01*
X87491Y403933D01*
X87441Y403875D01*
X87399Y403825D01*
X87358Y403783D01*
X87333Y403759D01*
X87316Y403742D01*
X87308Y403733D01*
X87199Y403642D01*
X87091Y403567D01*
X86974Y403500D01*
X86849Y403442D01*
X86733Y403400D01*
X86616Y403359D01*
X86400Y403300D01*
X86300Y403275D01*
X86200Y403259D01*
X86116Y403250D01*
X86050Y403242D01*
X85991Y403234D01*
X85908D01*
X85733Y403242D01*
X85575Y403259D01*
X85416Y403284D01*
X85275Y403325D01*
X85133Y403367D01*
X85008Y403417D01*
X84892Y403467D01*
X84783Y403525D01*
X84692Y403575D01*
X84608Y403625D01*
X84533Y403675D01*
X84475Y403717D01*
X84425Y403759D01*
X84392Y403783D01*
X84375Y403800D01*
X84367Y403809D01*
X84258Y403917D01*
X84167Y404033D01*
X84084Y404158D01*
X84009Y404275D01*
X83950Y404400D01*
X83900Y404517D01*
X83859Y404633D01*
X83825Y404742D01*
X83800Y404842D01*
X83784Y404933D01*
X83767Y405017D01*
X83759Y405092D01*
X83750Y405150D01*
Y405200D01*
Y405225D01*
Y405233D01*
X83767Y405458D01*
X83800Y405650D01*
X83850Y405825D01*
X83909Y405975D01*
X83967Y406100D01*
X83992Y406141D01*
X84017Y406183D01*
X84034Y406216D01*
X84050Y406241D01*
X84067Y406250D01*
Y406258D01*
X84192Y406399D01*
X84342Y406516D01*
X84483Y406616D01*
X84625Y406691D01*
X84750Y406741D01*
X84808Y406766D01*
X84858Y406783D01*
X84892Y406791D01*
X84925Y406799D01*
X84942Y406808D01*
X84950D01*
X84800Y406891D01*
X84667Y406974D01*
X84550Y407066D01*
X84459Y407158D01*
X84383Y407233D01*
X84333Y407291D01*
X84300Y407333D01*
X84292Y407349D01*
X84217Y407482D01*
X84158Y407616D01*
X84125Y407741D01*
X84092Y407858D01*
X84075Y407957D01*
X84067Y408041D01*
Y408091D01*
Y408099D01*
Y408107D01*
X84075Y408266D01*
X84100Y408416D01*
X84142Y408557D01*
X84184Y408682D01*
X84234Y408782D01*
X84267Y408866D01*
X84300Y408915D01*
X84309Y408924D01*
Y408932D01*
X84400Y409074D01*
X84508Y409190D01*
X84625Y409299D01*
X84733Y409390D01*
X84833Y409457D01*
X84908Y409507D01*
X84942Y409524D01*
X84967Y409540D01*
X84975Y409549D01*
X84983D01*
X85150Y409624D01*
X85317Y409682D01*
X85475Y409715D01*
X85625Y409749D01*
X85750Y409765D01*
X85808D01*
X85850Y409774D01*
X85941D01*
X86083Y409765D01*
D02*
G37*
G36*
X91623Y409840D02*
X91915Y409799D01*
X92182Y409732D01*
X92298Y409699D01*
X92415Y409665D01*
X92515Y409624D01*
X92606Y409590D01*
X92681Y409557D01*
X92748Y409524D01*
X92798Y409499D01*
X92840Y409482D01*
X92865Y409474D01*
X92873Y409465D01*
X92998Y409390D01*
X93123Y409307D01*
X93340Y409124D01*
X93531Y408941D01*
X93681Y408757D01*
X93748Y408666D01*
X93806Y408591D01*
X93856Y408516D01*
X93889Y408457D01*
X93923Y408407D01*
X93948Y408366D01*
X93956Y408341D01*
X93964Y408332D01*
X94031Y408191D01*
X94089Y408041D01*
X94181Y407749D01*
X94248Y407458D01*
X94273Y407316D01*
X94289Y407183D01*
X94306Y407058D01*
X94323Y406949D01*
X94331Y406849D01*
Y406758D01*
X94339Y406691D01*
Y406633D01*
Y406599D01*
Y406591D01*
X94323Y406258D01*
X94289Y405933D01*
X94264Y405791D01*
X94231Y405650D01*
X94206Y405516D01*
X94173Y405391D01*
X94139Y405275D01*
X94114Y405175D01*
X94081Y405092D01*
X94056Y405017D01*
X94039Y404958D01*
X94023Y404908D01*
X94006Y404883D01*
Y404875D01*
X93939Y404733D01*
X93864Y404592D01*
X93789Y404467D01*
X93706Y404350D01*
X93623Y404233D01*
X93539Y404133D01*
X93464Y404042D01*
X93381Y403967D01*
X93306Y403892D01*
X93239Y403825D01*
X93173Y403775D01*
X93123Y403733D01*
X93073Y403692D01*
X93040Y403667D01*
X93023Y403658D01*
X93015Y403650D01*
X92890Y403575D01*
X92756Y403517D01*
X92615Y403459D01*
X92473Y403409D01*
X92190Y403334D01*
X91923Y403284D01*
X91798Y403267D01*
X91690Y403259D01*
X91582Y403250D01*
X91498Y403242D01*
X91423Y403234D01*
X91323D01*
X91140Y403242D01*
X90965Y403259D01*
X90799Y403284D01*
X90640Y403317D01*
X90490Y403359D01*
X90349Y403409D01*
X90224Y403450D01*
X90099Y403509D01*
X89999Y403559D01*
X89907Y403600D01*
X89824Y403650D01*
X89757Y403692D01*
X89699Y403725D01*
X89665Y403750D01*
X89641Y403767D01*
X89632Y403775D01*
X89507Y403884D01*
X89390Y404000D01*
X89282Y404125D01*
X89191Y404258D01*
X89099Y404392D01*
X89024Y404517D01*
X88949Y404650D01*
X88891Y404775D01*
X88832Y404900D01*
X88791Y405008D01*
X88749Y405108D01*
X88716Y405191D01*
X88699Y405266D01*
X88682Y405325D01*
X88666Y405358D01*
Y405366D01*
X89515Y405583D01*
X89557Y405433D01*
X89599Y405300D01*
X89649Y405175D01*
X89699Y405050D01*
X89757Y404941D01*
X89807Y404842D01*
X89865Y404750D01*
X89924Y404675D01*
X89974Y404600D01*
X90024Y404542D01*
X90074Y404483D01*
X90107Y404442D01*
X90140Y404408D01*
X90165Y404383D01*
X90182Y404375D01*
X90190Y404367D01*
X90282Y404292D01*
X90382Y404233D01*
X90482Y404175D01*
X90590Y404133D01*
X90790Y404058D01*
X90982Y404008D01*
X91065Y403992D01*
X91148Y403983D01*
X91215Y403975D01*
X91282Y403967D01*
X91332Y403959D01*
X91398D01*
X91615Y403975D01*
X91815Y404008D01*
X91998Y404050D01*
X92165Y404108D01*
X92298Y404167D01*
X92356Y404192D01*
X92398Y404208D01*
X92440Y404233D01*
X92465Y404242D01*
X92481Y404258D01*
X92490D01*
X92665Y404383D01*
X92815Y404525D01*
X92940Y404675D01*
X93048Y404825D01*
X93131Y404958D01*
X93156Y405017D01*
X93181Y405066D01*
X93206Y405108D01*
X93223Y405141D01*
X93231Y405158D01*
Y405167D01*
X93306Y405400D01*
X93364Y405650D01*
X93406Y405883D01*
X93431Y406108D01*
X93448Y406208D01*
Y406300D01*
X93456Y406383D01*
X93464Y406458D01*
Y406516D01*
Y406558D01*
Y406583D01*
Y406591D01*
X93456Y406824D01*
X93431Y407049D01*
X93398Y407258D01*
X93364Y407449D01*
X93348Y407524D01*
X93331Y407599D01*
X93315Y407666D01*
X93298Y407724D01*
X93281Y407766D01*
X93273Y407799D01*
X93265Y407816D01*
Y407824D01*
X93181Y408041D01*
X93073Y408224D01*
X92956Y408391D01*
X92840Y408524D01*
X92740Y408632D01*
X92656Y408707D01*
X92623Y408741D01*
X92598Y408757D01*
X92581Y408774D01*
X92573D01*
X92473Y408840D01*
X92373Y408890D01*
X92165Y408982D01*
X91957Y409049D01*
X91765Y409090D01*
X91673Y409099D01*
X91590Y409115D01*
X91515Y409124D01*
X91457D01*
X91407Y409132D01*
X91332D01*
X91098Y409115D01*
X90890Y409082D01*
X90707Y409032D01*
X90549Y408974D01*
X90424Y408907D01*
X90374Y408882D01*
X90332Y408857D01*
X90299Y408840D01*
X90274Y408824D01*
X90265Y408807D01*
X90257D01*
X90182Y408741D01*
X90107Y408674D01*
X89974Y408516D01*
X89865Y408349D01*
X89774Y408182D01*
X89699Y408032D01*
X89674Y407966D01*
X89649Y407907D01*
X89632Y407858D01*
X89615Y407824D01*
X89607Y407799D01*
Y407791D01*
X88774Y407991D01*
X88824Y408149D01*
X88891Y408307D01*
X88957Y408449D01*
X89032Y408582D01*
X89107Y408699D01*
X89182Y408815D01*
X89257Y408915D01*
X89332Y409007D01*
X89407Y409090D01*
X89474Y409165D01*
X89541Y409224D01*
X89591Y409274D01*
X89632Y409315D01*
X89674Y409340D01*
X89690Y409357D01*
X89699Y409365D01*
X89824Y409449D01*
X89957Y409532D01*
X90090Y409590D01*
X90224Y409649D01*
X90365Y409699D01*
X90499Y409740D01*
X90749Y409799D01*
X90865Y409815D01*
X90974Y409832D01*
X91073Y409840D01*
X91157Y409849D01*
X91223Y409857D01*
X91473D01*
X91623Y409840D01*
D02*
G37*
G36*
X93536Y382188D02*
X93028D01*
X92936Y382347D01*
X92828Y382497D01*
X92711Y382646D01*
X92603Y382771D01*
X92495Y382888D01*
X92412Y382971D01*
X92378Y383005D01*
X92353Y383030D01*
X92337Y383038D01*
X92328Y383046D01*
X92137Y383205D01*
X91945Y383346D01*
X91745Y383480D01*
X91570Y383588D01*
X91412Y383671D01*
X91345Y383713D01*
X91287Y383738D01*
X91245Y383763D01*
X91212Y383780D01*
X91187Y383796D01*
X91179D01*
Y384563D01*
X91320Y384504D01*
X91462Y384438D01*
X91603Y384371D01*
X91728Y384304D01*
X91837Y384246D01*
X91928Y384196D01*
X91962Y384179D01*
X91987Y384163D01*
X91995Y384155D01*
X92003D01*
X92170Y384054D01*
X92312Y383955D01*
X92445Y383863D01*
X92553Y383780D01*
X92636Y383713D01*
X92703Y383655D01*
X92737Y383621D01*
X92753Y383613D01*
Y388620D01*
X93536D01*
Y382188D01*
D02*
G37*
G36*
X87579Y385912D02*
X90137Y382213D01*
X89146D01*
X87904Y384104D01*
X87754Y384329D01*
X87621Y384546D01*
X87505Y384738D01*
X87396Y384904D01*
X87355Y384979D01*
X87313Y385046D01*
X87280Y385104D01*
X87246Y385146D01*
X87230Y385187D01*
X87213Y385213D01*
X87196Y385229D01*
Y385238D01*
X87080Y385038D01*
X86971Y384838D01*
X86863Y384654D01*
X86763Y384496D01*
X86671Y384354D01*
X86638Y384296D01*
X86605Y384246D01*
X86580Y384204D01*
X86563Y384179D01*
X86555Y384163D01*
X86546Y384155D01*
X85280Y382213D01*
X84264D01*
X86730Y385912D01*
Y388620D01*
X87579D01*
Y385912D01*
D02*
G37*
G36*
X125132Y485172D02*
X125240Y485022D01*
X125357Y484872D01*
X125465Y484747D01*
X125573Y484630D01*
X125657Y484547D01*
X125690Y484514D01*
X125715Y484488D01*
X125732Y484480D01*
X125740Y484472D01*
X125932Y484314D01*
X126123Y484172D01*
X126323Y484039D01*
X126498Y483930D01*
X126656Y483847D01*
X126723Y483805D01*
X126781Y483780D01*
X126823Y483755D01*
X126856Y483739D01*
X126881Y483722D01*
X126890D01*
Y482956D01*
X126748Y483014D01*
X126606Y483081D01*
X126465Y483147D01*
X126340Y483214D01*
X126231Y483272D01*
X126140Y483322D01*
X126107Y483339D01*
X126081Y483355D01*
X126073Y483364D01*
X126065D01*
X125898Y483464D01*
X125757Y483564D01*
X125623Y483655D01*
X125515Y483739D01*
X125432Y483805D01*
X125365Y483864D01*
X125332Y483897D01*
X125315Y483905D01*
Y478898D01*
X124532D01*
Y485330D01*
X125040D01*
X125132Y485172D01*
D02*
G37*
G36*
X129406Y480890D02*
Y480698D01*
X129422Y480531D01*
X129431Y480398D01*
X129447Y480281D01*
X129464Y480198D01*
X129481Y480140D01*
X129489Y480098D01*
X129497Y480090D01*
X129531Y479998D01*
X129581Y479923D01*
X129631Y479856D01*
X129689Y479798D01*
X129739Y479748D01*
X129772Y479715D01*
X129806Y479698D01*
X129814Y479690D01*
X129906Y479640D01*
X129997Y479607D01*
X130089Y479581D01*
X130172Y479565D01*
X130247Y479557D01*
X130314Y479548D01*
X130364D01*
X130514Y479557D01*
X130655Y479590D01*
X130772Y479632D01*
X130864Y479681D01*
X130947Y479731D01*
X130997Y479773D01*
X131039Y479806D01*
X131047Y479815D01*
X131089Y479873D01*
X131130Y479931D01*
X131189Y480081D01*
X131238Y480248D01*
X131272Y480415D01*
X131288Y480573D01*
X131297Y480639D01*
X131305Y480698D01*
X131313Y480748D01*
Y480781D01*
Y480806D01*
Y480815D01*
X132080Y480706D01*
Y480531D01*
X132072Y480373D01*
X132047Y480223D01*
X132022Y480081D01*
X131988Y479956D01*
X131955Y479840D01*
X131913Y479731D01*
X131880Y479632D01*
X131838Y479548D01*
X131797Y479473D01*
X131755Y479415D01*
X131722Y479365D01*
X131697Y479323D01*
X131672Y479298D01*
X131663Y479282D01*
X131655Y479273D01*
X131564Y479190D01*
X131472Y479115D01*
X131372Y479048D01*
X131264Y478998D01*
X131155Y478948D01*
X131047Y478907D01*
X130839Y478848D01*
X130747Y478832D01*
X130655Y478815D01*
X130572Y478807D01*
X130505Y478798D01*
X130447Y478790D01*
X130364D01*
X130155Y478798D01*
X129964Y478823D01*
X129797Y478865D01*
X129656Y478907D01*
X129531Y478940D01*
X129447Y478982D01*
X129414Y478998D01*
X129389Y479007D01*
X129381Y479015D01*
X129372D01*
X129222Y479115D01*
X129097Y479223D01*
X128989Y479332D01*
X128906Y479440D01*
X128839Y479540D01*
X128789Y479615D01*
X128772Y479648D01*
X128764Y479673D01*
X128756Y479681D01*
Y479690D01*
X128722Y479773D01*
X128689Y479873D01*
X128639Y480073D01*
X128606Y480281D01*
X128581Y480481D01*
X128573Y480573D01*
X128564Y480664D01*
Y480740D01*
X128556Y480806D01*
Y480864D01*
Y480906D01*
Y480931D01*
Y480939D01*
Y485305D01*
X129406D01*
Y480890D01*
D02*
G37*
G36*
X141756Y316213D02*
X142081Y316180D01*
X142222Y316155D01*
X142364Y316122D01*
X142497Y316097D01*
X142622Y316063D01*
X142739Y316030D01*
X142839Y316005D01*
X142922Y315972D01*
X142997Y315947D01*
X143055Y315930D01*
X143105Y315913D01*
X143130Y315897D01*
X143139D01*
X143280Y315830D01*
X143422Y315755D01*
X143547Y315680D01*
X143664Y315597D01*
X143780Y315513D01*
X143880Y315430D01*
X143972Y315355D01*
X144047Y315272D01*
X144122Y315197D01*
X144188Y315130D01*
X144239Y315064D01*
X144280Y315014D01*
X144322Y314964D01*
X144347Y314930D01*
X144355Y314914D01*
X144363Y314905D01*
X144438Y314780D01*
X144497Y314647D01*
X144555Y314505D01*
X144605Y314364D01*
X144680Y314081D01*
X144730Y313814D01*
X144747Y313689D01*
X144755Y313581D01*
X144763Y313472D01*
X144772Y313389D01*
X144780Y313314D01*
Y313214D01*
X144772Y313031D01*
X144755Y312856D01*
X144730Y312689D01*
X144697Y312531D01*
X144655Y312381D01*
X144605Y312239D01*
X144563Y312114D01*
X144505Y311989D01*
X144455Y311889D01*
X144413Y311798D01*
X144363Y311714D01*
X144322Y311648D01*
X144289Y311590D01*
X144263Y311556D01*
X144247Y311531D01*
X144239Y311523D01*
X144130Y311398D01*
X144014Y311281D01*
X143889Y311173D01*
X143755Y311081D01*
X143622Y310990D01*
X143497Y310915D01*
X143364Y310840D01*
X143239Y310781D01*
X143114Y310723D01*
X143006Y310681D01*
X142906Y310640D01*
X142822Y310606D01*
X142747Y310590D01*
X142689Y310573D01*
X142655Y310557D01*
X142647D01*
X142431Y311406D01*
X142581Y311448D01*
X142714Y311490D01*
X142839Y311539D01*
X142964Y311590D01*
X143072Y311648D01*
X143172Y311698D01*
X143264Y311756D01*
X143339Y311814D01*
X143414Y311864D01*
X143472Y311914D01*
X143530Y311964D01*
X143572Y311998D01*
X143605Y312031D01*
X143630Y312056D01*
X143639Y312073D01*
X143647Y312081D01*
X143722Y312173D01*
X143780Y312273D01*
X143839Y312373D01*
X143880Y312481D01*
X143955Y312681D01*
X144005Y312873D01*
X144022Y312956D01*
X144030Y313039D01*
X144038Y313106D01*
X144047Y313172D01*
X144055Y313222D01*
Y313289D01*
X144038Y313506D01*
X144005Y313706D01*
X143963Y313889D01*
X143905Y314056D01*
X143847Y314189D01*
X143822Y314247D01*
X143805Y314289D01*
X143780Y314331D01*
X143772Y314356D01*
X143755Y314372D01*
Y314380D01*
X143630Y314555D01*
X143489Y314705D01*
X143339Y314830D01*
X143189Y314939D01*
X143055Y315022D01*
X142997Y315047D01*
X142947Y315072D01*
X142906Y315097D01*
X142872Y315114D01*
X142856Y315122D01*
X142847D01*
X142614Y315197D01*
X142364Y315255D01*
X142131Y315297D01*
X141906Y315322D01*
X141806Y315339D01*
X141714D01*
X141631Y315347D01*
X141556Y315355D01*
X141497D01*
X141456D01*
X141431D01*
X141423D01*
X141189Y315347D01*
X140964Y315322D01*
X140756Y315289D01*
X140564Y315255D01*
X140489Y315239D01*
X140414Y315222D01*
X140348Y315205D01*
X140289Y315189D01*
X140248Y315172D01*
X140215Y315164D01*
X140198Y315155D01*
X140190D01*
X139973Y315072D01*
X139790Y314964D01*
X139623Y314847D01*
X139490Y314730D01*
X139381Y314630D01*
X139306Y314547D01*
X139273Y314514D01*
X139256Y314489D01*
X139240Y314472D01*
Y314464D01*
X139173Y314364D01*
X139123Y314264D01*
X139031Y314056D01*
X138965Y313847D01*
X138923Y313656D01*
X138915Y313564D01*
X138898Y313481D01*
X138890Y313406D01*
Y313347D01*
X138882Y313297D01*
Y313222D01*
X138898Y312989D01*
X138932Y312781D01*
X138982Y312598D01*
X139040Y312439D01*
X139107Y312314D01*
X139131Y312264D01*
X139156Y312223D01*
X139173Y312189D01*
X139190Y312164D01*
X139206Y312156D01*
Y312148D01*
X139273Y312073D01*
X139340Y311998D01*
X139498Y311864D01*
X139665Y311756D01*
X139831Y311665D01*
X139981Y311590D01*
X140048Y311565D01*
X140106Y311539D01*
X140156Y311523D01*
X140190Y311506D01*
X140215Y311498D01*
X140223D01*
X140023Y310665D01*
X139865Y310715D01*
X139706Y310781D01*
X139565Y310848D01*
X139431Y310923D01*
X139315Y310998D01*
X139198Y311073D01*
X139098Y311148D01*
X139007Y311223D01*
X138923Y311298D01*
X138848Y311365D01*
X138790Y311431D01*
X138740Y311481D01*
X138698Y311523D01*
X138673Y311565D01*
X138657Y311581D01*
X138648Y311590D01*
X138565Y311714D01*
X138482Y311848D01*
X138423Y311981D01*
X138365Y312114D01*
X138315Y312256D01*
X138273Y312389D01*
X138215Y312639D01*
X138198Y312756D01*
X138182Y312864D01*
X138173Y312964D01*
X138165Y313048D01*
X138157Y313114D01*
Y313364D01*
X138173Y313514D01*
X138215Y313806D01*
X138282Y314072D01*
X138315Y314189D01*
X138348Y314305D01*
X138390Y314405D01*
X138423Y314497D01*
X138457Y314572D01*
X138490Y314639D01*
X138515Y314689D01*
X138532Y314730D01*
X138540Y314755D01*
X138548Y314764D01*
X138623Y314889D01*
X138707Y315014D01*
X138890Y315230D01*
X139073Y315422D01*
X139256Y315572D01*
X139348Y315639D01*
X139423Y315697D01*
X139498Y315747D01*
X139556Y315780D01*
X139606Y315813D01*
X139648Y315838D01*
X139673Y315847D01*
X139681Y315855D01*
X139823Y315922D01*
X139973Y315980D01*
X140265Y316072D01*
X140556Y316138D01*
X140698Y316163D01*
X140831Y316180D01*
X140956Y316197D01*
X141064Y316213D01*
X141164Y316222D01*
X141256D01*
X141323Y316230D01*
X141381D01*
X141414D01*
X141423D01*
X141756Y316213D01*
D02*
G37*
G36*
X142972Y309832D02*
X143122Y309815D01*
X143264Y309790D01*
X143397Y309748D01*
X143522Y309707D01*
X143639Y309657D01*
X143739Y309607D01*
X143839Y309548D01*
X143922Y309498D01*
X143997Y309448D01*
X144064Y309398D01*
X144122Y309357D01*
X144164Y309315D01*
X144197Y309290D01*
X144213Y309273D01*
X144222Y309265D01*
X144322Y309149D01*
X144405Y309032D01*
X144480Y308907D01*
X144547Y308782D01*
X144597Y308649D01*
X144647Y308524D01*
X144713Y308282D01*
X144730Y308165D01*
X144747Y308065D01*
X144763Y307974D01*
X144772Y307890D01*
X144780Y307824D01*
Y307732D01*
X144772Y307557D01*
X144755Y307399D01*
X144730Y307241D01*
X144688Y307099D01*
X144647Y306957D01*
X144605Y306832D01*
X144555Y306724D01*
X144497Y306616D01*
X144447Y306524D01*
X144397Y306441D01*
X144355Y306374D01*
X144305Y306316D01*
X144272Y306266D01*
X144247Y306233D01*
X144230Y306216D01*
X144222Y306208D01*
X144114Y306108D01*
X144005Y306016D01*
X143889Y305941D01*
X143772Y305866D01*
X143655Y305816D01*
X143539Y305766D01*
X143430Y305724D01*
X143322Y305699D01*
X143222Y305674D01*
X143139Y305658D01*
X143055Y305641D01*
X142980Y305633D01*
X142922Y305624D01*
X142880D01*
X142856D01*
X142847D01*
X142631Y305641D01*
X142431Y305674D01*
X142256Y305724D01*
X142106Y305774D01*
X141989Y305833D01*
X141939Y305858D01*
X141897Y305883D01*
X141864Y305908D01*
X141839Y305916D01*
X141831Y305933D01*
X141822D01*
X141672Y306058D01*
X141547Y306199D01*
X141439Y306349D01*
X141356Y306499D01*
X141289Y306632D01*
X141264Y306682D01*
X141239Y306732D01*
X141223Y306774D01*
X141214Y306807D01*
X141206Y306824D01*
Y306832D01*
X141131Y306666D01*
X141048Y306524D01*
X140964Y306399D01*
X140881Y306299D01*
X140806Y306224D01*
X140748Y306166D01*
X140714Y306133D01*
X140698Y306124D01*
X140564Y306041D01*
X140431Y305983D01*
X140306Y305941D01*
X140181Y305916D01*
X140073Y305891D01*
X139990Y305883D01*
X139956D01*
X139931D01*
X139923D01*
X139915D01*
X139790Y305891D01*
X139665Y305908D01*
X139548Y305933D01*
X139431Y305966D01*
X139231Y306049D01*
X139057Y306141D01*
X138990Y306191D01*
X138923Y306233D01*
X138865Y306283D01*
X138815Y306316D01*
X138781Y306349D01*
X138757Y306374D01*
X138740Y306391D01*
X138731Y306399D01*
X138648Y306499D01*
X138565Y306599D01*
X138507Y306716D01*
X138448Y306824D01*
X138398Y306941D01*
X138357Y307049D01*
X138298Y307266D01*
X138282Y307366D01*
X138265Y307457D01*
X138257Y307541D01*
X138248Y307607D01*
X138240Y307666D01*
Y307749D01*
X138248Y307899D01*
X138257Y308049D01*
X138282Y308182D01*
X138315Y308307D01*
X138348Y308424D01*
X138390Y308540D01*
X138440Y308640D01*
X138482Y308724D01*
X138523Y308807D01*
X138573Y308882D01*
X138615Y308940D01*
X138648Y308990D01*
X138682Y309032D01*
X138698Y309057D01*
X138715Y309074D01*
X138723Y309082D01*
X138815Y309174D01*
X138906Y309249D01*
X139007Y309315D01*
X139107Y309373D01*
X139206Y309415D01*
X139306Y309457D01*
X139490Y309515D01*
X139648Y309557D01*
X139723Y309565D01*
X139781Y309573D01*
X139831Y309582D01*
X139865D01*
X139890D01*
X139898D01*
X140064Y309573D01*
X140215Y309548D01*
X140348Y309507D01*
X140464Y309465D01*
X140556Y309423D01*
X140631Y309382D01*
X140673Y309357D01*
X140689Y309348D01*
X140806Y309249D01*
X140914Y309140D01*
X140998Y309015D01*
X141073Y308899D01*
X141131Y308790D01*
X141173Y308707D01*
X141189Y308674D01*
X141198Y308649D01*
X141206Y308632D01*
Y308624D01*
X141273Y308832D01*
X141356Y309007D01*
X141456Y309165D01*
X141547Y309290D01*
X141639Y309390D01*
X141714Y309465D01*
X141764Y309507D01*
X141772Y309523D01*
X141781D01*
X141947Y309632D01*
X142122Y309707D01*
X142289Y309765D01*
X142456Y309798D01*
X142606Y309823D01*
X142664Y309832D01*
X142714D01*
X142764Y309840D01*
X142797D01*
X142814D01*
X142822D01*
X142972Y309832D01*
D02*
G37*
G36*
X158266Y316213D02*
X158591Y316180D01*
X158732Y316155D01*
X158874Y316122D01*
X159007Y316097D01*
X159132Y316063D01*
X159249Y316030D01*
X159349Y316005D01*
X159432Y315972D01*
X159507Y315947D01*
X159565Y315930D01*
X159615Y315913D01*
X159640Y315897D01*
X159649D01*
X159790Y315830D01*
X159932Y315755D01*
X160057Y315680D01*
X160174Y315597D01*
X160290Y315513D01*
X160390Y315430D01*
X160482Y315355D01*
X160557Y315272D01*
X160632Y315197D01*
X160699Y315130D01*
X160749Y315064D01*
X160790Y315014D01*
X160832Y314964D01*
X160857Y314930D01*
X160865Y314914D01*
X160873Y314905D01*
X160948Y314780D01*
X161007Y314647D01*
X161065Y314505D01*
X161115Y314364D01*
X161190Y314081D01*
X161240Y313814D01*
X161257Y313689D01*
X161265Y313581D01*
X161273Y313472D01*
X161282Y313389D01*
X161290Y313314D01*
Y313214D01*
X161282Y313031D01*
X161265Y312856D01*
X161240Y312689D01*
X161207Y312531D01*
X161165Y312381D01*
X161115Y312239D01*
X161073Y312114D01*
X161015Y311989D01*
X160965Y311889D01*
X160923Y311798D01*
X160873Y311714D01*
X160832Y311648D01*
X160798Y311590D01*
X160774Y311556D01*
X160757Y311531D01*
X160749Y311523D01*
X160640Y311398D01*
X160523Y311281D01*
X160399Y311173D01*
X160265Y311081D01*
X160132Y310990D01*
X160007Y310915D01*
X159874Y310840D01*
X159749Y310781D01*
X159624Y310723D01*
X159515Y310681D01*
X159416Y310640D01*
X159332Y310606D01*
X159257Y310590D01*
X159199Y310573D01*
X159165Y310557D01*
X159157D01*
X158941Y311406D01*
X159091Y311448D01*
X159224Y311490D01*
X159349Y311539D01*
X159474Y311590D01*
X159582Y311648D01*
X159682Y311698D01*
X159774Y311756D01*
X159849Y311814D01*
X159924Y311864D01*
X159982Y311914D01*
X160040Y311964D01*
X160082Y311998D01*
X160115Y312031D01*
X160140Y312056D01*
X160149Y312073D01*
X160157Y312081D01*
X160232Y312173D01*
X160290Y312273D01*
X160349Y312373D01*
X160390Y312481D01*
X160465Y312681D01*
X160515Y312873D01*
X160532Y312956D01*
X160540Y313039D01*
X160548Y313106D01*
X160557Y313172D01*
X160565Y313222D01*
Y313289D01*
X160548Y313506D01*
X160515Y313706D01*
X160473Y313889D01*
X160415Y314056D01*
X160357Y314189D01*
X160332Y314247D01*
X160315Y314289D01*
X160290Y314331D01*
X160282Y314356D01*
X160265Y314372D01*
Y314380D01*
X160140Y314555D01*
X159999Y314705D01*
X159849Y314830D01*
X159699Y314939D01*
X159565Y315022D01*
X159507Y315047D01*
X159457Y315072D01*
X159416Y315097D01*
X159382Y315114D01*
X159366Y315122D01*
X159357D01*
X159124Y315197D01*
X158874Y315255D01*
X158641Y315297D01*
X158416Y315322D01*
X158316Y315339D01*
X158224D01*
X158141Y315347D01*
X158066Y315355D01*
X158007D01*
X157966D01*
X157941D01*
X157933D01*
X157699Y315347D01*
X157474Y315322D01*
X157266Y315289D01*
X157074Y315255D01*
X156999Y315239D01*
X156924Y315222D01*
X156858Y315205D01*
X156799Y315189D01*
X156758Y315172D01*
X156725Y315164D01*
X156708Y315155D01*
X156699D01*
X156483Y315072D01*
X156300Y314964D01*
X156133Y314847D01*
X156000Y314730D01*
X155891Y314630D01*
X155816Y314547D01*
X155783Y314514D01*
X155766Y314489D01*
X155750Y314472D01*
Y314464D01*
X155683Y314364D01*
X155633Y314264D01*
X155541Y314056D01*
X155475Y313847D01*
X155433Y313656D01*
X155425Y313564D01*
X155408Y313481D01*
X155400Y313406D01*
Y313347D01*
X155392Y313297D01*
Y313222D01*
X155408Y312989D01*
X155442Y312781D01*
X155492Y312598D01*
X155550Y312439D01*
X155617Y312314D01*
X155641Y312264D01*
X155666Y312223D01*
X155683Y312189D01*
X155700Y312164D01*
X155716Y312156D01*
Y312148D01*
X155783Y312073D01*
X155850Y311998D01*
X156008Y311864D01*
X156175Y311756D01*
X156341Y311665D01*
X156491Y311590D01*
X156558Y311565D01*
X156616Y311539D01*
X156666Y311523D01*
X156699Y311506D01*
X156725Y311498D01*
X156733D01*
X156533Y310665D01*
X156375Y310715D01*
X156216Y310781D01*
X156075Y310848D01*
X155941Y310923D01*
X155825Y310998D01*
X155708Y311073D01*
X155608Y311148D01*
X155517Y311223D01*
X155433Y311298D01*
X155358Y311365D01*
X155300Y311431D01*
X155250Y311481D01*
X155208Y311523D01*
X155183Y311565D01*
X155167Y311581D01*
X155158Y311590D01*
X155075Y311714D01*
X154992Y311848D01*
X154933Y311981D01*
X154875Y312114D01*
X154825Y312256D01*
X154783Y312389D01*
X154725Y312639D01*
X154708Y312756D01*
X154692Y312864D01*
X154683Y312964D01*
X154675Y313048D01*
X154667Y313114D01*
Y313364D01*
X154683Y313514D01*
X154725Y313806D01*
X154792Y314072D01*
X154825Y314189D01*
X154858Y314305D01*
X154900Y314405D01*
X154933Y314497D01*
X154967Y314572D01*
X155000Y314639D01*
X155025Y314689D01*
X155042Y314730D01*
X155050Y314755D01*
X155058Y314764D01*
X155133Y314889D01*
X155217Y315014D01*
X155400Y315230D01*
X155583Y315422D01*
X155766Y315572D01*
X155858Y315639D01*
X155933Y315697D01*
X156008Y315747D01*
X156066Y315780D01*
X156116Y315813D01*
X156158Y315838D01*
X156183Y315847D01*
X156191Y315855D01*
X156333Y315922D01*
X156483Y315980D01*
X156775Y316072D01*
X157066Y316138D01*
X157208Y316163D01*
X157341Y316180D01*
X157466Y316197D01*
X157574Y316213D01*
X157674Y316222D01*
X157766D01*
X157833Y316230D01*
X157891D01*
X157924D01*
X157933D01*
X158266Y316213D01*
D02*
G37*
G36*
X155617Y306649D02*
X155883Y306866D01*
X156166Y307082D01*
X156450Y307274D01*
X156716Y307441D01*
X156833Y307516D01*
X156949Y307582D01*
X157049Y307640D01*
X157133Y307691D01*
X157199Y307732D01*
X157258Y307757D01*
X157291Y307774D01*
X157299Y307782D01*
X157674Y307965D01*
X158041Y308132D01*
X158391Y308265D01*
X158549Y308332D01*
X158707Y308382D01*
X158849Y308432D01*
X158974Y308474D01*
X159082Y308507D01*
X159182Y308540D01*
X159257Y308557D01*
X159316Y308574D01*
X159349Y308590D01*
X159366D01*
X159565Y308640D01*
X159749Y308682D01*
X159932Y308724D01*
X160099Y308757D01*
X160257Y308782D01*
X160407Y308807D01*
X160548Y308824D01*
X160674Y308840D01*
X160790Y308857D01*
X160890Y308865D01*
X160973Y308874D01*
X161048D01*
X161107Y308882D01*
X161148D01*
X161173D01*
X161182D01*
Y308074D01*
X160832Y308040D01*
X160507Y307999D01*
X160357Y307982D01*
X160207Y307957D01*
X160074Y307924D01*
X159949Y307899D01*
X159832Y307874D01*
X159732Y307857D01*
X159640Y307832D01*
X159565Y307815D01*
X159507Y307799D01*
X159457Y307782D01*
X159432Y307774D01*
X159424D01*
X158999Y307640D01*
X158599Y307491D01*
X158407Y307416D01*
X158224Y307341D01*
X158049Y307266D01*
X157891Y307191D01*
X157741Y307124D01*
X157608Y307057D01*
X157491Y307007D01*
X157391Y306957D01*
X157316Y306916D01*
X157258Y306882D01*
X157216Y306866D01*
X157208Y306857D01*
X157008Y306741D01*
X156825Y306632D01*
X156641Y306524D01*
X156483Y306416D01*
X156325Y306308D01*
X156183Y306208D01*
X156050Y306116D01*
X155933Y306024D01*
X155833Y305941D01*
X155741Y305866D01*
X155658Y305799D01*
X155591Y305749D01*
X155541Y305699D01*
X155508Y305666D01*
X155483Y305649D01*
X155475Y305641D01*
X154858D01*
Y309782D01*
X155617D01*
Y306649D01*
D02*
G37*
%LPC*%
G36*
X148246Y417719D02*
X146121D01*
Y415570D01*
X146138Y415445D01*
X146146Y415336D01*
X146171Y415236D01*
X146188Y415136D01*
X146213Y415053D01*
X146246Y414978D01*
X146271Y414911D01*
X146330Y414795D01*
X146371Y414720D01*
X146405Y414670D01*
X146421Y414653D01*
X146538Y414545D01*
X146663Y414462D01*
X146788Y414403D01*
X146905Y414362D01*
X147013Y414337D01*
X147096Y414328D01*
X147129Y414320D01*
X147155D01*
X147163D01*
X147171D01*
X147288Y414328D01*
X147388Y414345D01*
X147488Y414378D01*
X147571Y414403D01*
X147646Y414436D01*
X147696Y414470D01*
X147738Y414487D01*
X147746Y414495D01*
X147838Y414562D01*
X147921Y414645D01*
X147988Y414728D01*
X148038Y414803D01*
X148079Y414878D01*
X148104Y414936D01*
X148121Y414978D01*
X148129Y414995D01*
X148171Y415128D01*
X148196Y415270D01*
X148221Y415428D01*
X148229Y415570D01*
X148237Y415703D01*
X148246Y415761D01*
Y417719D01*
D02*
G37*
G36*
X147494Y342554D02*
X144603Y340538D01*
X147494D01*
Y342554D01*
D02*
G37*
G36*
X161654Y363790D02*
X161604D01*
X161596D01*
X161587D01*
X161471Y363781D01*
X161362Y363773D01*
X161162Y363731D01*
X160996Y363673D01*
X160846Y363606D01*
X160729Y363540D01*
X160646Y363481D01*
X160621Y363456D01*
X160596Y363440D01*
X160588Y363423D01*
X160579D01*
X160513Y363356D01*
X160454Y363282D01*
X160354Y363131D01*
X160288Y362973D01*
X160246Y362832D01*
X160213Y362715D01*
X160204Y362657D01*
Y362615D01*
X160196Y362573D01*
Y362423D01*
X160213Y362332D01*
X160254Y362157D01*
X160321Y362007D01*
X160387Y361874D01*
X160454Y361773D01*
X160521Y361698D01*
X160562Y361649D01*
X160571Y361632D01*
X160579D01*
X160654Y361565D01*
X160737Y361515D01*
X160904Y361424D01*
X161079Y361357D01*
X161246Y361315D01*
X161396Y361290D01*
X161462Y361282D01*
X161521D01*
X161562Y361274D01*
X161596D01*
X161621D01*
X161629D01*
X161754D01*
X161870Y361290D01*
X162087Y361332D01*
X162279Y361390D01*
X162437Y361449D01*
X162495Y361482D01*
X162554Y361515D01*
X162604Y361549D01*
X162645Y361574D01*
X162679Y361599D01*
X162704Y361615D01*
X162712Y361624D01*
X162720Y361632D01*
X162787Y361698D01*
X162854Y361773D01*
X162953Y361915D01*
X163020Y362057D01*
X163070Y362198D01*
X163095Y362315D01*
X163112Y362407D01*
X163120Y362440D01*
Y362490D01*
X163112Y362615D01*
X163087Y362732D01*
X163062Y362848D01*
X163020Y362940D01*
X162987Y363023D01*
X162962Y363090D01*
X162937Y363123D01*
X162929Y363140D01*
X162845Y363248D01*
X162762Y363348D01*
X162670Y363431D01*
X162579Y363498D01*
X162495Y363548D01*
X162429Y363590D01*
X162387Y363615D01*
X162370Y363623D01*
X162229Y363681D01*
X162087Y363723D01*
X161954Y363748D01*
X161837Y363765D01*
X161737Y363781D01*
X161654Y363790D01*
D02*
G37*
G36*
X95951Y420167D02*
X95901D01*
X95801Y420158D01*
X95701Y420142D01*
X95609Y420117D01*
X95526Y420083D01*
X95367Y420000D01*
X95234Y419908D01*
X95126Y419808D01*
X95051Y419725D01*
X95017Y419692D01*
X95001Y419667D01*
X94984Y419650D01*
Y419642D01*
X94917Y419533D01*
X94859Y419400D01*
X94809Y419258D01*
X94768Y419100D01*
X94734Y418925D01*
X94701Y418750D01*
X94659Y418400D01*
X94643Y418234D01*
X94626Y418067D01*
X94618Y417925D01*
Y417800D01*
X94609Y417692D01*
Y417609D01*
Y417559D01*
Y417551D01*
Y417542D01*
Y417259D01*
X94626Y417001D01*
X94643Y416768D01*
X94668Y416551D01*
X94692Y416359D01*
X94726Y416184D01*
X94759Y416034D01*
X94792Y415901D01*
X94834Y415784D01*
X94867Y415693D01*
X94901Y415609D01*
X94926Y415551D01*
X94951Y415501D01*
X94967Y415468D01*
X94976Y415451D01*
X94984Y415443D01*
X95051Y415351D01*
X95126Y415276D01*
X95201Y415201D01*
X95284Y415143D01*
X95359Y415093D01*
X95434Y415051D01*
X95576Y414993D01*
X95701Y414951D01*
X95759Y414943D01*
X95801Y414935D01*
X95842Y414926D01*
X95892D01*
X95992Y414935D01*
X96084Y414951D01*
X96175Y414976D01*
X96259Y415010D01*
X96417Y415093D01*
X96550Y415185D01*
X96659Y415276D01*
X96734Y415359D01*
X96759Y415393D01*
X96784Y415418D01*
X96792Y415434D01*
X96800Y415443D01*
X96867Y415551D01*
X96917Y415684D01*
X96967Y415826D01*
X97009Y415993D01*
X97050Y416159D01*
X97075Y416334D01*
X97117Y416684D01*
X97134Y416859D01*
X97150Y417017D01*
X97159Y417159D01*
Y417284D01*
X97167Y417392D01*
Y417476D01*
Y417526D01*
Y417534D01*
Y417542D01*
X97159Y417826D01*
X97150Y418084D01*
X97134Y418325D01*
X97100Y418542D01*
X97075Y418742D01*
X97042Y418917D01*
X97000Y419075D01*
X96967Y419208D01*
X96925Y419333D01*
X96892Y419434D01*
X96859Y419517D01*
X96825Y419583D01*
X96800Y419633D01*
X96784Y419675D01*
X96775Y419692D01*
X96767Y419700D01*
X96700Y419783D01*
X96634Y419858D01*
X96567Y419917D01*
X96492Y419967D01*
X96350Y420050D01*
X96209Y420108D01*
X96092Y420142D01*
X95992Y420158D01*
X95951Y420167D01*
D02*
G37*
G36*
X139915Y308774D02*
X139890D01*
X139881D01*
X139873D01*
X139731Y308757D01*
X139598Y308724D01*
X139481Y308682D01*
X139373Y308624D01*
X139298Y308574D01*
X139231Y308524D01*
X139198Y308490D01*
X139181Y308482D01*
X139081Y308365D01*
X139015Y308240D01*
X138965Y308115D01*
X138923Y307999D01*
X138906Y307890D01*
X138898Y307807D01*
X138890Y307774D01*
Y307732D01*
X138906Y307574D01*
X138940Y307432D01*
X138982Y307307D01*
X139040Y307199D01*
X139098Y307107D01*
X139140Y307041D01*
X139173Y307007D01*
X139190Y306991D01*
X139306Y306891D01*
X139423Y306816D01*
X139548Y306766D01*
X139665Y306724D01*
X139765Y306707D01*
X139840Y306699D01*
X139873Y306691D01*
X139898D01*
X139906D01*
X139915D01*
X140064Y306699D01*
X140198Y306732D01*
X140323Y306782D01*
X140423Y306832D01*
X140506Y306891D01*
X140564Y306932D01*
X140598Y306966D01*
X140614Y306982D01*
X140706Y307099D01*
X140781Y307224D01*
X140831Y307349D01*
X140864Y307466D01*
X140881Y307566D01*
X140889Y307649D01*
X140898Y307682D01*
Y307724D01*
X140889Y307890D01*
X140856Y308040D01*
X140806Y308174D01*
X140756Y308282D01*
X140706Y308374D01*
X140656Y308440D01*
X140623Y308474D01*
X140614Y308490D01*
X140498Y308582D01*
X140373Y308657D01*
X140248Y308707D01*
X140131Y308740D01*
X140031Y308757D01*
X139948Y308765D01*
X139915Y308774D01*
D02*
G37*
G36*
X142880Y309032D02*
X142839D01*
X142822D01*
X142722Y309023D01*
X142622Y309015D01*
X142447Y308974D01*
X142289Y308915D01*
X142156Y308849D01*
X142047Y308790D01*
X141972Y308732D01*
X141922Y308690D01*
X141906Y308674D01*
X141839Y308607D01*
X141781Y308532D01*
X141698Y308382D01*
X141631Y308224D01*
X141581Y308082D01*
X141556Y307949D01*
X141547Y307899D01*
Y307849D01*
X141539Y307807D01*
Y307649D01*
X141556Y307549D01*
X141597Y307366D01*
X141656Y307207D01*
X141722Y307066D01*
X141797Y306957D01*
X141856Y306874D01*
X141897Y306824D01*
X141906Y306807D01*
X141914D01*
X141981Y306741D01*
X142056Y306682D01*
X142214Y306591D01*
X142372Y306524D01*
X142522Y306483D01*
X142655Y306449D01*
X142714Y306441D01*
X142755D01*
X142797Y306432D01*
X142830D01*
X142847D01*
X142856D01*
X142956D01*
X143055Y306449D01*
X143230Y306491D01*
X143389Y306549D01*
X143522Y306616D01*
X143630Y306682D01*
X143705Y306741D01*
X143755Y306782D01*
X143764Y306791D01*
X143772Y306799D01*
X143839Y306866D01*
X143889Y306941D01*
X143980Y307099D01*
X144038Y307257D01*
X144088Y307399D01*
X144114Y307532D01*
X144122Y307591D01*
Y307640D01*
X144130Y307674D01*
Y307732D01*
X144122Y307866D01*
X144105Y307990D01*
X144080Y308099D01*
X144047Y308207D01*
X144014Y308290D01*
X143989Y308349D01*
X143972Y308390D01*
X143963Y308407D01*
X143889Y308515D01*
X143814Y308615D01*
X143730Y308699D01*
X143655Y308765D01*
X143589Y308815D01*
X143530Y308849D01*
X143497Y308874D01*
X143480Y308882D01*
X143364Y308932D01*
X143247Y308965D01*
X143130Y308999D01*
X143030Y309015D01*
X142947Y309023D01*
X142880Y309032D01*
D02*
G37*
%LPD*%
D10*
X146030Y363220D02*
G03*
X146030Y363220I-1250J0D01*
G01*
X82530Y393700D02*
G03*
X82530Y393700I-1250J0D01*
G01*
D11*
X106770Y358230D02*
Y401230D01*
Y358230D02*
X149770D01*
X106770Y401230D02*
X149770D01*
Y358230D02*
Y401230D01*
X151820Y405020D02*
Y423020D01*
X142820Y405020D02*
Y423020D01*
Y405020D02*
X151820D01*
X142820Y423020D02*
X151820D01*
X134040Y418450D02*
Y432450D01*
X125040D02*
X134040D01*
X125040Y418450D02*
Y432450D01*
Y418450D02*
X134040D01*
X118730Y406980D02*
Y415980D01*
X132730D01*
Y406980D02*
Y415980D01*
X118730Y406980D02*
X132730D01*
X122610Y418450D02*
Y432450D01*
X113610D02*
X122610D01*
X113610Y418450D02*
Y432450D01*
Y418450D02*
X122610D01*
X115598Y460292D02*
X133322D01*
X115598Y451568D02*
Y460292D01*
Y451568D02*
X133322D01*
Y460292D01*
X133290Y434598D02*
Y449322D01*
X125790D02*
X133290D01*
X125790Y434598D02*
Y449322D01*
Y434598D02*
X133290D01*
X140688Y333808D02*
Y354532D01*
Y333808D02*
X151412D01*
Y354532D01*
X140688D02*
X151412D01*
X161230Y377448D02*
Y392172D01*
X153730D02*
X161230D01*
X153730Y377448D02*
Y392172D01*
Y377448D02*
X161230D01*
X156270Y373122D02*
X163770D01*
Y358398D02*
Y373122D01*
X156270Y358398D02*
X163770D01*
X156270D02*
Y373122D01*
X92850Y422580D02*
X110350D01*
X92850Y413080D02*
Y422580D01*
Y413080D02*
X110350D01*
Y422580D01*
Y424510D02*
Y434010D01*
X92850Y424510D02*
X110350D01*
X92850D02*
Y434010D01*
X110350D01*
X76860Y374840D02*
X95860D01*
X76860Y366840D02*
Y374840D01*
Y366840D02*
X95860D01*
Y374840D01*
X98400Y402400D02*
Y410400D01*
X79400Y402400D02*
X98400D01*
X79400D02*
Y410400D01*
X98400D01*
X77150Y378870D02*
Y398370D01*
X100650D01*
Y378870D02*
Y398370D01*
X77150Y378870D02*
X100650D01*
X107270Y463640D02*
Y499890D01*
X149270D01*
Y463640D02*
Y499890D01*
X107270Y463640D02*
X149270D01*
X136740Y322650D02*
X147740D01*
Y299650D02*
Y322650D01*
X136740Y299650D02*
X147740D01*
X136740D02*
Y322650D01*
X153250Y299650D02*
Y322650D01*
Y299650D02*
X164250D01*
Y322650D01*
X153250D02*
X164250D01*
M02*
