M48
;Layer_Color=9474304
;FILE_FORMAT=4:4
METRIC,LZ
;TYPE=PLATED
T1F00S00C0.3000
;TYPE=NON_PLATED
T2F00S00C1.8000
T3F00S00C3.0000
T4F00S00C4.2500
%
T01
X0008Y0002
Y0006
X0009Y0008
X0011
X001Y001
Y0014
Y0018
Y0022
X0011Y0024
X0012Y0026
X0013Y0028
X0015
X0011
X0009017Y0027178
X0008Y0026
X0006
X0004
X0002
X0005Y0028
X000889Y0032258
Y0034798
X0009Y0036
X000762Y0035941
X0011Y0036
X0010033Y0037465
X0012446Y0037592
X0013208
Y0038354
X0012446
X001524Y0039624
X00161364Y00396499
X0014605Y0036195
X0014Y0034
X0014224Y0032893
X0015748
X001Y0034
X0003Y0036
X0001905Y0038481
X0004Y0018
X0005Y0016
X0007Y0008
X0003
X0005Y0044
X0004Y0046
X0002
X0008
X001
X0011Y0048
X0013
X0015
X0016Y005
X0014
X0012
X001
X0011Y0052
X0013
X0015
X0017
X0019
X0014Y0054
X0012
X001
X0008
X0009Y0056
X0011
X0013
X0014Y0058
X0012
X001
X0011Y006
X0013
X0015
X0017
X0019
X0018Y0062
X0016
X0014
X0012
X001
X0011Y0064
X0013
X0015
X0017
X0009
Y006
Y0052
Y0048
Y0044
X001Y0042
X0013843Y0040767
X0016129Y0040259
X0016Y0046
X0004Y0054
X0002
T02
X00045Y001064
Y005636
T03
X0017Y0056
T04
X00045Y00045
Y00625
M30
