G04*
G04 #@! TF.GenerationSoftware,Altium Limited,Altium Designer,23.0.1 (38)*
G04*
G04 Layer_Physical_Order=2*
G04 Layer_Color=16711680*
%FSLAX44Y44*%
%MOMM*%
G71*
G04*
G04 #@! TF.SameCoordinates,34A72795-73FE-4812-8059-925B3A141BCA*
G04*
G04*
G04 #@! TF.FilePolarity,Positive*
G04*
G01*
G75*
%ADD11C,0.2000*%
%ADD12C,0.2540*%
%ADD15C,1.0200*%
%ADD16C,1.8000*%
%ADD19C,0.5000*%
%ADD20C,3.8000*%
%ADD21C,4.0000*%
%ADD22C,0.6000*%
%ADD23R,1.6000X1.5500*%
%ADD24O,0.7000X0.2500*%
%ADD25O,0.2500X0.7000*%
%ADD26R,0.5500X0.2500*%
%ADD27R,1.0500X2.2000*%
%ADD28R,1.0000X1.0500*%
%ADD29R,0.6000X0.5000*%
%ADD30R,0.7154X0.6725*%
%ADD31R,0.4725X0.5153*%
%ADD32R,0.7000X0.7000*%
%ADD33R,0.7200X0.7600*%
%ADD34R,0.5500X0.6000*%
%ADD35R,0.7500X0.6500*%
%ADD36R,0.5000X0.5000*%
%ADD37C,0.5632*%
%ADD38C,0.1500*%
G36*
X170000Y667410D02*
X170730D01*
X172162Y667126D01*
X173510Y666567D01*
X174724Y665756D01*
X175756Y664724D01*
X176567Y663510D01*
X177126Y662161D01*
X177410Y660730D01*
X177410Y660000D01*
Y634142D01*
X177423Y634079D01*
X177414Y634015D01*
X177462Y633035D01*
X177508Y632849D01*
Y632657D01*
X177891Y630734D01*
X177988Y630498D01*
X178038Y630248D01*
X178788Y628437D01*
X178930Y628225D01*
X179028Y627989D01*
X180117Y626359D01*
X180252Y626224D01*
X180351Y626059D01*
X181010Y625332D01*
X181062Y625294D01*
X181098Y625240D01*
X205240Y601098D01*
X205756Y600582D01*
X206567Y599368D01*
X207126Y598019D01*
X207410Y596588D01*
X207410Y595858D01*
X207410Y534142D01*
X207410Y533412D01*
X207126Y531981D01*
X206567Y530632D01*
X205756Y529418D01*
X205240Y528902D01*
X205240Y528902D01*
X171098Y494760D01*
X171062Y494706D01*
X171010Y494668D01*
X170351Y493941D01*
X170252Y493776D01*
X170117Y493641D01*
X169028Y492010D01*
X168930Y491775D01*
X168788Y491563D01*
X168038Y489752D01*
X167988Y489502D01*
X167891Y489266D01*
X167508Y487343D01*
Y487151D01*
X167462Y486965D01*
X167414Y485985D01*
X167423Y485921D01*
X167410Y485858D01*
Y397415D01*
X166140Y396889D01*
X165602Y397427D01*
X165171Y398467D01*
Y400801D01*
X165560Y401741D01*
Y403439D01*
X165040Y404696D01*
X164910Y405009D01*
X164719Y405238D01*
X164350Y405680D01*
X164350D01*
X164350Y405680D01*
Y414940D01*
X164890D01*
Y420010D01*
X158750D01*
Y421280D01*
X157480D01*
Y427620D01*
X152610D01*
Y425080D01*
X152610Y423810D01*
X148590D01*
Y418270D01*
X147320D01*
Y417000D01*
X142030D01*
Y412730D01*
X142570D01*
Y404770D01*
X142650D01*
Y401628D01*
X141380Y401503D01*
X141331Y401748D01*
X140613Y402823D01*
X139671Y403452D01*
X139497Y403780D01*
X139305Y404883D01*
X140261Y405839D01*
X140823Y406679D01*
X141020Y407670D01*
X140823Y408661D01*
X140261Y409501D01*
X139421Y410063D01*
X138430Y410260D01*
X137439Y410063D01*
X136599Y409501D01*
X135903Y408806D01*
X134730Y409292D01*
Y411500D01*
X135270D01*
Y414020D01*
X129980D01*
Y416560D01*
X135270D01*
Y419080D01*
X134730D01*
Y423540D01*
X133706D01*
Y430900D01*
X135270D01*
Y439860D01*
X141750D01*
Y452130D01*
X135230D01*
Y445400D01*
X121310D01*
Y452130D01*
X114790D01*
Y439860D01*
X121270D01*
Y430900D01*
X125374D01*
Y423540D01*
X116730D01*
Y417880D01*
X115570D01*
X114579Y417683D01*
X114260Y417469D01*
X112990Y418113D01*
Y419020D01*
X107950D01*
X102910D01*
Y415250D01*
X102910D01*
X103450Y414790D01*
Y405790D01*
X108787D01*
X114956Y399621D01*
Y395980D01*
X115209Y394712D01*
X115927Y393637D01*
X117002Y392919D01*
X118270Y392666D01*
X119538Y392919D01*
X119774Y393076D01*
X120770Y393561D01*
X121766Y393076D01*
X122002Y392919D01*
X123270Y392666D01*
X124538Y392919D01*
X124774Y393076D01*
X125770Y393561D01*
X126766Y393076D01*
X127002Y392919D01*
X128270Y392666D01*
X129538Y392919D01*
X130147Y393325D01*
X130538Y393247D01*
X131791Y392410D01*
X132000Y392368D01*
Y398230D01*
X134540D01*
Y392368D01*
X134749Y392410D01*
X135605Y392982D01*
X135877Y392869D01*
X136439Y392029D01*
X137110Y391357D01*
Y389480D01*
X118270D01*
Y375194D01*
X117097Y374708D01*
X115264Y376541D01*
X115180Y376597D01*
X114752Y376998D01*
X115590Y378251D01*
X115632Y378460D01*
X109770D01*
Y381000D01*
X115632D01*
X115590Y381209D01*
X114753Y382462D01*
X114675Y382853D01*
X115081Y383462D01*
X115334Y384730D01*
X115081Y385998D01*
X114363Y387073D01*
Y387387D01*
X115081Y388462D01*
X115334Y389730D01*
X115081Y390998D01*
X114363Y392073D01*
X113288Y392791D01*
X112020Y393044D01*
X111036D01*
X110885Y393798D01*
X110324Y394638D01*
X99400Y405563D01*
Y410900D01*
X89986D01*
X88940Y411440D01*
X88940Y411440D01*
X88940Y411440D01*
X84670D01*
Y406400D01*
Y401360D01*
X85318D01*
X85804Y400187D01*
X84487Y398870D01*
X76650D01*
Y389410D01*
X76110D01*
Y384890D01*
X82400D01*
Y383620D01*
X83670D01*
Y377830D01*
X88627D01*
X89541Y376913D01*
X89467Y376802D01*
X89270Y375811D01*
X88799Y375340D01*
X87446Y375340D01*
X86400Y375880D01*
X85814Y375880D01*
X82130D01*
Y370840D01*
Y365800D01*
X86400D01*
X87446Y366340D01*
X87670Y366340D01*
X96860D01*
Y373061D01*
X98130Y373371D01*
X98499Y372819D01*
X99339Y372257D01*
X100330Y372060D01*
X101321Y372257D01*
X102161Y372819D01*
X103104Y373762D01*
X104397Y373475D01*
X104515Y373377D01*
X105177Y372387D01*
Y372073D01*
X104459Y370998D01*
X104206Y369730D01*
X104459Y368462D01*
X105177Y367387D01*
X106252Y366669D01*
X107520Y366416D01*
X112020D01*
X113288Y366669D01*
X114363Y367387D01*
X114574Y367702D01*
X115920Y367878D01*
X116418Y367380D01*
X116242Y366034D01*
X115927Y365823D01*
X115209Y364748D01*
X114956Y363480D01*
Y358980D01*
X115209Y357712D01*
X115927Y356637D01*
X115955Y356618D01*
Y354179D01*
X112071Y350294D01*
X92563D01*
X92520Y350399D01*
X91319Y351600D01*
X89749Y352250D01*
X88051D01*
X86481Y351600D01*
X85280Y350399D01*
X84630Y348829D01*
Y347131D01*
X85280Y345561D01*
X86481Y344360D01*
X88051Y343710D01*
X89749D01*
X91319Y344360D01*
X92520Y345561D01*
X92563Y345666D01*
X111996D01*
X112522Y344395D01*
X93652Y325526D01*
X92520Y324999D01*
X91319Y326200D01*
X89749Y326850D01*
X88051D01*
X86481Y326200D01*
X85280Y324999D01*
X84630Y323429D01*
Y321731D01*
X85280Y320161D01*
X86481Y318960D01*
X87485Y318545D01*
X87232Y317274D01*
X84680D01*
X78514Y323440D01*
Y355747D01*
X78619Y355790D01*
X79820Y356991D01*
X80470Y358561D01*
Y360259D01*
X79820Y361829D01*
X78619Y363030D01*
X77049Y363680D01*
X75351D01*
X73781Y363030D01*
X72580Y361829D01*
X71930Y360259D01*
Y358561D01*
X72580Y356991D01*
X73781Y355790D01*
X73885Y355747D01*
Y322482D01*
X74062Y321596D01*
X74563Y320845D01*
X82085Y313323D01*
X82836Y312822D01*
X82601Y311573D01*
X58406D01*
X54711Y315269D01*
X55430Y316345D01*
X56433Y315930D01*
X58967D01*
X61308Y316900D01*
X63100Y318692D01*
X64070Y321033D01*
Y323567D01*
X63100Y325908D01*
X61308Y327700D01*
X58967Y328670D01*
X56433D01*
X54092Y327700D01*
X52300Y325908D01*
X51330Y323567D01*
Y321033D01*
X51745Y320030D01*
X50669Y319311D01*
X46764Y323215D01*
Y378558D01*
X46588Y379444D01*
X46087Y380195D01*
X39835Y386447D01*
X39084Y386948D01*
X38198Y387124D01*
X22713D01*
X22670Y387229D01*
X21469Y388430D01*
X19899Y389080D01*
X18201D01*
X16631Y388430D01*
X15430Y387229D01*
X14780Y385659D01*
Y383961D01*
X15430Y382391D01*
X16631Y381190D01*
X18201Y380540D01*
X19899D01*
X21469Y381190D01*
X22670Y382391D01*
X22713Y382495D01*
X37240D01*
X42136Y377600D01*
Y322256D01*
X42312Y321371D01*
X42813Y320620D01*
X55811Y307622D01*
X56562Y307121D01*
X57447Y306945D01*
X89908D01*
X90794Y307121D01*
X91544Y307622D01*
X91762Y307840D01*
X92935Y307354D01*
Y276631D01*
X91665Y275782D01*
X91019Y276050D01*
X89321D01*
X87751Y275400D01*
X86550Y274199D01*
X85900Y272629D01*
Y270931D01*
X86550Y269361D01*
X87751Y268160D01*
X89321Y267510D01*
X91019D01*
X92589Y268160D01*
X93790Y269361D01*
X94211Y270377D01*
X94361Y270407D01*
X95112Y270909D01*
X96887Y272683D01*
X97388Y273434D01*
X97564Y274320D01*
Y308921D01*
X137784Y349141D01*
X138958Y348655D01*
Y343348D01*
X143804D01*
Y349250D01*
X146344D01*
Y343348D01*
X151191D01*
Y343888D01*
X160222D01*
Y354612D01*
X156130D01*
Y356858D01*
X158750D01*
Y361974D01*
X160020D01*
Y363244D01*
X164922D01*
Y367091D01*
X164382D01*
Y374122D01*
X164382Y374122D01*
X164382D01*
X164787Y375251D01*
X166140Y376604D01*
X167410Y376078D01*
X167410Y80000D01*
X167410Y79270D01*
X167125Y77839D01*
X166567Y76490D01*
X165756Y75276D01*
X164724Y74244D01*
X163510Y73433D01*
X162162Y72874D01*
X160730Y72590D01*
X160000D01*
X100000Y72590D01*
X99937Y72577D01*
X99873Y72586D01*
X98893Y72538D01*
X98707Y72492D01*
X98515D01*
X96592Y72109D01*
X96356Y72012D01*
X96106Y71962D01*
X94295Y71212D01*
X94083Y71070D01*
X93847Y70972D01*
X92217Y69883D01*
X92037Y69703D01*
X91825Y69561D01*
X90439Y68175D01*
X90297Y67963D01*
X90117Y67783D01*
X89028Y66153D01*
X88930Y65917D01*
X88788Y65705D01*
X88038Y63894D01*
X87988Y63644D01*
X87891Y63408D01*
X87508Y61485D01*
Y61293D01*
X87462Y61107D01*
X87414Y60127D01*
X87423Y60063D01*
X87410Y60000D01*
X87410Y9270D01*
X87126Y7838D01*
X86567Y6490D01*
X85756Y5276D01*
X84724Y4244D01*
X83510Y3433D01*
X82162Y2874D01*
X80730Y2590D01*
X2590D01*
Y646427D01*
X23573Y667410D01*
X170000Y667410D01*
D02*
G37*
%LPC*%
G36*
X45000Y657505D02*
X39915Y657105D01*
X34955Y655914D01*
X30243Y653962D01*
X25894Y651297D01*
X22015Y647985D01*
X18703Y644106D01*
X16038Y639757D01*
X14086Y635045D01*
X12895Y630085D01*
X12495Y625000D01*
X12895Y619915D01*
X14086Y614955D01*
X16038Y610243D01*
X18703Y605894D01*
X22015Y602015D01*
X25894Y598703D01*
X30243Y596038D01*
X34955Y594086D01*
X39915Y592895D01*
X45000Y592495D01*
X50085Y592895D01*
X55045Y594086D01*
X59757Y596038D01*
X64106Y598703D01*
X67985Y602015D01*
X71297Y605894D01*
X73962Y610243D01*
X75914Y614955D01*
X77105Y619915D01*
X77505Y625000D01*
X77105Y630085D01*
X75914Y635045D01*
X73962Y639757D01*
X71297Y644106D01*
X67985Y647985D01*
X64106Y651297D01*
X59757Y653962D01*
X55045Y655914D01*
X50085Y657105D01*
X45000Y657505D01*
D02*
G37*
G36*
X58967Y582670D02*
X56433D01*
X54092Y581700D01*
X52300Y579908D01*
X51330Y577567D01*
Y575033D01*
X51491Y574644D01*
X50483Y573760D01*
X49454Y574353D01*
X46519Y575140D01*
X43481D01*
X40546Y574353D01*
X39517Y573760D01*
X38509Y574644D01*
X38670Y575033D01*
Y577567D01*
X37700Y579908D01*
X35908Y581700D01*
X33567Y582670D01*
X31033D01*
X28692Y581700D01*
X26900Y579908D01*
X25930Y577567D01*
Y575033D01*
X26900Y572692D01*
X28692Y570900D01*
X31033Y569930D01*
X33567D01*
X33956Y570091D01*
X34840Y569083D01*
X34246Y568054D01*
X33460Y565119D01*
Y562081D01*
X34246Y559146D01*
X34840Y558117D01*
X33956Y557109D01*
X33567Y557270D01*
X31033D01*
X28692Y556300D01*
X26900Y554508D01*
X25930Y552167D01*
Y549633D01*
X26900Y547292D01*
X28692Y545500D01*
X31033Y544530D01*
X33567D01*
X35908Y545500D01*
X37700Y547292D01*
X38670Y549633D01*
Y552167D01*
X38509Y552556D01*
X39517Y553440D01*
X40546Y552846D01*
X43481Y552060D01*
X46519D01*
X49454Y552846D01*
X50483Y553440D01*
X51491Y552556D01*
X51330Y552167D01*
Y549633D01*
X52300Y547292D01*
X54092Y545500D01*
X56433Y544530D01*
X58967D01*
X61308Y545500D01*
X63100Y547292D01*
X64070Y549633D01*
Y552167D01*
X63100Y554508D01*
X61308Y556300D01*
X58967Y557270D01*
X56433D01*
X56044Y557109D01*
X55160Y558117D01*
X55754Y559146D01*
X56540Y562081D01*
Y565119D01*
X55754Y568054D01*
X55160Y569083D01*
X56044Y570091D01*
X56433Y569930D01*
X58967D01*
X61308Y570900D01*
X63100Y572692D01*
X64070Y575033D01*
Y577567D01*
X63100Y579908D01*
X61308Y581700D01*
X58967Y582670D01*
D02*
G37*
G36*
X170000Y587490D02*
X165700Y587151D01*
X161505Y586144D01*
X157520Y584493D01*
X153842Y582240D01*
X150562Y579438D01*
X147760Y576158D01*
X145506Y572480D01*
X143856Y568495D01*
X142849Y564300D01*
X142510Y560000D01*
X142849Y555700D01*
X143856Y551505D01*
X145506Y547520D01*
X147760Y543842D01*
X150562Y540562D01*
X153842Y537760D01*
X157520Y535507D01*
X161505Y533856D01*
X165700Y532849D01*
X170000Y532510D01*
X174300Y532849D01*
X178495Y533856D01*
X182480Y535507D01*
X186158Y537760D01*
X189438Y540562D01*
X192240Y543842D01*
X194494Y547520D01*
X196144Y551505D01*
X197151Y555700D01*
X197490Y560000D01*
X197151Y564300D01*
X196144Y568495D01*
X194494Y572480D01*
X192240Y576158D01*
X189438Y579438D01*
X186158Y582240D01*
X182480Y584493D01*
X178495Y586144D01*
X174300Y587151D01*
X170000Y587490D01*
D02*
G37*
G36*
X58967Y531870D02*
X56433D01*
X54092Y530900D01*
X52300Y529108D01*
X51330Y526767D01*
Y524233D01*
X52300Y521892D01*
X54092Y520100D01*
X56433Y519130D01*
X58967D01*
X61308Y520100D01*
X63100Y521892D01*
X64070Y524233D01*
Y526767D01*
X63100Y529108D01*
X61308Y530900D01*
X58967Y531870D01*
D02*
G37*
G36*
X33567D02*
X31033D01*
X28692Y530900D01*
X26900Y529108D01*
X25930Y526767D01*
Y524233D01*
X26900Y521892D01*
X28692Y520100D01*
X31033Y519130D01*
X33567D01*
X35908Y520100D01*
X37700Y521892D01*
X38670Y524233D01*
Y526767D01*
X37700Y529108D01*
X35908Y530900D01*
X33567Y531870D01*
D02*
G37*
G36*
X58967Y506470D02*
X56433D01*
X54092Y505500D01*
X52300Y503708D01*
X51330Y501367D01*
Y498833D01*
X52300Y496492D01*
X54092Y494700D01*
X56433Y493730D01*
X58967D01*
X61308Y494700D01*
X63100Y496492D01*
X64070Y498833D01*
Y501367D01*
X63100Y503708D01*
X61308Y505500D01*
X58967Y506470D01*
D02*
G37*
G36*
X33567D02*
X31033D01*
X28692Y505500D01*
X26900Y503708D01*
X25930Y501367D01*
Y498833D01*
X26900Y496492D01*
X28692Y494700D01*
X31033Y493730D01*
X33567D01*
X35908Y494700D01*
X37700Y496492D01*
X38670Y498833D01*
Y501367D01*
X37700Y503708D01*
X35908Y505500D01*
X33567Y506470D01*
D02*
G37*
G36*
X58967Y481070D02*
X56433D01*
X54092Y480100D01*
X52300Y478308D01*
X51330Y475967D01*
Y473433D01*
X52300Y471092D01*
X54092Y469300D01*
X56433Y468330D01*
X58967D01*
X61308Y469300D01*
X63100Y471092D01*
X64070Y473433D01*
Y475967D01*
X63100Y478308D01*
X61308Y480100D01*
X58967Y481070D01*
D02*
G37*
G36*
X33567D02*
X31033D01*
X28692Y480100D01*
X26900Y478308D01*
X25930Y475967D01*
Y473433D01*
X26900Y471092D01*
X28692Y469300D01*
X31033Y468330D01*
X33567D01*
X35908Y469300D01*
X37700Y471092D01*
X38670Y473433D01*
Y475967D01*
X37700Y478308D01*
X35908Y480100D01*
X33567Y481070D01*
D02*
G37*
G36*
X150810Y466940D02*
X144290D01*
Y454670D01*
X150810D01*
Y466940D01*
D02*
G37*
G36*
X141750D02*
X135230D01*
Y454670D01*
X141750D01*
Y466940D01*
D02*
G37*
G36*
X121310D02*
X114790D01*
Y454670D01*
X121310D01*
Y466940D01*
D02*
G37*
G36*
X112250D02*
X105730D01*
Y454670D01*
X112250D01*
Y466940D01*
D02*
G37*
G36*
X58967Y455670D02*
X56433D01*
X54092Y454700D01*
X52300Y452908D01*
X51330Y450567D01*
Y448033D01*
X52300Y445692D01*
X54092Y443900D01*
X56433Y442930D01*
X58967D01*
X61308Y443900D01*
X63100Y445692D01*
X64070Y448033D01*
Y450567D01*
X63100Y452908D01*
X61308Y454700D01*
X58967Y455670D01*
D02*
G37*
G36*
X33567D02*
X31033D01*
X28692Y454700D01*
X26900Y452908D01*
X25930Y450567D01*
Y448033D01*
X26900Y445692D01*
X28692Y443900D01*
X31033Y442930D01*
X33567D01*
X35908Y443900D01*
X37700Y445692D01*
X38670Y448033D01*
Y450567D01*
X37700Y452908D01*
X35908Y454700D01*
X33567Y455670D01*
D02*
G37*
G36*
X150810Y452130D02*
X144290D01*
Y439860D01*
X150810D01*
Y452130D01*
D02*
G37*
G36*
X112250D02*
X105730D01*
Y439860D01*
X112250D01*
Y452130D01*
D02*
G37*
G36*
X164890Y427620D02*
X160020D01*
Y422550D01*
X164890D01*
Y427620D01*
D02*
G37*
G36*
X112990Y425330D02*
X109220D01*
Y421560D01*
X112990D01*
Y425330D01*
D02*
G37*
G36*
X106680D02*
X102910D01*
Y421560D01*
X106680D01*
Y425330D01*
D02*
G37*
G36*
X146050Y423810D02*
X142030D01*
Y419540D01*
X146050D01*
Y423810D01*
D02*
G37*
G36*
X58967Y430270D02*
X56433D01*
X54092Y429300D01*
X52300Y427508D01*
X51330Y425167D01*
Y422633D01*
X52300Y420292D01*
X54092Y418500D01*
X56433Y417530D01*
X58967D01*
X61308Y418500D01*
X63100Y420292D01*
X64070Y422633D01*
Y425167D01*
X63100Y427508D01*
X61308Y429300D01*
X58967Y430270D01*
D02*
G37*
G36*
X33567D02*
X31033D01*
X28692Y429300D01*
X26900Y427508D01*
X25930Y425167D01*
Y422633D01*
X26900Y420292D01*
X28692Y418500D01*
X31033Y417530D01*
X33567D01*
X35908Y418500D01*
X37700Y420292D01*
X38670Y422633D01*
Y425167D01*
X37700Y427508D01*
X35908Y429300D01*
X33567Y430270D01*
D02*
G37*
G36*
X82130Y411440D02*
X77860D01*
Y407670D01*
X82130D01*
Y411440D01*
D02*
G37*
G36*
Y405130D02*
X77860D01*
Y401360D01*
X82130D01*
Y405130D01*
D02*
G37*
G36*
X58967Y404870D02*
X56433D01*
X54092Y403900D01*
X52300Y402108D01*
X51330Y399767D01*
Y397233D01*
X52300Y394892D01*
X54092Y393100D01*
X56433Y392130D01*
X58967D01*
X61308Y393100D01*
X63100Y394892D01*
X64070Y397233D01*
Y399767D01*
X63100Y402108D01*
X61308Y403900D01*
X58967Y404870D01*
D02*
G37*
G36*
X33567D02*
X31033D01*
X28692Y403900D01*
X26900Y402108D01*
X25930Y399767D01*
Y397233D01*
X26900Y394892D01*
X28692Y393100D01*
X31033Y392130D01*
X33567D01*
X35908Y393100D01*
X37700Y394892D01*
X38670Y397233D01*
Y399767D01*
X37700Y402108D01*
X35908Y403900D01*
X33567Y404870D01*
D02*
G37*
G36*
X81130Y382350D02*
X76110D01*
Y377830D01*
X81130D01*
Y382350D01*
D02*
G37*
G36*
X79590Y375880D02*
X75320D01*
Y372110D01*
X79590D01*
Y375880D01*
D02*
G37*
G36*
X58967Y379470D02*
X56433D01*
X54092Y378500D01*
X52300Y376708D01*
X51330Y374367D01*
Y371833D01*
X52300Y369492D01*
X54092Y367700D01*
X56433Y366730D01*
X58967D01*
X61308Y367700D01*
X63100Y369492D01*
X64070Y371833D01*
Y374367D01*
X63100Y376708D01*
X61308Y378500D01*
X58967Y379470D01*
D02*
G37*
G36*
X33567D02*
X31033D01*
X28692Y378500D01*
X26900Y376708D01*
X25930Y374367D01*
Y371833D01*
X26900Y369492D01*
X28692Y367700D01*
X31033Y366730D01*
X33567D01*
X35908Y367700D01*
X37700Y369492D01*
X38670Y371833D01*
Y374367D01*
X37700Y376708D01*
X35908Y378500D01*
X33567Y379470D01*
D02*
G37*
G36*
X79590Y369570D02*
X75320D01*
Y365800D01*
X79590D01*
Y369570D01*
D02*
G37*
G36*
X164922Y360704D02*
X161290D01*
Y356858D01*
X164922D01*
Y360704D01*
D02*
G37*
G36*
X58967Y354070D02*
X56433D01*
X54092Y353100D01*
X52300Y351308D01*
X51330Y348967D01*
Y346433D01*
X52300Y344092D01*
X54092Y342300D01*
X56433Y341330D01*
X58967D01*
X61308Y342300D01*
X63100Y344092D01*
X64070Y346433D01*
Y348967D01*
X63100Y351308D01*
X61308Y353100D01*
X58967Y354070D01*
D02*
G37*
G36*
X33567D02*
X31033D01*
X28692Y353100D01*
X26900Y351308D01*
X25930Y348967D01*
Y346433D01*
X26900Y344092D01*
X28692Y342300D01*
X31033Y341330D01*
X33567D01*
X35908Y342300D01*
X37700Y344092D01*
X38670Y346433D01*
Y348967D01*
X37700Y351308D01*
X35908Y353100D01*
X33567Y354070D01*
D02*
G37*
G36*
Y328670D02*
X31033D01*
X28692Y327700D01*
X26900Y325908D01*
X25930Y323567D01*
Y321033D01*
X26900Y318692D01*
X28692Y316900D01*
X31033Y315930D01*
X33567D01*
X35908Y316900D01*
X37700Y318692D01*
X38670Y321033D01*
Y323567D01*
X37700Y325908D01*
X35908Y327700D01*
X33567Y328670D01*
D02*
G37*
G36*
X158329Y333200D02*
X156631D01*
X155061Y332550D01*
X153860Y331349D01*
X153210Y329779D01*
Y328081D01*
X153860Y326511D01*
X154906Y325465D01*
Y323650D01*
X153250D01*
Y312650D01*
X164250D01*
Y323650D01*
X162594D01*
Y327389D01*
X162594Y327389D01*
X162301Y328860D01*
X161750Y329685D01*
Y329779D01*
X161100Y331349D01*
X159899Y332550D01*
X158329Y333200D01*
D02*
G37*
G36*
X143089D02*
X141391D01*
X139821Y332550D01*
X138620Y331349D01*
X137970Y329779D01*
Y328081D01*
X138396Y327052D01*
Y323650D01*
X136740D01*
Y312650D01*
X147740D01*
Y323650D01*
X146084D01*
Y327052D01*
X146510Y328081D01*
Y329779D01*
X145860Y331349D01*
X144659Y332550D01*
X143089Y333200D01*
D02*
G37*
G36*
X164790Y310190D02*
X160020D01*
Y305420D01*
X164790D01*
Y310190D01*
D02*
G37*
G36*
X148280D02*
X143510D01*
Y305420D01*
X148280D01*
Y310190D01*
D02*
G37*
G36*
X157480D02*
X152710D01*
Y305420D01*
X157480D01*
Y310190D01*
D02*
G37*
G36*
X140970D02*
X136200D01*
Y305420D01*
X140970D01*
Y310190D01*
D02*
G37*
G36*
X164790Y302880D02*
X160020D01*
Y298110D01*
X164790D01*
Y302880D01*
D02*
G37*
G36*
X157480D02*
X152710D01*
Y298110D01*
X157480D01*
Y302880D01*
D02*
G37*
G36*
X148280D02*
X143510D01*
Y298110D01*
X148280D01*
Y302880D01*
D02*
G37*
G36*
X140970D02*
X136200D01*
Y298110D01*
X140970D01*
Y302880D01*
D02*
G37*
G36*
X58967Y303270D02*
X56433D01*
X54092Y302300D01*
X52300Y300508D01*
X51330Y298167D01*
Y295633D01*
X52300Y293292D01*
X54092Y291500D01*
X56433Y290530D01*
X58967D01*
X61308Y291500D01*
X63100Y293292D01*
X64070Y295633D01*
Y298167D01*
X63100Y300508D01*
X61308Y302300D01*
X58967Y303270D01*
D02*
G37*
G36*
X33567D02*
X31033D01*
X28692Y302300D01*
X26900Y300508D01*
X25930Y298167D01*
Y295633D01*
X26900Y293292D01*
X28692Y291500D01*
X31033Y290530D01*
X33567D01*
X35908Y291500D01*
X37700Y293292D01*
X38670Y295633D01*
Y298167D01*
X37700Y300508D01*
X35908Y302300D01*
X33567Y303270D01*
D02*
G37*
G36*
X58967Y277870D02*
X56433D01*
X54092Y276900D01*
X52300Y275108D01*
X51330Y272767D01*
Y270233D01*
X52300Y267892D01*
X54092Y266100D01*
X56433Y265130D01*
X58967D01*
X61308Y266100D01*
X63100Y267892D01*
X64070Y270233D01*
Y272767D01*
X63100Y275108D01*
X61308Y276900D01*
X58967Y277870D01*
D02*
G37*
G36*
X33567D02*
X31033D01*
X28692Y276900D01*
X26900Y275108D01*
X25930Y272767D01*
Y270233D01*
X26900Y267892D01*
X28692Y266100D01*
X31033Y265130D01*
X33567D01*
X35908Y266100D01*
X37700Y267892D01*
X38670Y270233D01*
Y272767D01*
X37700Y275108D01*
X35908Y276900D01*
X33567Y277870D01*
D02*
G37*
G36*
X58967Y252470D02*
X56433D01*
X54092Y251500D01*
X52300Y249708D01*
X51330Y247367D01*
Y244833D01*
X52300Y242492D01*
X54092Y240700D01*
X56433Y239730D01*
X58967D01*
X61308Y240700D01*
X63100Y242492D01*
X64070Y244833D01*
Y247367D01*
X63100Y249708D01*
X61308Y251500D01*
X58967Y252470D01*
D02*
G37*
G36*
X33567D02*
X31033D01*
X28692Y251500D01*
X26900Y249708D01*
X25930Y247367D01*
Y244833D01*
X26900Y242492D01*
X28692Y240700D01*
X31033Y239730D01*
X33567D01*
X35908Y240700D01*
X37700Y242492D01*
X38670Y244833D01*
Y247367D01*
X37700Y249708D01*
X35908Y251500D01*
X33567Y252470D01*
D02*
G37*
G36*
X58967Y227070D02*
X56433D01*
X54092Y226100D01*
X52300Y224308D01*
X51330Y221967D01*
Y219433D01*
X52300Y217092D01*
X54092Y215300D01*
X56433Y214330D01*
X58967D01*
X61308Y215300D01*
X63100Y217092D01*
X64070Y219433D01*
Y221967D01*
X63100Y224308D01*
X61308Y226100D01*
X58967Y227070D01*
D02*
G37*
G36*
X33567D02*
X31033D01*
X28692Y226100D01*
X26900Y224308D01*
X25930Y221967D01*
Y219433D01*
X26900Y217092D01*
X28692Y215300D01*
X31033Y214330D01*
X33567D01*
X35908Y215300D01*
X37700Y217092D01*
X38670Y219433D01*
Y221967D01*
X37700Y224308D01*
X35908Y226100D01*
X33567Y227070D01*
D02*
G37*
G36*
X58967Y201670D02*
X56433D01*
X54092Y200700D01*
X52300Y198908D01*
X51330Y196567D01*
Y194033D01*
X52300Y191692D01*
X54092Y189900D01*
X56433Y188930D01*
X58967D01*
X61308Y189900D01*
X63100Y191692D01*
X64070Y194033D01*
Y196567D01*
X63100Y198908D01*
X61308Y200700D01*
X58967Y201670D01*
D02*
G37*
G36*
X33567D02*
X31033D01*
X28692Y200700D01*
X26900Y198908D01*
X25930Y196567D01*
Y194033D01*
X26900Y191692D01*
X28692Y189900D01*
X31033Y188930D01*
X33567D01*
X35908Y189900D01*
X37700Y191692D01*
X38670Y194033D01*
Y196567D01*
X37700Y198908D01*
X35908Y200700D01*
X33567Y201670D01*
D02*
G37*
G36*
X58967Y176270D02*
X56433D01*
X54092Y175300D01*
X52300Y173508D01*
X51330Y171167D01*
Y168633D01*
X52300Y166292D01*
X54092Y164500D01*
X56433Y163530D01*
X58967D01*
X61308Y164500D01*
X63100Y166292D01*
X64070Y168633D01*
Y171167D01*
X63100Y173508D01*
X61308Y175300D01*
X58967Y176270D01*
D02*
G37*
G36*
X33567D02*
X31033D01*
X28692Y175300D01*
X26900Y173508D01*
X25930Y171167D01*
Y168633D01*
X26900Y166292D01*
X28692Y164500D01*
X31033Y163530D01*
X33567D01*
X35908Y164500D01*
X37700Y166292D01*
X38670Y168633D01*
Y171167D01*
X37700Y173508D01*
X35908Y175300D01*
X33567Y176270D01*
D02*
G37*
G36*
X58967Y150870D02*
X56433D01*
X54092Y149900D01*
X52300Y148108D01*
X51330Y145767D01*
Y143233D01*
X52300Y140892D01*
X54092Y139100D01*
X56433Y138130D01*
X58967D01*
X61308Y139100D01*
X63100Y140892D01*
X64070Y143233D01*
Y145767D01*
X63100Y148108D01*
X61308Y149900D01*
X58967Y150870D01*
D02*
G37*
G36*
X33567D02*
X31033D01*
X28692Y149900D01*
X26900Y148108D01*
X25930Y145767D01*
Y143233D01*
X26900Y140892D01*
X28692Y139100D01*
X31033Y138130D01*
X33567D01*
X35908Y139100D01*
X37700Y140892D01*
X38670Y143233D01*
Y145767D01*
X37700Y148108D01*
X35908Y149900D01*
X33567Y150870D01*
D02*
G37*
G36*
X58967Y125470D02*
X56433D01*
X54092Y124500D01*
X52300Y122708D01*
X51330Y120367D01*
Y117833D01*
X51491Y117444D01*
X50483Y116560D01*
X49454Y117154D01*
X46519Y117940D01*
X43481D01*
X40546Y117154D01*
X39517Y116560D01*
X38509Y117444D01*
X38670Y117833D01*
Y120367D01*
X37700Y122708D01*
X35908Y124500D01*
X33567Y125470D01*
X31033D01*
X28692Y124500D01*
X26900Y122708D01*
X25930Y120367D01*
Y117833D01*
X26900Y115492D01*
X28692Y113700D01*
X31033Y112730D01*
X33567D01*
X33956Y112891D01*
X34840Y111883D01*
X34246Y110854D01*
X33460Y107919D01*
Y104881D01*
X34246Y101946D01*
X34840Y100917D01*
X33956Y99909D01*
X33567Y100070D01*
X31033D01*
X28692Y99100D01*
X26900Y97308D01*
X25930Y94967D01*
Y92433D01*
X26900Y90092D01*
X28692Y88300D01*
X31033Y87330D01*
X33567D01*
X35908Y88300D01*
X37700Y90092D01*
X38670Y92433D01*
Y94967D01*
X38509Y95356D01*
X39517Y96240D01*
X40546Y95646D01*
X43481Y94860D01*
X46519D01*
X49454Y95646D01*
X50483Y96240D01*
X51491Y95356D01*
X51330Y94967D01*
Y92433D01*
X52300Y90092D01*
X54092Y88300D01*
X56433Y87330D01*
X58967D01*
X61308Y88300D01*
X63100Y90092D01*
X64070Y92433D01*
Y94967D01*
X63100Y97308D01*
X61308Y99100D01*
X58967Y100070D01*
X56433D01*
X56044Y99909D01*
X55160Y100917D01*
X55754Y101946D01*
X56540Y104881D01*
Y107919D01*
X55754Y110854D01*
X55160Y111883D01*
X56044Y112891D01*
X56433Y112730D01*
X58967D01*
X61308Y113700D01*
X63100Y115492D01*
X64070Y117833D01*
Y120367D01*
X63100Y122708D01*
X61308Y124500D01*
X58967Y125470D01*
D02*
G37*
G36*
X45000Y77505D02*
X39915Y77105D01*
X34955Y75914D01*
X30243Y73962D01*
X25894Y71297D01*
X22015Y67985D01*
X18703Y64106D01*
X16038Y59757D01*
X14086Y55045D01*
X12895Y50085D01*
X12495Y45000D01*
X12895Y39915D01*
X14086Y34955D01*
X16038Y30243D01*
X18703Y25894D01*
X22015Y22015D01*
X25894Y18703D01*
X30243Y16038D01*
X34955Y14086D01*
X39915Y12895D01*
X45000Y12495D01*
X50085Y12895D01*
X55045Y14086D01*
X59757Y16038D01*
X64106Y18703D01*
X67985Y22015D01*
X71297Y25894D01*
X73962Y30243D01*
X75914Y34955D01*
X77105Y39915D01*
X77505Y45000D01*
X77105Y50085D01*
X75914Y55045D01*
X73962Y59757D01*
X71297Y64106D01*
X67985Y67985D01*
X64106Y71297D01*
X59757Y73962D01*
X55045Y75914D01*
X50085Y77105D01*
X45000Y77505D01*
D02*
G37*
%LPD*%
D11*
X95250Y274320D02*
Y309880D01*
X90935Y272545D02*
X93475D01*
X95250Y274320D01*
X90170Y271780D02*
X90935Y272545D01*
X95250Y309880D02*
X138270Y352900D01*
Y361230D01*
X19050Y384810D02*
X38198D01*
X44450Y378558D01*
Y322256D02*
Y378558D01*
Y322256D02*
X57447Y309259D01*
X89908D01*
X133270Y352621D01*
Y361230D01*
X76200Y322482D02*
Y359410D01*
X83722Y314960D02*
X90984D01*
X76200Y322482D02*
X83722Y314960D01*
X90984D02*
X128270Y352245D01*
Y361230D01*
X88900Y322580D02*
X93980D01*
X123270Y351870D01*
Y361230D01*
X88900Y347980D02*
X113030D01*
X118270Y353220D01*
Y361230D01*
D12*
X133290Y398250D02*
Y402530D01*
X138430Y407670D01*
X133270Y398230D02*
X133290Y398250D01*
X153062Y393228D02*
X157480Y388810D01*
X153062Y393228D02*
Y395578D01*
X152400Y396240D02*
X153062Y395578D01*
X157480Y388596D02*
Y388810D01*
X152971Y387289D02*
X156388D01*
X157480Y388381D01*
Y388596D01*
X146770Y384730D02*
X146790Y384750D01*
X150432D01*
X152971Y387289D01*
X145562Y361462D02*
X146050Y361950D01*
X145074Y349250D02*
X145562Y349738D01*
Y361462D01*
X146050Y369710D02*
X146070Y369730D01*
X146050Y361950D02*
Y369710D01*
X146070Y369730D02*
X146770D01*
X109750Y379710D02*
X109770Y379730D01*
X105390Y379710D02*
X109750D01*
X100330Y374650D02*
X105390Y379710D01*
X91860Y375811D02*
X94097Y378048D01*
X91860Y370840D02*
Y375811D01*
X156210Y379730D02*
X160020Y375920D01*
X153540Y350356D02*
X154646Y349250D01*
X153540Y350356D02*
Y371602D01*
X139700Y378291D02*
Y392430D01*
X145260Y389730D02*
X146770D01*
X145240Y389750D02*
X145260Y389730D01*
X145240Y407440D02*
X147320Y409520D01*
X145240Y389750D02*
Y407440D01*
X147320Y409520D02*
Y409770D01*
X160020Y369546D02*
Y375920D01*
X150432Y374710D02*
X153540Y371602D01*
X149000Y374710D02*
X150432D01*
X146770Y379730D02*
X156210D01*
X119719Y368424D02*
X138212D01*
X113432Y374710D02*
X119719Y368424D01*
X109770Y374730D02*
X109790Y374710D01*
X113432D01*
X94097Y382317D02*
X96490Y384710D01*
X94097Y378048D02*
Y382317D01*
X109770Y374730D02*
X112950D01*
X138212Y368424D02*
X139700Y369911D01*
Y378291D01*
X138270Y393860D02*
Y398230D01*
Y393860D02*
X139700Y392430D01*
X140584Y379710D02*
X144540D01*
X139700Y378291D02*
X140584Y379175D01*
X118250Y400460D02*
X118270Y400440D01*
Y398230D02*
Y400440D01*
X107950Y410290D02*
X117780Y400460D01*
X118250D01*
X109180Y411520D02*
X111800D01*
X107950Y410290D02*
X109180Y411520D01*
X111800D02*
X115570Y415290D01*
X121480D01*
X122940Y410290D02*
X123270Y409960D01*
X121480Y410290D02*
X122940D01*
X123270Y398230D02*
Y409960D01*
X128270Y410040D02*
X128520Y410290D01*
X128270Y398230D02*
Y410040D01*
X128520Y410290D02*
X129980D01*
X93900Y406400D02*
X94900D01*
X92670Y403390D02*
Y405170D01*
X93900Y406400D01*
X108493Y389750D02*
X108513Y389730D01*
X109770D01*
X94900Y406400D02*
X108493Y392807D01*
Y389750D02*
Y392807D01*
X96490Y384710D02*
X109750D01*
X109770Y384730D01*
X82400Y393620D02*
X82900D01*
X92670Y403390D01*
D15*
X57700Y169900D02*
D03*
Y195300D02*
D03*
Y220700D02*
D03*
Y246100D02*
D03*
Y271500D02*
D03*
Y296900D02*
D03*
Y322300D02*
D03*
Y347700D02*
D03*
Y373100D02*
D03*
Y398500D02*
D03*
Y423900D02*
D03*
Y449300D02*
D03*
Y474700D02*
D03*
Y500100D02*
D03*
Y525500D02*
D03*
Y550900D02*
D03*
Y576300D02*
D03*
Y93700D02*
D03*
Y119100D02*
D03*
Y144500D02*
D03*
X32300Y93700D02*
D03*
Y119100D02*
D03*
Y144500D02*
D03*
Y169900D02*
D03*
Y195300D02*
D03*
Y220700D02*
D03*
Y246100D02*
D03*
Y271500D02*
D03*
Y296900D02*
D03*
Y322300D02*
D03*
Y347700D02*
D03*
Y373100D02*
D03*
Y398500D02*
D03*
Y423900D02*
D03*
Y449300D02*
D03*
Y474700D02*
D03*
Y500100D02*
D03*
Y525500D02*
D03*
Y550900D02*
D03*
Y576300D02*
D03*
D16*
X45000Y106400D02*
D03*
Y563600D02*
D03*
D19*
X160020Y375920D02*
X164460Y380360D01*
X158750Y405401D02*
Y411480D01*
Y405401D02*
X161290Y402861D01*
X161327Y396586D02*
Y402553D01*
X161290Y402590D02*
X161327Y402553D01*
X161290Y402590D02*
Y402861D01*
X164460Y380360D02*
Y393133D01*
X161364Y396229D02*
Y396499D01*
Y396229D02*
X164460Y393133D01*
X158750Y318150D02*
Y327389D01*
X157480Y328659D02*
X158750Y327389D01*
X157480Y328659D02*
Y328930D01*
X142240Y318150D02*
Y328930D01*
D20*
X170000Y560000D02*
D03*
D21*
X45000Y625000D02*
D03*
Y45000D02*
D03*
D22*
X132080Y383540D02*
D03*
Y375920D02*
D03*
X124460Y383540D02*
D03*
Y375920D02*
D03*
X161290Y402590D02*
D03*
X161364Y396499D02*
D03*
X180000Y620000D02*
D03*
X190000Y600000D02*
D03*
Y520000D02*
D03*
X170000Y640000D02*
D03*
X160000Y620000D02*
D03*
X170000Y600000D02*
D03*
Y520000D02*
D03*
X160000Y500000D02*
D03*
Y460000D02*
D03*
X150000Y640000D02*
D03*
X140000Y620000D02*
D03*
X150000Y600000D02*
D03*
X140000Y580000D02*
D03*
Y540000D02*
D03*
X150000Y520000D02*
D03*
X140000Y500000D02*
D03*
X150000Y480000D02*
D03*
X140000Y340000D02*
D03*
X150000Y280000D02*
D03*
X130000Y640000D02*
D03*
X120000Y620000D02*
D03*
X130000Y600000D02*
D03*
X120000Y580000D02*
D03*
X130000Y560000D02*
D03*
X120000Y540000D02*
D03*
X130000Y520000D02*
D03*
X120000Y500000D02*
D03*
X130000Y480000D02*
D03*
Y280000D02*
D03*
X120000Y260000D02*
D03*
X110000Y640000D02*
D03*
X100000Y620000D02*
D03*
X110000Y600000D02*
D03*
X100000Y580000D02*
D03*
X110000Y560000D02*
D03*
X100000Y540000D02*
D03*
X110000Y520000D02*
D03*
X100000Y500000D02*
D03*
X110000Y480000D02*
D03*
X100000Y460000D02*
D03*
Y420000D02*
D03*
X110000Y360000D02*
D03*
X100000Y340000D02*
D03*
X110000Y280000D02*
D03*
Y240000D02*
D03*
X100000Y220000D02*
D03*
Y180000D02*
D03*
Y140000D02*
D03*
Y100000D02*
D03*
X110000Y80000D02*
D03*
X90000Y640000D02*
D03*
Y600000D02*
D03*
Y560000D02*
D03*
X80000Y540000D02*
D03*
X90000Y520000D02*
D03*
Y480000D02*
D03*
X80000Y460000D02*
D03*
X90000Y440000D02*
D03*
Y360000D02*
D03*
X80000Y260000D02*
D03*
X90000Y80000D02*
D03*
X80000Y60000D02*
D03*
Y20000D02*
D03*
X60000Y260000D02*
D03*
X70000Y80000D02*
D03*
X40000Y540000D02*
D03*
Y460000D02*
D03*
X50000Y440000D02*
D03*
Y280000D02*
D03*
X40000Y260000D02*
D03*
Y180000D02*
D03*
X50000Y160000D02*
D03*
X20000Y540000D02*
D03*
Y460000D02*
D03*
X30000Y360000D02*
D03*
X20000Y260000D02*
D03*
X30000Y80000D02*
D03*
X90170Y271780D02*
D03*
X19050Y384810D02*
D03*
X76200Y359410D02*
D03*
X88900Y322580D02*
D03*
Y347980D02*
D03*
X157480Y328930D02*
D03*
X142240D02*
D03*
X146050Y361950D02*
D03*
X152400Y396240D02*
D03*
X100330Y374650D02*
D03*
X138430Y407670D02*
D03*
D23*
X128270Y379730D02*
D03*
D24*
X146770Y369730D02*
D03*
Y374730D02*
D03*
Y379730D02*
D03*
Y384730D02*
D03*
Y389730D02*
D03*
X109770D02*
D03*
Y384730D02*
D03*
Y379730D02*
D03*
Y374730D02*
D03*
Y369730D02*
D03*
D25*
X138270Y398230D02*
D03*
X133270D02*
D03*
X128270D02*
D03*
X123270D02*
D03*
X118270D02*
D03*
Y361230D02*
D03*
X123270D02*
D03*
X128270D02*
D03*
X133270D02*
D03*
X138270D02*
D03*
D26*
X121480Y410290D02*
D03*
X129980D02*
D03*
X121480Y420290D02*
D03*
X129980D02*
D03*
X121480Y415290D02*
D03*
X129980D02*
D03*
D27*
X113520Y453400D02*
D03*
X143020D02*
D03*
D28*
X128270Y438150D02*
D03*
D29*
X94400Y406400D02*
D03*
X83400D02*
D03*
X91860Y370840D02*
D03*
X80860D02*
D03*
D30*
X154646Y349250D02*
D03*
X145074D02*
D03*
D31*
X157480Y381024D02*
D03*
Y388596D02*
D03*
X160020Y369546D02*
D03*
Y361974D02*
D03*
D32*
X142240Y318150D02*
D03*
Y304150D02*
D03*
X158750Y318150D02*
D03*
Y304150D02*
D03*
D33*
Y421280D02*
D03*
Y411480D02*
D03*
D34*
X147320Y409770D02*
D03*
Y418270D02*
D03*
D35*
X82400Y393620D02*
D03*
X95400D02*
D03*
Y383620D02*
D03*
X82400D02*
D03*
D36*
X107950Y410290D02*
D03*
Y420290D02*
D03*
D37*
X129540Y436880D02*
X129980Y436440D01*
X128270Y438150D02*
X129540Y436880D01*
Y422910D02*
Y436880D01*
D38*
X94900Y393620D02*
X95289D01*
X92400Y391120D02*
X94900Y393620D01*
X91289Y389620D02*
X92400Y390731D01*
X90511Y389620D02*
X91289D01*
X92400Y390731D02*
Y391120D01*
X88900Y388009D02*
X90511Y389620D01*
X88900Y387620D02*
Y388009D01*
X87360Y386080D02*
X88900Y387620D01*
X82400Y383620D02*
X84860Y386080D01*
X87360D01*
M02*
