G04*
G04 #@! TF.GenerationSoftware,Altium Limited,Altium Designer,23.1.1 (15)*
G04*
G04 Layer_Color=32896*
%FSLAX44Y44*%
%MOMM*%
G71*
G04*
G04 #@! TF.SameCoordinates,3E8E7F90-563F-486E-9B67-03FE44FB6019*
G04*
G04*
G04 #@! TF.FilePolarity,Positive*
G04*
G01*
G75*
%ADD40C,0.1500*%
D40*
X142403Y202385D02*
Y205218D01*
Y203801D01*
X149484D01*
X150900Y205218D01*
Y206634D01*
X149484Y208050D01*
X142403Y199553D02*
X150900D01*
Y193888D01*
X143819Y185391D02*
X142403Y186807D01*
Y189639D01*
X143819Y191056D01*
X149484D01*
X150900Y189639D01*
Y186807D01*
X149484Y185391D01*
X142403Y176893D02*
Y179726D01*
Y178310D01*
X149484D01*
X150900Y179726D01*
Y181142D01*
X149484Y182558D01*
X142403Y174061D02*
X150900D01*
Y168396D01*
X143819Y159899D02*
X142403Y161315D01*
Y164147D01*
X143819Y165564D01*
X149484D01*
X150900Y164147D01*
Y161315D01*
X149484Y159899D01*
X142403Y151402D02*
Y154234D01*
Y152818D01*
X149484D01*
X150900Y154234D01*
Y155650D01*
X149484Y157066D01*
X142403Y148569D02*
X150900D01*
Y142904D01*
X143819Y134407D02*
X142403Y135823D01*
Y138656D01*
X143819Y140072D01*
X149484D01*
X150900Y138656D01*
Y135823D01*
X149484Y134407D01*
X142403Y125910D02*
Y128742D01*
Y127326D01*
X149484D01*
X150900Y128742D01*
Y130158D01*
X149484Y131575D01*
X142403Y123077D02*
X150900D01*
Y117413D01*
X143819Y108915D02*
X142403Y110331D01*
Y113164D01*
X143819Y114580D01*
X149484D01*
X150900Y113164D01*
Y110331D01*
X149484Y108915D01*
M02*
