G04*
G04 #@! TF.GenerationSoftware,Altium Limited,Altium Designer,23.1.1 (15)*
G04*
G04 Layer_Color=16711935*
%FSLAX44Y44*%
%MOMM*%
G71*
G04*
G04 #@! TF.SameCoordinates,0AF84104-F659-47EF-A6CA-85AD17C22E92*
G04*
G04*
G04 #@! TF.FilePolarity,Negative*
G04*
G01*
G75*
%ADD15C,1.4480*%
%ADD16C,1.8000*%
%ADD17C,1.0200*%
%ADD18C,5.0000*%
%ADD19C,6.0000*%
%ADD29R,0.6500X0.3500*%
%ADD30R,0.3500X0.6500*%
%ADD31R,0.6153X0.5725*%
%ADD32R,0.4725X0.5153*%
%ADD33R,0.6725X0.7154*%
%ADD34R,0.5000X0.5000*%
%ADD35R,0.6000X0.5000*%
%ADD36R,0.7500X0.6500*%
%ADD37R,1.0000X1.0500*%
%ADD38R,1.0500X2.2000*%
%ADD39R,0.7000X0.7000*%
%ADD43R,1.7000X1.6500*%
%ADD44O,0.8000X0.3500*%
%ADD45O,0.3500X0.8000*%
%ADD46R,0.6500X0.7000*%
%ADD47R,0.8200X0.8600*%
D15*
X161290Y651510D02*
D03*
X12700Y12700D02*
D03*
D16*
X45000Y563600D02*
D03*
Y106400D02*
D03*
D17*
X32300Y576300D02*
D03*
Y550900D02*
D03*
Y525500D02*
D03*
Y500100D02*
D03*
Y474700D02*
D03*
Y449300D02*
D03*
Y423900D02*
D03*
Y398500D02*
D03*
Y373100D02*
D03*
Y347700D02*
D03*
Y322300D02*
D03*
Y296900D02*
D03*
Y271500D02*
D03*
Y246100D02*
D03*
Y220700D02*
D03*
Y195300D02*
D03*
Y169900D02*
D03*
Y144500D02*
D03*
Y119100D02*
D03*
Y93700D02*
D03*
X57700Y144500D02*
D03*
Y119100D02*
D03*
Y93700D02*
D03*
Y576300D02*
D03*
Y550900D02*
D03*
Y525500D02*
D03*
Y500100D02*
D03*
Y474700D02*
D03*
Y449300D02*
D03*
Y423900D02*
D03*
Y398500D02*
D03*
Y373100D02*
D03*
Y347700D02*
D03*
Y322300D02*
D03*
Y296900D02*
D03*
Y271500D02*
D03*
Y246100D02*
D03*
Y220700D02*
D03*
Y195300D02*
D03*
Y169900D02*
D03*
D18*
X170000Y560000D02*
D03*
D19*
X45000Y625000D02*
D03*
Y45000D02*
D03*
D29*
X129540Y421200D02*
D03*
Y429700D02*
D03*
X118110Y421200D02*
D03*
Y429700D02*
D03*
D30*
X129980Y411480D02*
D03*
X121480D02*
D03*
D31*
X128746Y455930D02*
D03*
X120174D02*
D03*
D32*
X129540Y438174D02*
D03*
Y445746D02*
D03*
X157480Y381024D02*
D03*
Y388596D02*
D03*
X160020Y361974D02*
D03*
Y369546D02*
D03*
D33*
X146050Y348956D02*
D03*
Y339384D02*
D03*
D34*
X106600Y417830D02*
D03*
X96600D02*
D03*
Y429260D02*
D03*
X106600D02*
D03*
D35*
X91860Y370840D02*
D03*
X80860D02*
D03*
X83400Y406400D02*
D03*
X94400D02*
D03*
D36*
X82400Y383620D02*
D03*
X95400D02*
D03*
Y393620D02*
D03*
X82400D02*
D03*
D37*
X128270Y469890D02*
D03*
D38*
X143020Y485140D02*
D03*
X113520D02*
D03*
D39*
X142240Y304150D02*
D03*
Y318150D02*
D03*
X158750D02*
D03*
Y304150D02*
D03*
D43*
X128270Y379730D02*
D03*
D44*
X146770Y369730D02*
D03*
Y374730D02*
D03*
Y379730D02*
D03*
Y384730D02*
D03*
Y389730D02*
D03*
X109770D02*
D03*
Y384730D02*
D03*
Y379730D02*
D03*
Y374730D02*
D03*
Y369730D02*
D03*
D45*
X138270Y398230D02*
D03*
X133270D02*
D03*
X128270D02*
D03*
X123270D02*
D03*
X118270D02*
D03*
Y361230D02*
D03*
X123270D02*
D03*
X128270D02*
D03*
X133270D02*
D03*
X138270D02*
D03*
D46*
X147320Y409770D02*
D03*
Y418270D02*
D03*
D47*
X158750Y411480D02*
D03*
Y421280D02*
D03*
M02*
