G04*
G04 #@! TF.GenerationSoftware,Altium Limited,Altium Designer,23.0.1 (38)*
G04*
G04 Layer_Color=128*
%FSLAX44Y44*%
%MOMM*%
G71*
G04*
G04 #@! TF.SameCoordinates,34A72795-73FE-4812-8059-925B3A141BCA*
G04*
G04*
G04 #@! TF.FilePolarity,Positive*
G04*
G01*
G75*
%ADD23R,1.6000X1.5500*%
%ADD24O,0.7000X0.2500*%
%ADD25O,0.2500X0.7000*%
%ADD26R,0.5500X0.2500*%
%ADD29R,0.6000X0.5000*%
%ADD30R,0.7154X0.6725*%
%ADD31R,0.4725X0.5153*%
%ADD32R,0.7000X0.7000*%
%ADD33R,0.7200X0.7600*%
%ADD34R,0.5500X0.6000*%
%ADD35R,0.7500X0.6500*%
%ADD36R,0.5000X0.5000*%
%ADD45R,0.9000X2.0000*%
%ADD46R,0.8000X0.8500*%
D23*
X128270Y379730D02*
D03*
D24*
X146770Y369730D02*
D03*
Y374730D02*
D03*
Y379730D02*
D03*
Y384730D02*
D03*
Y389730D02*
D03*
X109770D02*
D03*
Y384730D02*
D03*
Y379730D02*
D03*
Y374730D02*
D03*
Y369730D02*
D03*
D25*
X138270Y398230D02*
D03*
X133270D02*
D03*
X128270D02*
D03*
X123270D02*
D03*
X118270D02*
D03*
Y361230D02*
D03*
X123270D02*
D03*
X128270D02*
D03*
X133270D02*
D03*
X138270D02*
D03*
D26*
X121480Y410290D02*
D03*
X129980D02*
D03*
X121480Y420290D02*
D03*
X129980D02*
D03*
X121480Y415290D02*
D03*
X129980D02*
D03*
D29*
X94400Y406400D02*
D03*
X83400D02*
D03*
X91860Y370840D02*
D03*
X80860D02*
D03*
D30*
X154646Y349250D02*
D03*
X145074D02*
D03*
D31*
X157480Y381024D02*
D03*
Y388596D02*
D03*
X160020Y369546D02*
D03*
Y361974D02*
D03*
D32*
X142240Y318150D02*
D03*
Y304150D02*
D03*
X158750Y318150D02*
D03*
Y304150D02*
D03*
D33*
Y421280D02*
D03*
Y411480D02*
D03*
D34*
X147320Y409770D02*
D03*
Y418270D02*
D03*
D35*
X82400Y393620D02*
D03*
X95400D02*
D03*
Y383620D02*
D03*
X82400D02*
D03*
D36*
X107950Y410290D02*
D03*
Y420290D02*
D03*
D45*
X113270Y453400D02*
D03*
X143270D02*
D03*
D46*
X128279Y438150D02*
D03*
M02*
