G04*
G04 #@! TF.GenerationSoftware,Altium Limited,Altium Designer,23.0.1 (38)*
G04*
G04 Layer_Color=2752767*
%FSLAX44Y44*%
%MOMM*%
G71*
G04*
G04 #@! TF.SameCoordinates,34A72795-73FE-4812-8059-925B3A141BCA*
G04*
G04*
G04 #@! TF.FilePolarity,Positive*
G04*
G01*
G75*
%ADD47C,0.1270*%
D47*
X42460Y103860D02*
Y101320D01*
X47540D01*
Y103860D01*
X50080D01*
Y108940D01*
X47540D01*
Y111480D01*
X42460D01*
Y108940D01*
X39920D01*
Y103860D01*
X42460D01*
Y561060D02*
Y558520D01*
X47540D01*
Y561060D01*
X50080D01*
Y566140D01*
X47540D01*
Y568680D01*
X42460D01*
Y566140D01*
X39920D01*
Y561060D01*
X42460D01*
X170000Y554920D02*
X172540Y557460D01*
X175080D01*
X172540Y560000D01*
X175080Y562540D01*
X172540D01*
X170000Y565080D01*
X167460Y562540D01*
X164920D01*
X167460Y560000D01*
X164920Y557460D01*
X167460D01*
X170000Y554920D01*
X45000Y619920D02*
X39920Y630080D01*
X50080D01*
X45000Y619920D01*
Y39920D02*
X39920Y50080D01*
X50080D01*
X45000Y39920D01*
X127000Y378460D02*
X129540D01*
X132080Y381000D01*
X134620Y378460D01*
X137160D01*
Y381000D01*
X134620Y383540D01*
X137160Y386080D01*
Y388620D01*
X134620D01*
X132080Y386080D01*
X129540Y388620D01*
X127000D01*
Y386080D01*
X129540Y383540D01*
X127000Y381000D01*
Y378460D01*
Y370840D02*
X129540D01*
X132080Y373380D01*
X134620Y370840D01*
X137160D01*
Y373380D01*
X134620Y375920D01*
X137160Y378460D01*
Y381000D01*
X134620D01*
X132080Y378460D01*
X129540Y381000D01*
X127000D01*
Y378460D01*
X129540Y375920D01*
X127000Y373380D01*
Y370840D01*
X119380Y378460D02*
X121920D01*
X124460Y381000D01*
X127000Y378460D01*
X129540D01*
Y381000D01*
X127000Y383540D01*
X129540Y386080D01*
Y388620D01*
X127000D01*
X124460Y386080D01*
X121920Y388620D01*
X119380D01*
Y386080D01*
X121920Y383540D01*
X119380Y381000D01*
Y378460D01*
Y370840D02*
X121920D01*
X124460Y373380D01*
X127000Y370840D01*
X129540D01*
Y373380D01*
X127000Y375920D01*
X129540Y378460D01*
Y381000D01*
X127000D01*
X124460Y378460D01*
X121920Y381000D01*
X119380D01*
Y378460D01*
X121920Y375920D01*
X119380Y373380D01*
Y370840D01*
X156210Y397510D02*
X158750D01*
X161290Y400050D01*
X163830Y397510D01*
X166370D01*
Y400050D01*
X163830Y402590D01*
X166370Y405130D01*
Y407670D01*
X163830D01*
X161290Y405130D01*
X158750Y407670D01*
X156210D01*
Y405130D01*
X158750Y402590D01*
X156210Y400050D01*
Y397510D01*
X156284Y391419D02*
X158824D01*
X161364Y393959D01*
X163904Y391419D01*
X166444D01*
Y393959D01*
X163904Y396499D01*
X166444Y399039D01*
Y401579D01*
X163904D01*
X161364Y399039D01*
X158824Y401579D01*
X156284D01*
Y399039D01*
X158824Y396499D01*
X156284Y393959D01*
Y391419D01*
X174920Y614920D02*
X177460D01*
X180000Y617460D01*
X182540Y614920D01*
X185080D01*
Y617460D01*
X182540Y620000D01*
X185080Y622540D01*
Y625080D01*
X182540D01*
X180000Y622540D01*
X177460Y625080D01*
X174920D01*
Y622540D01*
X177460Y620000D01*
X174920Y617460D01*
Y614920D01*
X184920Y594920D02*
X187460D01*
X190000Y597460D01*
X192540Y594920D01*
X195080D01*
Y597460D01*
X192540Y600000D01*
X195080Y602540D01*
Y605080D01*
X192540D01*
X190000Y602540D01*
X187460Y605080D01*
X184920D01*
Y602540D01*
X187460Y600000D01*
X184920Y597460D01*
Y594920D01*
Y514920D02*
X187460D01*
X190000Y517460D01*
X192540Y514920D01*
X195080D01*
Y517460D01*
X192540Y520000D01*
X195080Y522540D01*
Y525080D01*
X192540D01*
X190000Y522540D01*
X187460Y525080D01*
X184920D01*
Y522540D01*
X187460Y520000D01*
X184920Y517460D01*
Y514920D01*
X164920Y634920D02*
X167460D01*
X170000Y637460D01*
X172540Y634920D01*
X175080D01*
Y637460D01*
X172540Y640000D01*
X175080Y642540D01*
Y645080D01*
X172540D01*
X170000Y642540D01*
X167460Y645080D01*
X164920D01*
Y642540D01*
X167460Y640000D01*
X164920Y637460D01*
Y634920D01*
X154920Y614920D02*
X157460D01*
X160000Y617460D01*
X162540Y614920D01*
X165080D01*
Y617460D01*
X162540Y620000D01*
X165080Y622540D01*
Y625080D01*
X162540D01*
X160000Y622540D01*
X157460Y625080D01*
X154920D01*
Y622540D01*
X157460Y620000D01*
X154920Y617460D01*
Y614920D01*
X164920Y594920D02*
X167460D01*
X170000Y597460D01*
X172540Y594920D01*
X175080D01*
Y597460D01*
X172540Y600000D01*
X175080Y602540D01*
Y605080D01*
X172540D01*
X170000Y602540D01*
X167460Y605080D01*
X164920D01*
Y602540D01*
X167460Y600000D01*
X164920Y597460D01*
Y594920D01*
Y514920D02*
X167460D01*
X170000Y517460D01*
X172540Y514920D01*
X175080D01*
Y517460D01*
X172540Y520000D01*
X175080Y522540D01*
Y525080D01*
X172540D01*
X170000Y522540D01*
X167460Y525080D01*
X164920D01*
Y522540D01*
X167460Y520000D01*
X164920Y517460D01*
Y514920D01*
X154920Y494920D02*
X157460D01*
X160000Y497460D01*
X162540Y494920D01*
X165080D01*
Y497460D01*
X162540Y500000D01*
X165080Y502540D01*
Y505080D01*
X162540D01*
X160000Y502540D01*
X157460Y505080D01*
X154920D01*
Y502540D01*
X157460Y500000D01*
X154920Y497460D01*
Y494920D01*
Y454920D02*
X157460D01*
X160000Y457460D01*
X162540Y454920D01*
X165080D01*
Y457460D01*
X162540Y460000D01*
X165080Y462540D01*
Y465080D01*
X162540D01*
X160000Y462540D01*
X157460Y465080D01*
X154920D01*
Y462540D01*
X157460Y460000D01*
X154920Y457460D01*
Y454920D01*
X144920Y634920D02*
X147460D01*
X150000Y637460D01*
X152540Y634920D01*
X155080D01*
Y637460D01*
X152540Y640000D01*
X155080Y642540D01*
Y645080D01*
X152540D01*
X150000Y642540D01*
X147460Y645080D01*
X144920D01*
Y642540D01*
X147460Y640000D01*
X144920Y637460D01*
Y634920D01*
X134920Y614920D02*
X137460D01*
X140000Y617460D01*
X142540Y614920D01*
X145080D01*
Y617460D01*
X142540Y620000D01*
X145080Y622540D01*
Y625080D01*
X142540D01*
X140000Y622540D01*
X137460Y625080D01*
X134920D01*
Y622540D01*
X137460Y620000D01*
X134920Y617460D01*
Y614920D01*
X144920Y594920D02*
X147460D01*
X150000Y597460D01*
X152540Y594920D01*
X155080D01*
Y597460D01*
X152540Y600000D01*
X155080Y602540D01*
Y605080D01*
X152540D01*
X150000Y602540D01*
X147460Y605080D01*
X144920D01*
Y602540D01*
X147460Y600000D01*
X144920Y597460D01*
Y594920D01*
X134920Y574920D02*
X137460D01*
X140000Y577460D01*
X142540Y574920D01*
X145080D01*
Y577460D01*
X142540Y580000D01*
X145080Y582540D01*
Y585080D01*
X142540D01*
X140000Y582540D01*
X137460Y585080D01*
X134920D01*
Y582540D01*
X137460Y580000D01*
X134920Y577460D01*
Y574920D01*
Y534920D02*
X137460D01*
X140000Y537460D01*
X142540Y534920D01*
X145080D01*
Y537460D01*
X142540Y540000D01*
X145080Y542540D01*
Y545080D01*
X142540D01*
X140000Y542540D01*
X137460Y545080D01*
X134920D01*
Y542540D01*
X137460Y540000D01*
X134920Y537460D01*
Y534920D01*
X144920Y514920D02*
X147460D01*
X150000Y517460D01*
X152540Y514920D01*
X155080D01*
Y517460D01*
X152540Y520000D01*
X155080Y522540D01*
Y525080D01*
X152540D01*
X150000Y522540D01*
X147460Y525080D01*
X144920D01*
Y522540D01*
X147460Y520000D01*
X144920Y517460D01*
Y514920D01*
X134920Y494920D02*
X137460D01*
X140000Y497460D01*
X142540Y494920D01*
X145080D01*
Y497460D01*
X142540Y500000D01*
X145080Y502540D01*
Y505080D01*
X142540D01*
X140000Y502540D01*
X137460Y505080D01*
X134920D01*
Y502540D01*
X137460Y500000D01*
X134920Y497460D01*
Y494920D01*
X144920Y474920D02*
X147460D01*
X150000Y477460D01*
X152540Y474920D01*
X155080D01*
Y477460D01*
X152540Y480000D01*
X155080Y482540D01*
Y485080D01*
X152540D01*
X150000Y482540D01*
X147460Y485080D01*
X144920D01*
Y482540D01*
X147460Y480000D01*
X144920Y477460D01*
Y474920D01*
X134920Y334920D02*
X137460D01*
X140000Y337460D01*
X142540Y334920D01*
X145080D01*
Y337460D01*
X142540Y340000D01*
X145080Y342540D01*
Y345080D01*
X142540D01*
X140000Y342540D01*
X137460Y345080D01*
X134920D01*
Y342540D01*
X137460Y340000D01*
X134920Y337460D01*
Y334920D01*
X144920Y274920D02*
X147460D01*
X150000Y277460D01*
X152540Y274920D01*
X155080D01*
Y277460D01*
X152540Y280000D01*
X155080Y282540D01*
Y285080D01*
X152540D01*
X150000Y282540D01*
X147460Y285080D01*
X144920D01*
Y282540D01*
X147460Y280000D01*
X144920Y277460D01*
Y274920D01*
X124920Y634920D02*
X127460D01*
X130000Y637460D01*
X132540Y634920D01*
X135080D01*
Y637460D01*
X132540Y640000D01*
X135080Y642540D01*
Y645080D01*
X132540D01*
X130000Y642540D01*
X127460Y645080D01*
X124920D01*
Y642540D01*
X127460Y640000D01*
X124920Y637460D01*
Y634920D01*
X114920Y614920D02*
X117460D01*
X120000Y617460D01*
X122540Y614920D01*
X125080D01*
Y617460D01*
X122540Y620000D01*
X125080Y622540D01*
Y625080D01*
X122540D01*
X120000Y622540D01*
X117460Y625080D01*
X114920D01*
Y622540D01*
X117460Y620000D01*
X114920Y617460D01*
Y614920D01*
X124920Y594920D02*
X127460D01*
X130000Y597460D01*
X132540Y594920D01*
X135080D01*
Y597460D01*
X132540Y600000D01*
X135080Y602540D01*
Y605080D01*
X132540D01*
X130000Y602540D01*
X127460Y605080D01*
X124920D01*
Y602540D01*
X127460Y600000D01*
X124920Y597460D01*
Y594920D01*
X114920Y574920D02*
X117460D01*
X120000Y577460D01*
X122540Y574920D01*
X125080D01*
Y577460D01*
X122540Y580000D01*
X125080Y582540D01*
Y585080D01*
X122540D01*
X120000Y582540D01*
X117460Y585080D01*
X114920D01*
Y582540D01*
X117460Y580000D01*
X114920Y577460D01*
Y574920D01*
X124920Y554920D02*
X127460D01*
X130000Y557460D01*
X132540Y554920D01*
X135080D01*
Y557460D01*
X132540Y560000D01*
X135080Y562540D01*
Y565080D01*
X132540D01*
X130000Y562540D01*
X127460Y565080D01*
X124920D01*
Y562540D01*
X127460Y560000D01*
X124920Y557460D01*
Y554920D01*
X114920Y534920D02*
X117460D01*
X120000Y537460D01*
X122540Y534920D01*
X125080D01*
Y537460D01*
X122540Y540000D01*
X125080Y542540D01*
Y545080D01*
X122540D01*
X120000Y542540D01*
X117460Y545080D01*
X114920D01*
Y542540D01*
X117460Y540000D01*
X114920Y537460D01*
Y534920D01*
X124920Y514920D02*
X127460D01*
X130000Y517460D01*
X132540Y514920D01*
X135080D01*
Y517460D01*
X132540Y520000D01*
X135080Y522540D01*
Y525080D01*
X132540D01*
X130000Y522540D01*
X127460Y525080D01*
X124920D01*
Y522540D01*
X127460Y520000D01*
X124920Y517460D01*
Y514920D01*
X114920Y494920D02*
X117460D01*
X120000Y497460D01*
X122540Y494920D01*
X125080D01*
Y497460D01*
X122540Y500000D01*
X125080Y502540D01*
Y505080D01*
X122540D01*
X120000Y502540D01*
X117460Y505080D01*
X114920D01*
Y502540D01*
X117460Y500000D01*
X114920Y497460D01*
Y494920D01*
X124920Y474920D02*
X127460D01*
X130000Y477460D01*
X132540Y474920D01*
X135080D01*
Y477460D01*
X132540Y480000D01*
X135080Y482540D01*
Y485080D01*
X132540D01*
X130000Y482540D01*
X127460Y485080D01*
X124920D01*
Y482540D01*
X127460Y480000D01*
X124920Y477460D01*
Y474920D01*
Y274920D02*
X127460D01*
X130000Y277460D01*
X132540Y274920D01*
X135080D01*
Y277460D01*
X132540Y280000D01*
X135080Y282540D01*
Y285080D01*
X132540D01*
X130000Y282540D01*
X127460Y285080D01*
X124920D01*
Y282540D01*
X127460Y280000D01*
X124920Y277460D01*
Y274920D01*
X114920Y254920D02*
X117460D01*
X120000Y257460D01*
X122540Y254920D01*
X125080D01*
Y257460D01*
X122540Y260000D01*
X125080Y262540D01*
Y265080D01*
X122540D01*
X120000Y262540D01*
X117460Y265080D01*
X114920D01*
Y262540D01*
X117460Y260000D01*
X114920Y257460D01*
Y254920D01*
X104920Y634920D02*
X107460D01*
X110000Y637460D01*
X112540Y634920D01*
X115080D01*
Y637460D01*
X112540Y640000D01*
X115080Y642540D01*
Y645080D01*
X112540D01*
X110000Y642540D01*
X107460Y645080D01*
X104920D01*
Y642540D01*
X107460Y640000D01*
X104920Y637460D01*
Y634920D01*
X94920Y614920D02*
X97460D01*
X100000Y617460D01*
X102540Y614920D01*
X105080D01*
Y617460D01*
X102540Y620000D01*
X105080Y622540D01*
Y625080D01*
X102540D01*
X100000Y622540D01*
X97460Y625080D01*
X94920D01*
Y622540D01*
X97460Y620000D01*
X94920Y617460D01*
Y614920D01*
X104920Y594920D02*
X107460D01*
X110000Y597460D01*
X112540Y594920D01*
X115080D01*
Y597460D01*
X112540Y600000D01*
X115080Y602540D01*
Y605080D01*
X112540D01*
X110000Y602540D01*
X107460Y605080D01*
X104920D01*
Y602540D01*
X107460Y600000D01*
X104920Y597460D01*
Y594920D01*
X94920Y574920D02*
X97460D01*
X100000Y577460D01*
X102540Y574920D01*
X105080D01*
Y577460D01*
X102540Y580000D01*
X105080Y582540D01*
Y585080D01*
X102540D01*
X100000Y582540D01*
X97460Y585080D01*
X94920D01*
Y582540D01*
X97460Y580000D01*
X94920Y577460D01*
Y574920D01*
X104920Y554920D02*
X107460D01*
X110000Y557460D01*
X112540Y554920D01*
X115080D01*
Y557460D01*
X112540Y560000D01*
X115080Y562540D01*
Y565080D01*
X112540D01*
X110000Y562540D01*
X107460Y565080D01*
X104920D01*
Y562540D01*
X107460Y560000D01*
X104920Y557460D01*
Y554920D01*
X94920Y534920D02*
X97460D01*
X100000Y537460D01*
X102540Y534920D01*
X105080D01*
Y537460D01*
X102540Y540000D01*
X105080Y542540D01*
Y545080D01*
X102540D01*
X100000Y542540D01*
X97460Y545080D01*
X94920D01*
Y542540D01*
X97460Y540000D01*
X94920Y537460D01*
Y534920D01*
X104920Y514920D02*
X107460D01*
X110000Y517460D01*
X112540Y514920D01*
X115080D01*
Y517460D01*
X112540Y520000D01*
X115080Y522540D01*
Y525080D01*
X112540D01*
X110000Y522540D01*
X107460Y525080D01*
X104920D01*
Y522540D01*
X107460Y520000D01*
X104920Y517460D01*
Y514920D01*
X94920Y494920D02*
X97460D01*
X100000Y497460D01*
X102540Y494920D01*
X105080D01*
Y497460D01*
X102540Y500000D01*
X105080Y502540D01*
Y505080D01*
X102540D01*
X100000Y502540D01*
X97460Y505080D01*
X94920D01*
Y502540D01*
X97460Y500000D01*
X94920Y497460D01*
Y494920D01*
X104920Y474920D02*
X107460D01*
X110000Y477460D01*
X112540Y474920D01*
X115080D01*
Y477460D01*
X112540Y480000D01*
X115080Y482540D01*
Y485080D01*
X112540D01*
X110000Y482540D01*
X107460Y485080D01*
X104920D01*
Y482540D01*
X107460Y480000D01*
X104920Y477460D01*
Y474920D01*
X94920Y454920D02*
X97460D01*
X100000Y457460D01*
X102540Y454920D01*
X105080D01*
Y457460D01*
X102540Y460000D01*
X105080Y462540D01*
Y465080D01*
X102540D01*
X100000Y462540D01*
X97460Y465080D01*
X94920D01*
Y462540D01*
X97460Y460000D01*
X94920Y457460D01*
Y454920D01*
Y414920D02*
X97460D01*
X100000Y417460D01*
X102540Y414920D01*
X105080D01*
Y417460D01*
X102540Y420000D01*
X105080Y422540D01*
Y425080D01*
X102540D01*
X100000Y422540D01*
X97460Y425080D01*
X94920D01*
Y422540D01*
X97460Y420000D01*
X94920Y417460D01*
Y414920D01*
X104920Y354920D02*
X107460D01*
X110000Y357460D01*
X112540Y354920D01*
X115080D01*
Y357460D01*
X112540Y360000D01*
X115080Y362540D01*
Y365080D01*
X112540D01*
X110000Y362540D01*
X107460Y365080D01*
X104920D01*
Y362540D01*
X107460Y360000D01*
X104920Y357460D01*
Y354920D01*
X94920Y334920D02*
X97460D01*
X100000Y337460D01*
X102540Y334920D01*
X105080D01*
Y337460D01*
X102540Y340000D01*
X105080Y342540D01*
Y345080D01*
X102540D01*
X100000Y342540D01*
X97460Y345080D01*
X94920D01*
Y342540D01*
X97460Y340000D01*
X94920Y337460D01*
Y334920D01*
X104920Y274920D02*
X107460D01*
X110000Y277460D01*
X112540Y274920D01*
X115080D01*
Y277460D01*
X112540Y280000D01*
X115080Y282540D01*
Y285080D01*
X112540D01*
X110000Y282540D01*
X107460Y285080D01*
X104920D01*
Y282540D01*
X107460Y280000D01*
X104920Y277460D01*
Y274920D01*
Y234920D02*
X107460D01*
X110000Y237460D01*
X112540Y234920D01*
X115080D01*
Y237460D01*
X112540Y240000D01*
X115080Y242540D01*
Y245080D01*
X112540D01*
X110000Y242540D01*
X107460Y245080D01*
X104920D01*
Y242540D01*
X107460Y240000D01*
X104920Y237460D01*
Y234920D01*
X94920Y214920D02*
X97460D01*
X100000Y217460D01*
X102540Y214920D01*
X105080D01*
Y217460D01*
X102540Y220000D01*
X105080Y222540D01*
Y225080D01*
X102540D01*
X100000Y222540D01*
X97460Y225080D01*
X94920D01*
Y222540D01*
X97460Y220000D01*
X94920Y217460D01*
Y214920D01*
Y174920D02*
X97460D01*
X100000Y177460D01*
X102540Y174920D01*
X105080D01*
Y177460D01*
X102540Y180000D01*
X105080Y182540D01*
Y185080D01*
X102540D01*
X100000Y182540D01*
X97460Y185080D01*
X94920D01*
Y182540D01*
X97460Y180000D01*
X94920Y177460D01*
Y174920D01*
Y134920D02*
X97460D01*
X100000Y137460D01*
X102540Y134920D01*
X105080D01*
Y137460D01*
X102540Y140000D01*
X105080Y142540D01*
Y145080D01*
X102540D01*
X100000Y142540D01*
X97460Y145080D01*
X94920D01*
Y142540D01*
X97460Y140000D01*
X94920Y137460D01*
Y134920D01*
Y94920D02*
X97460D01*
X100000Y97460D01*
X102540Y94920D01*
X105080D01*
Y97460D01*
X102540Y100000D01*
X105080Y102540D01*
Y105080D01*
X102540D01*
X100000Y102540D01*
X97460Y105080D01*
X94920D01*
Y102540D01*
X97460Y100000D01*
X94920Y97460D01*
Y94920D01*
X104920Y74920D02*
X107460D01*
X110000Y77460D01*
X112540Y74920D01*
X115080D01*
Y77460D01*
X112540Y80000D01*
X115080Y82540D01*
Y85080D01*
X112540D01*
X110000Y82540D01*
X107460Y85080D01*
X104920D01*
Y82540D01*
X107460Y80000D01*
X104920Y77460D01*
Y74920D01*
X84920Y634920D02*
X87460D01*
X90000Y637460D01*
X92540Y634920D01*
X95080D01*
Y637460D01*
X92540Y640000D01*
X95080Y642540D01*
Y645080D01*
X92540D01*
X90000Y642540D01*
X87460Y645080D01*
X84920D01*
Y642540D01*
X87460Y640000D01*
X84920Y637460D01*
Y634920D01*
Y594920D02*
X87460D01*
X90000Y597460D01*
X92540Y594920D01*
X95080D01*
Y597460D01*
X92540Y600000D01*
X95080Y602540D01*
Y605080D01*
X92540D01*
X90000Y602540D01*
X87460Y605080D01*
X84920D01*
Y602540D01*
X87460Y600000D01*
X84920Y597460D01*
Y594920D01*
Y554920D02*
X87460D01*
X90000Y557460D01*
X92540Y554920D01*
X95080D01*
Y557460D01*
X92540Y560000D01*
X95080Y562540D01*
Y565080D01*
X92540D01*
X90000Y562540D01*
X87460Y565080D01*
X84920D01*
Y562540D01*
X87460Y560000D01*
X84920Y557460D01*
Y554920D01*
X74920Y534920D02*
X77460D01*
X80000Y537460D01*
X82540Y534920D01*
X85080D01*
Y537460D01*
X82540Y540000D01*
X85080Y542540D01*
Y545080D01*
X82540D01*
X80000Y542540D01*
X77460Y545080D01*
X74920D01*
Y542540D01*
X77460Y540000D01*
X74920Y537460D01*
Y534920D01*
X84920Y514920D02*
X87460D01*
X90000Y517460D01*
X92540Y514920D01*
X95080D01*
Y517460D01*
X92540Y520000D01*
X95080Y522540D01*
Y525080D01*
X92540D01*
X90000Y522540D01*
X87460Y525080D01*
X84920D01*
Y522540D01*
X87460Y520000D01*
X84920Y517460D01*
Y514920D01*
Y474920D02*
X87460D01*
X90000Y477460D01*
X92540Y474920D01*
X95080D01*
Y477460D01*
X92540Y480000D01*
X95080Y482540D01*
Y485080D01*
X92540D01*
X90000Y482540D01*
X87460Y485080D01*
X84920D01*
Y482540D01*
X87460Y480000D01*
X84920Y477460D01*
Y474920D01*
X74920Y454920D02*
X77460D01*
X80000Y457460D01*
X82540Y454920D01*
X85080D01*
Y457460D01*
X82540Y460000D01*
X85080Y462540D01*
Y465080D01*
X82540D01*
X80000Y462540D01*
X77460Y465080D01*
X74920D01*
Y462540D01*
X77460Y460000D01*
X74920Y457460D01*
Y454920D01*
X84920Y434920D02*
X87460D01*
X90000Y437460D01*
X92540Y434920D01*
X95080D01*
Y437460D01*
X92540Y440000D01*
X95080Y442540D01*
Y445080D01*
X92540D01*
X90000Y442540D01*
X87460Y445080D01*
X84920D01*
Y442540D01*
X87460Y440000D01*
X84920Y437460D01*
Y434920D01*
Y354920D02*
X87460D01*
X90000Y357460D01*
X92540Y354920D01*
X95080D01*
Y357460D01*
X92540Y360000D01*
X95080Y362540D01*
Y365080D01*
X92540D01*
X90000Y362540D01*
X87460Y365080D01*
X84920D01*
Y362540D01*
X87460Y360000D01*
X84920Y357460D01*
Y354920D01*
X74920Y254920D02*
X77460D01*
X80000Y257460D01*
X82540Y254920D01*
X85080D01*
Y257460D01*
X82540Y260000D01*
X85080Y262540D01*
Y265080D01*
X82540D01*
X80000Y262540D01*
X77460Y265080D01*
X74920D01*
Y262540D01*
X77460Y260000D01*
X74920Y257460D01*
Y254920D01*
X84920Y74920D02*
X87460D01*
X90000Y77460D01*
X92540Y74920D01*
X95080D01*
Y77460D01*
X92540Y80000D01*
X95080Y82540D01*
Y85080D01*
X92540D01*
X90000Y82540D01*
X87460Y85080D01*
X84920D01*
Y82540D01*
X87460Y80000D01*
X84920Y77460D01*
Y74920D01*
X74920Y54920D02*
X77460D01*
X80000Y57460D01*
X82540Y54920D01*
X85080D01*
Y57460D01*
X82540Y60000D01*
X85080Y62540D01*
Y65080D01*
X82540D01*
X80000Y62540D01*
X77460Y65080D01*
X74920D01*
Y62540D01*
X77460Y60000D01*
X74920Y57460D01*
Y54920D01*
Y14920D02*
X77460D01*
X80000Y17460D01*
X82540Y14920D01*
X85080D01*
Y17460D01*
X82540Y20000D01*
X85080Y22540D01*
Y25080D01*
X82540D01*
X80000Y22540D01*
X77460Y25080D01*
X74920D01*
Y22540D01*
X77460Y20000D01*
X74920Y17460D01*
Y14920D01*
X54920Y254920D02*
X57460D01*
X60000Y257460D01*
X62540Y254920D01*
X65080D01*
Y257460D01*
X62540Y260000D01*
X65080Y262540D01*
Y265080D01*
X62540D01*
X60000Y262540D01*
X57460Y265080D01*
X54920D01*
Y262540D01*
X57460Y260000D01*
X54920Y257460D01*
Y254920D01*
X64920Y74920D02*
X67460D01*
X70000Y77460D01*
X72540Y74920D01*
X75080D01*
Y77460D01*
X72540Y80000D01*
X75080Y82540D01*
Y85080D01*
X72540D01*
X70000Y82540D01*
X67460Y85080D01*
X64920D01*
Y82540D01*
X67460Y80000D01*
X64920Y77460D01*
Y74920D01*
X34920Y534920D02*
X37460D01*
X40000Y537460D01*
X42540Y534920D01*
X45080D01*
Y537460D01*
X42540Y540000D01*
X45080Y542540D01*
Y545080D01*
X42540D01*
X40000Y542540D01*
X37460Y545080D01*
X34920D01*
Y542540D01*
X37460Y540000D01*
X34920Y537460D01*
Y534920D01*
Y454920D02*
X37460D01*
X40000Y457460D01*
X42540Y454920D01*
X45080D01*
Y457460D01*
X42540Y460000D01*
X45080Y462540D01*
Y465080D01*
X42540D01*
X40000Y462540D01*
X37460Y465080D01*
X34920D01*
Y462540D01*
X37460Y460000D01*
X34920Y457460D01*
Y454920D01*
X44920Y434920D02*
X47460D01*
X50000Y437460D01*
X52540Y434920D01*
X55080D01*
Y437460D01*
X52540Y440000D01*
X55080Y442540D01*
Y445080D01*
X52540D01*
X50000Y442540D01*
X47460Y445080D01*
X44920D01*
Y442540D01*
X47460Y440000D01*
X44920Y437460D01*
Y434920D01*
Y274920D02*
X47460D01*
X50000Y277460D01*
X52540Y274920D01*
X55080D01*
Y277460D01*
X52540Y280000D01*
X55080Y282540D01*
Y285080D01*
X52540D01*
X50000Y282540D01*
X47460Y285080D01*
X44920D01*
Y282540D01*
X47460Y280000D01*
X44920Y277460D01*
Y274920D01*
X34920Y254920D02*
X37460D01*
X40000Y257460D01*
X42540Y254920D01*
X45080D01*
Y257460D01*
X42540Y260000D01*
X45080Y262540D01*
Y265080D01*
X42540D01*
X40000Y262540D01*
X37460Y265080D01*
X34920D01*
Y262540D01*
X37460Y260000D01*
X34920Y257460D01*
Y254920D01*
Y174920D02*
X37460D01*
X40000Y177460D01*
X42540Y174920D01*
X45080D01*
Y177460D01*
X42540Y180000D01*
X45080Y182540D01*
Y185080D01*
X42540D01*
X40000Y182540D01*
X37460Y185080D01*
X34920D01*
Y182540D01*
X37460Y180000D01*
X34920Y177460D01*
Y174920D01*
X44920Y154920D02*
X47460D01*
X50000Y157460D01*
X52540Y154920D01*
X55080D01*
Y157460D01*
X52540Y160000D01*
X55080Y162540D01*
Y165080D01*
X52540D01*
X50000Y162540D01*
X47460Y165080D01*
X44920D01*
Y162540D01*
X47460Y160000D01*
X44920Y157460D01*
Y154920D01*
X14920Y534920D02*
X17460D01*
X20000Y537460D01*
X22540Y534920D01*
X25080D01*
Y537460D01*
X22540Y540000D01*
X25080Y542540D01*
Y545080D01*
X22540D01*
X20000Y542540D01*
X17460Y545080D01*
X14920D01*
Y542540D01*
X17460Y540000D01*
X14920Y537460D01*
Y534920D01*
Y454920D02*
X17460D01*
X20000Y457460D01*
X22540Y454920D01*
X25080D01*
Y457460D01*
X22540Y460000D01*
X25080Y462540D01*
Y465080D01*
X22540D01*
X20000Y462540D01*
X17460Y465080D01*
X14920D01*
Y462540D01*
X17460Y460000D01*
X14920Y457460D01*
Y454920D01*
X24920Y354920D02*
X27460D01*
X30000Y357460D01*
X32540Y354920D01*
X35080D01*
Y357460D01*
X32540Y360000D01*
X35080Y362540D01*
Y365080D01*
X32540D01*
X30000Y362540D01*
X27460Y365080D01*
X24920D01*
Y362540D01*
X27460Y360000D01*
X24920Y357460D01*
Y354920D01*
X14920Y254920D02*
X17460D01*
X20000Y257460D01*
X22540Y254920D01*
X25080D01*
Y257460D01*
X22540Y260000D01*
X25080Y262540D01*
Y265080D01*
X22540D01*
X20000Y262540D01*
X17460Y265080D01*
X14920D01*
Y262540D01*
X17460Y260000D01*
X14920Y257460D01*
Y254920D01*
X24920Y74920D02*
X27460D01*
X30000Y77460D01*
X32540Y74920D01*
X35080D01*
Y77460D01*
X32540Y80000D01*
X35080Y82540D01*
Y85080D01*
X32540D01*
X30000Y82540D01*
X27460Y85080D01*
X24920D01*
Y82540D01*
X27460Y80000D01*
X24920Y77460D01*
Y74920D01*
X85090Y266700D02*
X87630D01*
X90170Y269240D01*
X92710Y266700D01*
X95250D01*
Y269240D01*
X92710Y271780D01*
X95250Y274320D01*
Y276860D01*
X92710D01*
X90170Y274320D01*
X87630Y276860D01*
X85090D01*
Y274320D01*
X87630Y271780D01*
X85090Y269240D01*
Y266700D01*
X13970Y379730D02*
X16510D01*
X19050Y382270D01*
X21590Y379730D01*
X24130D01*
Y382270D01*
X21590Y384810D01*
X24130Y387350D01*
Y389890D01*
X21590D01*
X19050Y387350D01*
X16510Y389890D01*
X13970D01*
Y387350D01*
X16510Y384810D01*
X13970Y382270D01*
Y379730D01*
X71120Y354330D02*
X73660D01*
X76200Y356870D01*
X78740Y354330D01*
X81280D01*
Y356870D01*
X78740Y359410D01*
X81280Y361950D01*
Y364490D01*
X78740D01*
X76200Y361950D01*
X73660Y364490D01*
X71120D01*
Y361950D01*
X73660Y359410D01*
X71120Y356870D01*
Y354330D01*
X83820Y317500D02*
X86360D01*
X88900Y320040D01*
X91440Y317500D01*
X93980D01*
Y320040D01*
X91440Y322580D01*
X93980Y325120D01*
Y327660D01*
X91440D01*
X88900Y325120D01*
X86360Y327660D01*
X83820D01*
Y325120D01*
X86360Y322580D01*
X83820Y320040D01*
Y317500D01*
Y342900D02*
X86360D01*
X88900Y345440D01*
X91440Y342900D01*
X93980D01*
Y345440D01*
X91440Y347980D01*
X93980Y350520D01*
Y353060D01*
X91440D01*
X88900Y350520D01*
X86360Y353060D01*
X83820D01*
Y350520D01*
X86360Y347980D01*
X83820Y345440D01*
Y342900D01*
X152400Y323850D02*
X154940D01*
X157480Y326390D01*
X160020Y323850D01*
X162560D01*
Y326390D01*
X160020Y328930D01*
X162560Y331470D01*
Y334010D01*
X160020D01*
X157480Y331470D01*
X154940Y334010D01*
X152400D01*
Y331470D01*
X154940Y328930D01*
X152400Y326390D01*
Y323850D01*
X137160D02*
X139700D01*
X142240Y326390D01*
X144780Y323850D01*
X147320D01*
Y326390D01*
X144780Y328930D01*
X147320Y331470D01*
Y334010D01*
X144780D01*
X142240Y331470D01*
X139700Y334010D01*
X137160D01*
Y331470D01*
X139700Y328930D01*
X137160Y326390D01*
Y323850D01*
X140970Y356870D02*
X143510D01*
X146050Y359410D01*
X148590Y356870D01*
X151130D01*
Y359410D01*
X148590Y361950D01*
X151130Y364490D01*
Y367030D01*
X148590D01*
X146050Y364490D01*
X143510Y367030D01*
X140970D01*
Y364490D01*
X143510Y361950D01*
X140970Y359410D01*
Y356870D01*
X147320Y391160D02*
X149860D01*
X152400Y393700D01*
X154940Y391160D01*
X157480D01*
Y393700D01*
X154940Y396240D01*
X157480Y398780D01*
Y401320D01*
X154940D01*
X152400Y398780D01*
X149860Y401320D01*
X147320D01*
Y398780D01*
X149860Y396240D01*
X147320Y393700D01*
Y391160D01*
X95250Y369570D02*
X97790D01*
X100330Y372110D01*
X102870Y369570D01*
X105410D01*
Y372110D01*
X102870Y374650D01*
X105410Y377190D01*
Y379730D01*
X102870D01*
X100330Y377190D01*
X97790Y379730D01*
X95250D01*
Y377190D01*
X97790Y374650D01*
X95250Y372110D01*
Y369570D01*
X133350Y402590D02*
X135890D01*
X138430Y405130D01*
X140970Y402590D01*
X143510D01*
Y405130D01*
X140970Y407670D01*
X143510Y410210D01*
Y412750D01*
X140970D01*
X138430Y410210D01*
X135890Y412750D01*
X133350D01*
Y410210D01*
X135890Y407670D01*
X133350Y405130D01*
Y402590D01*
M02*
