G04*
G04 #@! TF.GenerationSoftware,Altium Limited,Altium Designer,23.1.1 (15)*
G04*
G04 Layer_Color=128*
%FSLAX44Y44*%
%MOMM*%
G71*
G04*
G04 #@! TF.SameCoordinates,0AF84104-F659-47EF-A6CA-85AD17C22E92*
G04*
G04*
G04 #@! TF.FilePolarity,Positive*
G04*
G01*
G75*
%ADD25R,1.6000X1.5500*%
%ADD26O,0.7000X0.2500*%
%ADD27O,0.2500X0.7000*%
%ADD28R,0.5500X0.6000*%
%ADD29R,0.6500X0.3500*%
%ADD30R,0.3500X0.6500*%
%ADD31R,0.6153X0.5725*%
%ADD32R,0.4725X0.5153*%
%ADD33R,0.6725X0.7154*%
%ADD34R,0.5000X0.5000*%
%ADD35R,0.6000X0.5000*%
%ADD36R,0.7500X0.6500*%
%ADD39R,0.7000X0.7000*%
%ADD40R,0.7200X0.7600*%
%ADD48R,0.8000X0.8500*%
%ADD49R,0.9000X2.0000*%
D25*
X128270Y379730D02*
D03*
D26*
X146770Y369730D02*
D03*
Y374730D02*
D03*
Y379730D02*
D03*
Y384730D02*
D03*
Y389730D02*
D03*
X109770D02*
D03*
Y384730D02*
D03*
Y379730D02*
D03*
Y374730D02*
D03*
Y369730D02*
D03*
D27*
X138270Y398230D02*
D03*
X133270D02*
D03*
X128270D02*
D03*
X123270D02*
D03*
X118270D02*
D03*
Y361230D02*
D03*
X123270D02*
D03*
X128270D02*
D03*
X133270D02*
D03*
X138270D02*
D03*
D28*
X147320Y409770D02*
D03*
Y418270D02*
D03*
D29*
X129540Y421200D02*
D03*
Y429700D02*
D03*
X118110Y421200D02*
D03*
Y429700D02*
D03*
D30*
X129980Y411480D02*
D03*
X121480D02*
D03*
D31*
X128746Y455930D02*
D03*
X120174D02*
D03*
D32*
X129540Y438174D02*
D03*
Y445746D02*
D03*
X157480Y381024D02*
D03*
Y388596D02*
D03*
X160020Y361974D02*
D03*
Y369546D02*
D03*
D33*
X146050Y348956D02*
D03*
Y339384D02*
D03*
D34*
X106600Y417830D02*
D03*
X96600D02*
D03*
Y429260D02*
D03*
X106600D02*
D03*
D35*
X91860Y370840D02*
D03*
X80860D02*
D03*
X83400Y406400D02*
D03*
X94400D02*
D03*
D36*
X82400Y383620D02*
D03*
X95400D02*
D03*
Y393620D02*
D03*
X82400D02*
D03*
D39*
X142240Y304150D02*
D03*
Y318150D02*
D03*
X158750D02*
D03*
Y304150D02*
D03*
D40*
Y411480D02*
D03*
Y421280D02*
D03*
D48*
X128279Y469890D02*
D03*
D49*
X143270Y485140D02*
D03*
X113270D02*
D03*
M02*
