G04*
G04 #@! TF.GenerationSoftware,Altium Limited,Altium Designer,23.0.1 (38)*
G04*
G04 Layer_Color=8388736*
%FSLAX44Y44*%
%MOMM*%
G71*
G04*
G04 #@! TF.SameCoordinates,34A72795-73FE-4812-8059-925B3A141BCA*
G04*
G04*
G04 #@! TF.FilePolarity,Negative*
G04*
G01*
G75*
%ADD12C,0.2540*%
%ADD14R,1.7800X1.0200*%
%ADD15C,1.0200*%
%ADD16C,1.8000*%
%ADD17C,5.3000*%
%ADD18C,6.0000*%
D12*
X125485Y87630D02*
X110250D01*
Y95247D01*
X112789Y97787D01*
X117868D01*
X120407Y95247D01*
Y87630D01*
X115329Y105404D02*
Y110483D01*
X117868Y113022D01*
X125485D01*
Y105404D01*
X122946Y102865D01*
X120407Y105404D01*
Y113022D01*
X110250Y118100D02*
X125485D01*
X117868D01*
Y128257D01*
X110250D01*
X125485D01*
Y135874D02*
Y140953D01*
X122946Y143492D01*
X117868D01*
X115329Y140953D01*
Y135874D01*
X117868Y133335D01*
X122946D01*
X125485Y135874D01*
X115329Y148570D02*
X122946D01*
X125485Y151110D01*
Y158727D01*
X128024D01*
X130564Y156188D01*
Y153649D01*
X125485Y158727D02*
X115329D01*
X110250Y179040D02*
X120407D01*
X125485Y184119D01*
X120407Y189197D01*
X110250D01*
X125485Y194275D02*
Y199354D01*
Y196815D01*
X110250D01*
X112789Y194275D01*
X125485Y224746D02*
X110250D01*
Y229824D02*
X125485D01*
X115329Y222206D02*
Y229824D01*
Y232363D01*
X120407Y222206D02*
Y232363D01*
X139707Y87630D02*
X154942D01*
Y95247D01*
X152402Y97787D01*
X149863D01*
X147324D01*
X144785Y95247D01*
Y87630D01*
Y102865D02*
X152402D01*
X154942Y105404D01*
Y113022D01*
X157481D01*
X160020Y110483D01*
Y107943D01*
X154942Y113022D02*
X144785D01*
X139707Y133335D02*
X154942D01*
Y140953D01*
X152402Y143492D01*
X142246D01*
X139707Y140953D01*
Y133335D01*
X154942Y148570D02*
X139707D01*
X144785Y153649D01*
X139707Y158727D01*
X154942D01*
X139707Y173962D02*
X142246Y168884D01*
X147324Y163805D01*
X152402D01*
X154942Y166345D01*
Y171423D01*
X152402Y173962D01*
X149863D01*
X147324Y171423D01*
Y163805D01*
X139707Y189197D02*
Y184119D01*
Y186658D01*
X152402D01*
X154942Y184119D01*
Y181580D01*
X152402Y179040D01*
X154942Y194275D02*
X139707D01*
X144785Y199354D01*
X139707Y204432D01*
X154942D01*
D14*
X15900Y576300D02*
D03*
Y550900D02*
D03*
Y525500D02*
D03*
Y500100D02*
D03*
Y474700D02*
D03*
Y449300D02*
D03*
Y423900D02*
D03*
Y398500D02*
D03*
Y373100D02*
D03*
Y347700D02*
D03*
Y322300D02*
D03*
Y296900D02*
D03*
Y271500D02*
D03*
Y246100D02*
D03*
Y220700D02*
D03*
Y195300D02*
D03*
Y169900D02*
D03*
Y144500D02*
D03*
Y119100D02*
D03*
Y93700D02*
D03*
X74100Y576300D02*
D03*
Y550900D02*
D03*
Y525500D02*
D03*
Y500100D02*
D03*
Y474700D02*
D03*
Y449300D02*
D03*
Y423900D02*
D03*
Y398500D02*
D03*
Y373100D02*
D03*
Y347700D02*
D03*
Y322300D02*
D03*
Y296900D02*
D03*
Y271500D02*
D03*
Y246100D02*
D03*
Y220700D02*
D03*
Y195300D02*
D03*
Y169900D02*
D03*
Y144500D02*
D03*
Y119100D02*
D03*
Y93700D02*
D03*
D15*
X57700Y169900D02*
D03*
Y195300D02*
D03*
Y220700D02*
D03*
Y246100D02*
D03*
Y271500D02*
D03*
Y296900D02*
D03*
Y322300D02*
D03*
Y347700D02*
D03*
Y373100D02*
D03*
Y398500D02*
D03*
Y423900D02*
D03*
Y449300D02*
D03*
Y474700D02*
D03*
Y500100D02*
D03*
Y525500D02*
D03*
Y550900D02*
D03*
Y576300D02*
D03*
Y93700D02*
D03*
Y119100D02*
D03*
Y144500D02*
D03*
X32300Y93700D02*
D03*
Y119100D02*
D03*
Y144500D02*
D03*
Y169900D02*
D03*
Y195300D02*
D03*
Y220700D02*
D03*
Y246100D02*
D03*
Y271500D02*
D03*
Y296900D02*
D03*
Y322300D02*
D03*
Y347700D02*
D03*
Y373100D02*
D03*
Y398500D02*
D03*
Y423900D02*
D03*
Y449300D02*
D03*
Y474700D02*
D03*
Y500100D02*
D03*
Y525500D02*
D03*
Y550900D02*
D03*
Y576300D02*
D03*
D16*
X45000Y106400D02*
D03*
Y563600D02*
D03*
D17*
X170000Y560000D02*
D03*
D18*
X45000Y625000D02*
D03*
Y45000D02*
D03*
M02*
