M48
;Layer_Color=9474304
;FILE_FORMAT=4:4
METRIC,LZ
;TYPE=PLATED
T1F00S00C0.3000
;TYPE=NON_PLATED
T2F00S00C1.1520
T3F00S00C1.8000
T4F00S00C3.0000
T5F00S00C4.2500
%
T01
X0008Y0002
Y0006
X0009Y0008
X0011
X0013
X0015
X0007
X000577Y000937
X000323
X0003Y0008
X000323Y001191
Y001445
Y001699
X0004Y0018
X000323Y001953
Y002207
Y002461
X0004Y0026
X000323Y002715
X0002Y0026
X0006
X000577Y002715
X0005Y0028
X000577Y002969
X000323
Y003223
Y003477
X0003Y0036
X000323Y003731
X000577
X0005Y0036
X000577Y003477
X0004Y0034
X000577Y003223
X00089404Y00317519
X0009017Y003302
X0009924Y0033764
X0011Y0032
X0013
X0012954Y0033909
X0013379Y00348061
X0014563Y0036195
X0013208Y0037592
Y0038354
X0012446
Y0037592
X0010033Y0037465
X0011049Y0036195
X000889Y0035814
X0006858Y0038608
X001524Y0039624
X00161364Y00396499
X0016256Y0034671
X0015748Y0032893
X0014224
X0012Y003
X001
X0011Y0028
X0013
X0015
X0016Y0026
X0014
X0012
X001
X0008
X0009Y0028
Y0024
X0011
X0013
X0015
X000577Y002461
Y002207
Y001953
Y001699
X0005Y0016
X000577Y001445
Y001191
X0009Y0012
Y0016
Y002
X0001651Y0030861
X000323Y003985
Y004239
Y004493
X0004Y0046
X0002
X000323Y004747
Y005001
Y005255
X0004Y0054
X000323Y005509
X0002Y0054
X000323Y005763
X000577
Y005509
Y005255
Y005001
Y004747
Y004493
X0005Y0044
X000577Y004239
Y003985
X00110395Y00398685
X0013843Y0040767
X0016129Y0040259
X0015Y0044
X0016Y0046
X0014
X0011Y0044
X0008Y0046
Y0054
X0012
X0014
X0015Y0052
X0017
X0019
X002Y0054
Y0058
X0019Y006
X0017
X0015
X0013
X0011
X0009
X001Y0062
X0012
X0014
X0016
X0018
X0013Y0064
X0011
X0009
X001Y0066
X0012
X0008
X0006
X000127Y0059436
X001Y0058
X0012
X0014
X0013Y0056
X0011
Y0052
X0013
X0016Y005
T02
X000127Y000127
X0016129Y0065151
T03
X00045Y001064
Y005636
T04
X0017Y0056
T05
X00045Y00045
Y00625
M30
